<?xml version="1.0" encoding="UTF-8"?><svg xmlns="http://www.w3.org/2000/svg" xmlns:xlink="http://www.w3.org/1999/xlink" fill-opacity="1" color-rendering="auto" color-interpolation="auto" text-rendering="auto" stroke="black" stroke-linecap="square" width="546" stroke-miterlimit="10" shape-rendering="auto" stroke-opacity="1" fill="black" stroke-dasharray="none" font-weight="normal" stroke-width="1" height="727" font-family="'Dialog'" font-style="normal" stroke-linejoin="miter" font-size="12px" stroke-dashoffset="0" image-rendering="auto">
  <!--Generated by ySVG 2.6-->
  <defs id="genericDefs"/>
  <g>
    <defs id="defs1">
      <clipPath clipPathUnits="userSpaceOnUse" id="clipPath1">
        <path d="M0 0 L546 0 L546 727 L0 727 L0 0 Z"/>
      </clipPath>
      <clipPath clipPathUnits="userSpaceOnUse" id="clipPath2">
        <path d="M540 113 L1086 113 L1086 840 L540 840 L540 113 Z"/>
      </clipPath>
    </defs>
    <g fill="white" text-rendering="geometricPrecision" shape-rendering="geometricPrecision" transform="translate(-540,-113)" stroke="white">
      <rect x="540" width="546" height="727" y="113" clip-path="url(#clipPath2)" stroke="none"/>
    </g>
    <g text-rendering="geometricPrecision" stroke-miterlimit="1.45" shape-rendering="geometricPrecision" transform="matrix(1,0,0,1,-540,-113)" stroke-linecap="butt">
      <rect x="555" y="154.5" clip-path="url(#clipPath2)" fill="none" width="212" rx="38" ry="38" height="76"/>
      <text x="638.084" xml:space="preserve" y="196.6543" clip-path="url(#clipPath2)" font-family="sans-serif" stroke="none">Начало</text>
    </g>
    <g text-rendering="geometricPrecision" stroke-miterlimit="1.45" shape-rendering="geometricPrecision" transform="matrix(1,0,0,1,-540,-113)" stroke-linecap="butt">
      <path fill="none" d="M854.875 128.75 L824 128.75 L824 256.25 L854.875 256.25" clip-path="url(#clipPath2)"/>
      <text x="834.9238" xml:space="preserve" y="147.7637" clip-path="url(#clipPath2)" font-family="sans-serif" stroke="none">Алгоритм работы 1-го потока</text>
      <text x="834.9238" xml:space="preserve" y="161.7324" clip-path="url(#clipPath2)" font-family="sans-serif" stroke="none">Вход:</text>
      <text x="834.9238" xml:space="preserve" y="175.7012" clip-path="url(#clipPath2)" font-family="sans-serif" stroke="none">numAppl - количество заявок</text>
      <text x="834.9238" xml:space="preserve" y="189.6699" clip-path="url(#clipPath2)" font-family="sans-serif" stroke="none">q1 - очередь между потоками 1 и 2</text>
      <text x="834.9238" xml:space="preserve" y="203.6387" clip-path="url(#clipPath2)" font-family="sans-serif" stroke="none">с N-граммами в 2 потока</text>
      <text x="834.9238" xml:space="preserve" y="217.6074" clip-path="url(#clipPath2)" font-family="sans-serif" stroke="none">mq1 - мьютек для очереди q1</text>
      <text x="834.9238" xml:space="preserve" y="231.5762" clip-path="url(#clipPath2)" font-family="sans-serif" stroke="none">Выход:</text>
      <text x="834.9238" xml:space="preserve" y="245.5449" clip-path="url(#clipPath2)" font-family="sans-serif" stroke="none">Считанные тексты</text>
    </g>
    <g text-rendering="geometricPrecision" stroke-miterlimit="1.45" shape-rendering="geometricPrecision" transform="matrix(1,0,0,1,-540,-113)" stroke-linecap="butt">
      <path fill="none" d="M565 241.5 L757 241.5 L767 251.5 L767 317.5 L555 317.5 L555 251.5 Z" clip-path="url(#clipPath2)"/>
      <text x="568.8408" xml:space="preserve" y="283.6543" clip-path="url(#clipPath2)" font-family="sans-serif" stroke="none">Цикл по i от 0 до numAppl - 1</text>
    </g>
    <g text-rendering="geometricPrecision" stroke-miterlimit="1.45" shape-rendering="geometricPrecision" transform="matrix(1,0,0,1,-540,-113)" stroke-linecap="butt">
      <rect x="555" y="748.5" clip-path="url(#clipPath2)" fill="none" width="212" rx="38" ry="38" height="76"/>
      <text x="641.3711" xml:space="preserve" y="790.6543" clip-path="url(#clipPath2)" font-family="sans-serif" stroke="none">Конец</text>
    </g>
    <g text-rendering="geometricPrecision" stroke-miterlimit="1.45" shape-rendering="geometricPrecision" transform="matrix(1,0,0,1,-540,-113)" stroke-linecap="butt">
      <path fill="none" d="M555 496.5 L767 496.5 L767 572.5 L555 572.5 Z" clip-path="url(#clipPath2)"/>
      <text x="599.7842" xml:space="preserve" y="531.6699" clip-path="url(#clipPath2)" font-family="sans-serif" stroke="none">добавление заявки</text>
      <text x="619.9316" xml:space="preserve" y="545.6387" clip-path="url(#clipPath2)" font-family="sans-serif" stroke="none">в очередь q1</text>
    </g>
    <g text-rendering="geometricPrecision" stroke-miterlimit="1.45" shape-rendering="geometricPrecision" transform="matrix(1,0,0,1,-540,-113)" stroke-linecap="butt">
      <path fill="none" d="M555 666 L767 666 L767 729 L757 739 L565 739 L555 729 Z" clip-path="url(#clipPath2)"/>
      <text x="607.2695" xml:space="preserve" y="706.6543" clip-path="url(#clipPath2)" font-family="sans-serif" stroke="none">Конец цикла по i</text>
    </g>
    <g text-rendering="geometricPrecision" stroke-miterlimit="1.45" shape-rendering="geometricPrecision" transform="matrix(1,0,0,1,-540,-113)" stroke-linecap="butt">
      <rect fill="none" x="555" width="212" height="76" y="328.5" clip-path="url(#clipPath2)"/>
      <path fill="none" d="M565 328.5 L565 404.5 M757 328.5 L757 404.5 M565 328.5 Z" clip-path="url(#clipPath2)"/>
      <text x="583.876" xml:space="preserve" y="370.6543" clip-path="url(#clipPath2)" font-family="sans-serif" stroke="none">Чтение текста из файла</text>
    </g>
    <g text-rendering="geometricPrecision" stroke-miterlimit="1.45" shape-rendering="geometricPrecision" transform="matrix(1,0,0,1,-540,-113)" stroke-linecap="butt">
      <rect fill="none" x="555" width="212" height="76" y="412.5" clip-path="url(#clipPath2)"/>
      <path fill="none" d="M565 412.5 L565 488.5 M757 412.5 L757 488.5 M565 412.5 Z" clip-path="url(#clipPath2)"/>
      <text x="572.1426" xml:space="preserve" y="440.6855" clip-path="url(#clipPath2)" font-family="sans-serif" stroke="none">Обеспечение монопольного</text>
      <text x="578.1279" xml:space="preserve" y="454.6543" clip-path="url(#clipPath2)" font-family="sans-serif" stroke="none">доступа к очереди заявок</text>
      <text x="568.0469" xml:space="preserve" y="468.623" clip-path="url(#clipPath2)" font-family="sans-serif" stroke="none">q1 с помощью мьютекса mq1</text>
    </g>
    <g text-rendering="geometricPrecision" stroke-miterlimit="1.45" shape-rendering="geometricPrecision" transform="matrix(1,0,0,1,-540,-113)" stroke-linecap="butt">
      <rect fill="none" x="555" width="212" height="76" y="580.5" clip-path="url(#clipPath2)"/>
      <path fill="none" d="M565 580.5 L565 656.5 M757 580.5 L757 656.5 M565 580.5 Z" clip-path="url(#clipPath2)"/>
      <text x="611.7344" xml:space="preserve" y="615.6699" clip-path="url(#clipPath2)" font-family="sans-serif" stroke="none">Освобождение </text>
      <text x="614.7227" xml:space="preserve" y="629.6387" clip-path="url(#clipPath2)" font-family="sans-serif" stroke="none">мьютекса mq1</text>
    </g>
    <g text-rendering="geometricPrecision" stroke-miterlimit="1.45" stroke-dasharray="6,2" shape-rendering="geometricPrecision" transform="matrix(1,0,0,1,-540,-113)" stroke-linecap="butt">
      <path fill="none" d="M824.0098 192.5 L766.9803 192.5" clip-path="url(#clipPath2)"/>
    </g>
    <g text-rendering="geometricPrecision" stroke-miterlimit="1.45" shape-rendering="geometricPrecision" transform="matrix(1,0,0,1,-540,-113)" stroke-linecap="butt">
      <path fill="none" d="M661 230.52 L661 241.4736" clip-path="url(#clipPath2)"/>
      <path fill="none" d="M661 738.9629 L661 748.4796" clip-path="url(#clipPath2)"/>
      <path fill="none" d="M661 317.52 L661 328.4735" clip-path="url(#clipPath2)"/>
      <path fill="none" d="M661 404.5215 L661 412.4689" clip-path="url(#clipPath2)"/>
      <path fill="none" d="M661 488.5215 L661 496.4689" clip-path="url(#clipPath2)"/>
      <path fill="none" d="M661 572.5215 L661 580.4689" clip-path="url(#clipPath2)"/>
      <path fill="none" d="M661 656.5215 L661 665.9955" clip-path="url(#clipPath2)"/>
    </g>
  </g>
</svg>
