<?xml version="1.0" encoding="UTF-8"?><svg xmlns="http://www.w3.org/2000/svg" xmlns:xlink="http://www.w3.org/1999/xlink" fill-opacity="1" color-rendering="auto" color-interpolation="auto" text-rendering="auto" stroke="black" stroke-linecap="square" width="546" stroke-miterlimit="10" shape-rendering="auto" stroke-opacity="1" fill="black" stroke-dasharray="none" font-weight="normal" stroke-width="1" height="837" font-family="'Dialog'" font-style="normal" stroke-linejoin="miter" font-size="12px" stroke-dashoffset="0" image-rendering="auto">
  <!--Generated by ySVG 2.6-->
  <defs id="genericDefs"/>
  <g>
    <defs id="defs1">
      <clipPath clipPathUnits="userSpaceOnUse" id="clipPath1">
        <path d="M0 0 L546 0 L546 837 L0 837 L0 0 Z"/>
      </clipPath>
      <clipPath clipPathUnits="userSpaceOnUse" id="clipPath2">
        <path d="M565 130 L1111 130 L1111 967 L565 967 L565 130 Z"/>
      </clipPath>
    </defs>
    <g fill="white" text-rendering="geometricPrecision" shape-rendering="geometricPrecision" transform="translate(-565,-130)" stroke="white">
      <rect x="565" width="546" height="837" y="130" clip-path="url(#clipPath2)" stroke="none"/>
    </g>
    <g text-rendering="geometricPrecision" stroke-miterlimit="1.45" shape-rendering="geometricPrecision" transform="matrix(1,0,0,1,-565,-130)" stroke-linecap="butt">
      <rect x="580" y="180.25" clip-path="url(#clipPath2)" fill="none" width="212" rx="38" ry="38" height="76"/>
      <text x="663.084" xml:space="preserve" y="222.4043" clip-path="url(#clipPath2)" font-family="sans-serif" stroke="none">Начало</text>
    </g>
    <g text-rendering="geometricPrecision" stroke-miterlimit="1.45" shape-rendering="geometricPrecision" transform="matrix(1,0,0,1,-565,-130)" stroke-linecap="butt">
      <path fill="none" d="M879.875 145 L849 145 L849 291.5 L879.875 291.5" clip-path="url(#clipPath2)"/>
      <text x="859.9238" xml:space="preserve" y="166.5293" clip-path="url(#clipPath2)" font-family="sans-serif" stroke="none">Алгоритм работы 2-го потока</text>
      <text x="859.9238" xml:space="preserve" y="180.498" clip-path="url(#clipPath2)" font-family="sans-serif" stroke="none">Вход:</text>
      <text x="859.9238" xml:space="preserve" y="194.4668" clip-path="url(#clipPath2)" font-family="sans-serif" stroke="none">numAppl - количество заявок</text>
      <text x="859.9238" xml:space="preserve" y="208.4355" clip-path="url(#clipPath2)" font-family="sans-serif" stroke="none">q1 - очередь между потоками 1 и 2</text>
      <text x="859.9238" xml:space="preserve" y="222.4043" clip-path="url(#clipPath2)" font-family="sans-serif" stroke="none">q2 - очередь между потоками 2 и 3</text>
      <text x="859.9238" xml:space="preserve" y="236.373" clip-path="url(#clipPath2)" font-family="sans-serif" stroke="none">mq1 - мьютекс для очереди q1</text>
      <text x="859.9238" xml:space="preserve" y="250.3418" clip-path="url(#clipPath2)" font-family="sans-serif" stroke="none">mq2 - мьютекс для очереди q2</text>
      <text x="859.9238" xml:space="preserve" y="264.3105" clip-path="url(#clipPath2)" font-family="sans-serif" stroke="none">Выход:</text>
      <text x="859.9238" xml:space="preserve" y="278.2793" clip-path="url(#clipPath2)" font-family="sans-serif" stroke="none">Словари N-грамм</text>
    </g>
    <g text-rendering="geometricPrecision" stroke-miterlimit="1.45" shape-rendering="geometricPrecision" transform="matrix(1,0,0,1,-565,-130)" stroke-linecap="butt">
      <path fill="none" d="M590 267.25 L782 267.25 L792 277.25 L792 343.25 L580 343.25 L580 277.25 Z" clip-path="url(#clipPath2)"/>
      <text x="593.8408" xml:space="preserve" y="309.4043" clip-path="url(#clipPath2)" font-family="sans-serif" stroke="none">Цикл по i от 0 до numAppl - 1</text>
    </g>
    <g text-rendering="geometricPrecision" stroke-miterlimit="1.45" shape-rendering="geometricPrecision" transform="matrix(1,0,0,1,-565,-130)" stroke-linecap="butt">
      <rect x="866.5" y="787.5" clip-path="url(#clipPath2)" fill="none" width="212" rx="38" ry="38" height="76"/>
      <text x="952.8711" xml:space="preserve" y="829.6543" clip-path="url(#clipPath2)" font-family="sans-serif" stroke="none">Конец</text>
    </g>
    <g text-rendering="geometricPrecision" stroke-miterlimit="1.45" shape-rendering="geometricPrecision" transform="matrix(1,0,0,1,-565,-130)" stroke-linecap="butt">
      <path fill="none" d="M866.5 705 L1078.5 705 L1078.5 768 L1068.5 778 L876.5 778 L866.5 768 Z" clip-path="url(#clipPath2)"/>
      <text x="918.7695" xml:space="preserve" y="745.6543" clip-path="url(#clipPath2)" font-family="sans-serif" stroke="none">Конец цикла по i</text>
    </g>
    <g text-rendering="geometricPrecision" stroke-miterlimit="1.45" shape-rendering="geometricPrecision" transform="matrix(1,0,0,1,-565,-130)" stroke-linecap="butt">
      <path fill="none" d="M590 354.25 L782 354.25 L792 364.25 L792 430.25 L580 430.25 L580 364.25 Z" clip-path="url(#clipPath2)"/>
      <text x="608.0586" xml:space="preserve" y="389.4199" clip-path="url(#clipPath2)" font-family="sans-serif" stroke="none">Цикл по q пока очередь </text>
      <text x="649.001" xml:space="preserve" y="403.3887" clip-path="url(#clipPath2)" font-family="sans-serif" stroke="none">q1 не пуста</text>
    </g>
    <g text-rendering="geometricPrecision" stroke-miterlimit="1.45" shape-rendering="geometricPrecision" transform="matrix(1,0,0,1,-565,-130)" stroke-linecap="butt">
      <path fill="none" d="M580 441.25 L792 441.25 L792 504.25 L782 514.25 L590 514.25 L580 504.25 Z" clip-path="url(#clipPath2)"/>
      <text x="630.1279" xml:space="preserve" y="481.9043" clip-path="url(#clipPath2)" font-family="sans-serif" stroke="none">Конец цикла по q</text>
    </g>
    <g text-rendering="geometricPrecision" stroke-miterlimit="1.45" shape-rendering="geometricPrecision" transform="matrix(1,0,0,1,-565,-130)" stroke-linecap="butt">
      <rect fill="none" x="580" width="212" height="76" y="787.5" clip-path="url(#clipPath2)"/>
      <path fill="none" d="M590 787.5 L590 863.5 M782 787.5 L782 863.5 M590 787.5 Z" clip-path="url(#clipPath2)"/>
      <text x="595.3672" xml:space="preserve" y="822.6699" clip-path="url(#clipPath2)" font-family="sans-serif" stroke="none">Составление файла-словаря</text>
      <text x="607.2119" xml:space="preserve" y="836.6387" clip-path="url(#clipPath2)" font-family="sans-serif" stroke="none">с N-граммами в 2 потока</text>
    </g>
    <g text-rendering="geometricPrecision" stroke-miterlimit="1.45" shape-rendering="geometricPrecision" transform="matrix(1,0,0,1,-565,-130)" stroke-linecap="butt">
      <path fill="none" d="M580 612.25 L792 612.25 L792 688.25 L580 688.25 Z" clip-path="url(#clipPath2)"/>
      <text x="624.8545" xml:space="preserve" y="647.4199" clip-path="url(#clipPath2)" font-family="sans-serif" stroke="none">считывание заявки</text>
      <text x="641.0146" xml:space="preserve" y="661.3887" clip-path="url(#clipPath2)" font-family="sans-serif" stroke="none">из очереди q1</text>
    </g>
    <g text-rendering="geometricPrecision" stroke-miterlimit="1.45" shape-rendering="geometricPrecision" transform="matrix(1,0,0,1,-565,-130)" stroke-linecap="butt">
      <rect fill="none" x="580" width="212" height="76" y="525.25" clip-path="url(#clipPath2)"/>
      <path fill="none" d="M590 525.25 L590 601.25 M782 525.25 L782 601.25 M590 525.25 Z" clip-path="url(#clipPath2)"/>
      <text x="597.1426" xml:space="preserve" y="553.4355" clip-path="url(#clipPath2)" font-family="sans-serif" stroke="none">Обеспечение монопольного</text>
      <text x="603.1279" xml:space="preserve" y="567.4043" clip-path="url(#clipPath2)" font-family="sans-serif" stroke="none">доступа к очереди заявок</text>
      <text x="593.0469" xml:space="preserve" y="581.373" clip-path="url(#clipPath2)" font-family="sans-serif" stroke="none">q1 с помощью мьютекса mq1</text>
    </g>
    <g text-rendering="geometricPrecision" stroke-miterlimit="1.45" shape-rendering="geometricPrecision" transform="matrix(1,0,0,1,-565,-130)" stroke-linecap="butt">
      <rect fill="none" x="580" width="212" height="76" y="699.25" clip-path="url(#clipPath2)"/>
      <path fill="none" d="M590 699.25 L590 775.25 M782 699.25 L782 775.25 M590 699.25 Z" clip-path="url(#clipPath2)"/>
      <text x="636.7344" xml:space="preserve" y="734.4199" clip-path="url(#clipPath2)" font-family="sans-serif" stroke="none">Освобождение </text>
      <text x="639.7227" xml:space="preserve" y="748.3887" clip-path="url(#clipPath2)" font-family="sans-serif" stroke="none">мьютекса mq1</text>
    </g>
    <g text-rendering="geometricPrecision" stroke-miterlimit="1.45" shape-rendering="geometricPrecision" transform="matrix(1,0,0,1,-565,-130)" stroke-linecap="butt">
      <path fill="none" d="M866.5 535.5 L1078.5 535.5 L1078.5 611.5 L866.5 611.5 Z" clip-path="url(#clipPath2)"/>
      <text x="911.2842" xml:space="preserve" y="570.6699" clip-path="url(#clipPath2)" font-family="sans-serif" stroke="none">добавление заявки</text>
      <text x="931.4316" xml:space="preserve" y="584.6387" clip-path="url(#clipPath2)" font-family="sans-serif" stroke="none">в очередь q2</text>
    </g>
    <g text-rendering="geometricPrecision" stroke-miterlimit="1.45" shape-rendering="geometricPrecision" transform="matrix(1,0,0,1,-565,-130)" stroke-linecap="butt">
      <rect fill="none" x="866.5" width="212" height="76" y="451.5" clip-path="url(#clipPath2)"/>
      <path fill="none" d="M876.5 451.5 L876.5 527.5 M1068.5 451.5 L1068.5 527.5 M876.5 451.5 Z" clip-path="url(#clipPath2)"/>
      <text x="883.6426" xml:space="preserve" y="479.6855" clip-path="url(#clipPath2)" font-family="sans-serif" stroke="none">Обеспечение монопольного</text>
      <text x="889.6279" xml:space="preserve" y="493.6543" clip-path="url(#clipPath2)" font-family="sans-serif" stroke="none">доступа к очереди заявок</text>
      <text x="879.5469" xml:space="preserve" y="507.623" clip-path="url(#clipPath2)" font-family="sans-serif" stroke="none">q2 с помощью мьютекса mq2</text>
    </g>
    <g text-rendering="geometricPrecision" stroke-miterlimit="1.45" shape-rendering="geometricPrecision" transform="matrix(1,0,0,1,-565,-130)" stroke-linecap="butt">
      <rect fill="none" x="866.5" width="212" height="76" y="619.5" clip-path="url(#clipPath2)"/>
      <path fill="none" d="M876.5 619.5 L876.5 695.5 M1068.5 619.5 L1068.5 695.5 M876.5 619.5 Z" clip-path="url(#clipPath2)"/>
      <text x="923.2344" xml:space="preserve" y="654.6699" clip-path="url(#clipPath2)" font-family="sans-serif" stroke="none">Освобождение </text>
      <text x="926.2227" xml:space="preserve" y="668.6387" clip-path="url(#clipPath2)" font-family="sans-serif" stroke="none">мьютекса mq2</text>
    </g>
    <g text-rendering="geometricPrecision" stroke-miterlimit="1.45" shape-rendering="geometricPrecision" transform="matrix(1,0,0,1,-565,-130)" stroke-linecap="butt">
      <circle fill="none" r="38" clip-path="url(#clipPath2)" cx="686" cy="913.75"/>
      <text x="681.8955" xml:space="preserve" y="917.9043" clip-path="url(#clipPath2)" font-family="sans-serif" stroke="none">A</text>
    </g>
    <g text-rendering="geometricPrecision" stroke-miterlimit="1.45" shape-rendering="geometricPrecision" transform="matrix(1,0,0,1,-565,-130)" stroke-linecap="butt">
      <circle fill="none" r="38" clip-path="url(#clipPath2)" cx="972.5" cy="405.5"/>
      <text x="968.3955" xml:space="preserve" y="409.6543" clip-path="url(#clipPath2)" font-family="sans-serif" stroke="none">A</text>
    </g>
    <g text-rendering="geometricPrecision" stroke-miterlimit="1.45" stroke-dasharray="6,2" shape-rendering="geometricPrecision" transform="matrix(1,0,0,1,-565,-130)" stroke-linecap="butt">
      <path fill="none" d="M849.0098 218.25 L791.9803 218.25" clip-path="url(#clipPath2)"/>
    </g>
    <g text-rendering="geometricPrecision" stroke-miterlimit="1.45" shape-rendering="geometricPrecision" transform="matrix(1,0,0,1,-565,-130)" stroke-linecap="butt">
      <path fill="none" d="M686 256.27 L686 267.2235" clip-path="url(#clipPath2)"/>
      <path fill="none" d="M972.5 777.9629 L972.5 787.4796" clip-path="url(#clipPath2)"/>
      <path fill="none" d="M686 343.27 L686 354.2235" clip-path="url(#clipPath2)"/>
      <path fill="none" d="M686 430.2825 L686 441.2686" clip-path="url(#clipPath2)"/>
      <path fill="none" d="M686 514.2795 L686 525.231" clip-path="url(#clipPath2)"/>
      <path fill="none" d="M686 601.27 L686 612.2236" clip-path="url(#clipPath2)"/>
      <path fill="none" d="M686 688.27 L686 699.2236" clip-path="url(#clipPath2)"/>
      <path fill="none" d="M686 775.213 L686 787.5392" clip-path="url(#clipPath2)"/>
      <path fill="none" d="M972.5 527.5215 L972.5 535.4689" clip-path="url(#clipPath2)"/>
      <path fill="none" d="M972.5 611.5215 L972.5 619.4689" clip-path="url(#clipPath2)"/>
      <path fill="none" d="M686 863.463 L686 875.7892" clip-path="url(#clipPath2)"/>
      <path fill="none" d="M972.5 443.5215 L972.5 451.4689" clip-path="url(#clipPath2)"/>
    </g>
  </g>
</svg>
