<?xml version="1.0" encoding="UTF-8"?><svg xmlns="http://www.w3.org/2000/svg" xmlns:xlink="http://www.w3.org/1999/xlink" fill-opacity="1" color-rendering="auto" color-interpolation="auto" text-rendering="auto" stroke="black" stroke-linecap="square" width="546" stroke-miterlimit="10" shape-rendering="auto" stroke-opacity="1" fill="black" stroke-dasharray="none" font-weight="normal" stroke-width="1" height="549" font-family="'Dialog'" font-style="normal" stroke-linejoin="miter" font-size="12px" stroke-dashoffset="0" image-rendering="auto">
  <!--Generated by ySVG 2.6-->
  <defs id="genericDefs"/>
  <g>
    <defs id="defs1">
      <clipPath clipPathUnits="userSpaceOnUse" id="clipPath1">
        <path d="M0 0 L546 0 L546 549 L0 549 L0 0 Z"/>
      </clipPath>
      <clipPath clipPathUnits="userSpaceOnUse" id="clipPath2">
        <path d="M540 126 L1086 126 L1086 675 L540 675 L540 126 Z"/>
      </clipPath>
    </defs>
    <g fill="white" text-rendering="geometricPrecision" shape-rendering="geometricPrecision" transform="translate(-540,-126)" stroke="white">
      <rect x="540" width="546" height="549" y="126" clip-path="url(#clipPath2)" stroke="none"/>
    </g>
    <g text-rendering="geometricPrecision" stroke-miterlimit="1.45" shape-rendering="geometricPrecision" transform="matrix(1,0,0,1,-540,-126)" stroke-linecap="butt">
      <rect x="555" y="154.5" clip-path="url(#clipPath2)" fill="none" width="212" rx="38" ry="38" height="76"/>
      <text x="638.084" xml:space="preserve" y="196.6543" clip-path="url(#clipPath2)" font-family="sans-serif" stroke="none">Начало</text>
    </g>
    <g text-rendering="geometricPrecision" stroke-miterlimit="1.45" shape-rendering="geometricPrecision" transform="matrix(1,0,0,1,-540,-126)" stroke-linecap="butt">
      <path fill="none" d="M854.875 141.75 L824 141.75 L824 243.25 L854.875 243.25" clip-path="url(#clipPath2)"/>
      <text x="834.9238" xml:space="preserve" y="161.7324" clip-path="url(#clipPath2)" font-family="sans-serif" stroke="none">Алгоритм работы 1-го потока</text>
      <text x="834.9238" xml:space="preserve" y="175.7012" clip-path="url(#clipPath2)" font-family="sans-serif" stroke="none">Вход:</text>
      <text x="834.9238" xml:space="preserve" y="189.6699" clip-path="url(#clipPath2)" font-family="sans-serif" stroke="none">numAppl - количество заявок</text>
      <text x="834.9238" xml:space="preserve" y="203.6387" clip-path="url(#clipPath2)" font-family="sans-serif" stroke="none">q1 - очередь между потоками 1 и 2</text>
      <text x="834.9238" xml:space="preserve" y="217.6074" clip-path="url(#clipPath2)" font-family="sans-serif" stroke="none">Выход:</text>
      <text x="834.9238" xml:space="preserve" y="231.5762" clip-path="url(#clipPath2)" font-family="sans-serif" stroke="none">Текст из файла</text>
    </g>
    <g text-rendering="geometricPrecision" stroke-miterlimit="1.45" shape-rendering="geometricPrecision" transform="matrix(1,0,0,1,-540,-126)" stroke-linecap="butt">
      <path fill="none" d="M565 241.5 L757 241.5 L767 251.5 L767 317.5 L555 317.5 L555 251.5 Z" clip-path="url(#clipPath2)"/>
      <text x="568.8408" xml:space="preserve" y="283.6543" clip-path="url(#clipPath2)" font-family="sans-serif" stroke="none">Цикл по i от 0 до numAppl - 1</text>
    </g>
    <g text-rendering="geometricPrecision" stroke-miterlimit="1.45" shape-rendering="geometricPrecision" transform="matrix(1,0,0,1,-540,-126)" stroke-linecap="butt">
      <path fill="none" d="M555 328.5 L767 328.5 L767 404.5 L555 404.5 Z" clip-path="url(#clipPath2)"/>
      <text x="583.876" xml:space="preserve" y="370.6543" clip-path="url(#clipPath2)" font-family="sans-serif" stroke="none">Чтение текста из файла</text>
    </g>
    <g text-rendering="geometricPrecision" stroke-miterlimit="1.45" shape-rendering="geometricPrecision" transform="matrix(1,0,0,1,-540,-126)" stroke-linecap="butt">
      <rect x="555" y="583.5" clip-path="url(#clipPath2)" fill="none" width="212" rx="38" ry="38" height="76"/>
      <text x="641.3711" xml:space="preserve" y="625.6543" clip-path="url(#clipPath2)" font-family="sans-serif" stroke="none">Конец</text>
    </g>
    <g text-rendering="geometricPrecision" stroke-miterlimit="1.45" shape-rendering="geometricPrecision" transform="matrix(1,0,0,1,-540,-126)" stroke-linecap="butt">
      <path fill="none" d="M555 415.5 L767 415.5 L767 491.5 L555 491.5 Z" clip-path="url(#clipPath2)"/>
      <text x="572.1426" xml:space="preserve" y="436.7012" clip-path="url(#clipPath2)" font-family="sans-serif" stroke="none">Обеспечение монопольного</text>
      <text x="599.4355" xml:space="preserve" y="450.6699" clip-path="url(#clipPath2)" font-family="sans-serif" stroke="none">доступа к очереди </text>
      <text x="582.7656" xml:space="preserve" y="464.6387" clip-path="url(#clipPath2)" font-family="sans-serif" stroke="none">заявок q1 и добавление </text>
      <text x="606.0215" xml:space="preserve" y="478.6074" clip-path="url(#clipPath2)" font-family="sans-serif" stroke="none">заявки в очередь</text>
    </g>
    <g text-rendering="geometricPrecision" stroke-miterlimit="1.45" shape-rendering="geometricPrecision" transform="matrix(1,0,0,1,-540,-126)" stroke-linecap="butt">
      <path fill="none" d="M555 501 L767 501 L767 564 L757 574 L565 574 L555 564 Z" clip-path="url(#clipPath2)"/>
      <text x="607.2695" xml:space="preserve" y="541.6543" clip-path="url(#clipPath2)" font-family="sans-serif" stroke="none">Конец цикла по i</text>
    </g>
    <g text-rendering="geometricPrecision" stroke-miterlimit="1.45" shape-rendering="geometricPrecision" transform="matrix(1,0,0,1,-540,-126)" stroke-linecap="butt">
      <path fill="none" d="M824.0098 192.5 L766.9803 192.5" clip-path="url(#clipPath2)"/>
    </g>
    <g text-rendering="geometricPrecision" stroke-miterlimit="1.45" shape-rendering="geometricPrecision" transform="matrix(1,0,0,1,-540,-126)" stroke-linecap="butt">
      <path fill="none" d="M661 230.52 L661 241.4736" clip-path="url(#clipPath2)"/>
      <path fill="none" d="M661 317.52 L661 328.4735" clip-path="url(#clipPath2)"/>
      <path fill="none" d="M661 404.52 L661 415.4735" clip-path="url(#clipPath2)"/>
      <path fill="none" d="M661 491.5215 L661 500.9956" clip-path="url(#clipPath2)"/>
      <path fill="none" d="M661 573.9629 L661 583.4796" clip-path="url(#clipPath2)"/>
    </g>
  </g>
</svg>
