<?xml version="1.0" encoding="UTF-8"?><svg xmlns="http://www.w3.org/2000/svg" xmlns:xlink="http://www.w3.org/1999/xlink" fill-opacity="1" color-rendering="auto" color-interpolation="auto" text-rendering="auto" stroke="black" stroke-linecap="square" width="546" stroke-miterlimit="10" shape-rendering="auto" stroke-opacity="1" fill="black" stroke-dasharray="none" font-weight="normal" stroke-width="1" height="724" font-family="'Dialog'" font-style="normal" stroke-linejoin="miter" font-size="12px" stroke-dashoffset="0" image-rendering="auto">
  <!--Generated by ySVG 2.6-->
  <defs id="genericDefs"/>
  <g>
    <defs id="defs1">
      <clipPath clipPathUnits="userSpaceOnUse" id="clipPath1">
        <path d="M0 0 L546 0 L546 724 L0 724 L0 0 Z"/>
      </clipPath>
      <clipPath clipPathUnits="userSpaceOnUse" id="clipPath2">
        <path d="M590 174 L1136 174 L1136 898 L590 898 L590 174 Z"/>
      </clipPath>
    </defs>
    <g fill="white" text-rendering="geometricPrecision" shape-rendering="geometricPrecision" transform="translate(-590,-174)" stroke="white">
      <rect x="590" width="546" height="724" y="174" clip-path="url(#clipPath2)" stroke="none"/>
    </g>
    <g text-rendering="geometricPrecision" stroke-miterlimit="1.45" shape-rendering="geometricPrecision" transform="matrix(1,0,0,1,-590,-174)" stroke-linecap="butt">
      <rect x="605" y="205.25" clip-path="url(#clipPath2)" fill="none" width="212" rx="38" ry="38" height="76"/>
      <text x="688.084" xml:space="preserve" y="247.4043" clip-path="url(#clipPath2)" font-family="sans-serif" stroke="none">Начало</text>
    </g>
    <g text-rendering="geometricPrecision" stroke-miterlimit="1.45" shape-rendering="geometricPrecision" transform="matrix(1,0,0,1,-590,-174)" stroke-linecap="butt">
      <path fill="none" d="M904.875 189 L874 189 L874 297.5 L904.875 297.5" clip-path="url(#clipPath2)"/>
      <text x="884.9238" xml:space="preserve" y="212.4824" clip-path="url(#clipPath2)" font-family="sans-serif" stroke="none">Алгоритм работы 3-го потока</text>
      <text x="884.9238" xml:space="preserve" y="226.4512" clip-path="url(#clipPath2)" font-family="sans-serif" stroke="none">Вход:</text>
      <text x="884.9238" xml:space="preserve" y="240.4199" clip-path="url(#clipPath2)" font-family="sans-serif" stroke="none">numAppl - количество заявок</text>
      <text x="884.9238" xml:space="preserve" y="254.3887" clip-path="url(#clipPath2)" font-family="sans-serif" stroke="none">q2 - очередь между потоками 2 и 3</text>
      <text x="884.9238" xml:space="preserve" y="268.3574" clip-path="url(#clipPath2)" font-family="sans-serif" stroke="none">Выход:</text>
      <text x="884.9238" xml:space="preserve" y="282.3262" clip-path="url(#clipPath2)" font-family="sans-serif" stroke="none">Лог-файл </text>
    </g>
    <g text-rendering="geometricPrecision" stroke-miterlimit="1.45" shape-rendering="geometricPrecision" transform="matrix(1,0,0,1,-590,-174)" stroke-linecap="butt">
      <path fill="none" d="M615 292.25 L807 292.25 L817 302.25 L817 368.25 L605 368.25 L605 302.25 Z" clip-path="url(#clipPath2)"/>
      <text x="618.8408" xml:space="preserve" y="334.4043" clip-path="url(#clipPath2)" font-family="sans-serif" stroke="none">Цикл по i от 0 до numAppl - 1</text>
    </g>
    <g text-rendering="geometricPrecision" stroke-miterlimit="1.45" shape-rendering="geometricPrecision" transform="matrix(1,0,0,1,-590,-174)" stroke-linecap="butt">
      <rect x="605" y="806.75" clip-path="url(#clipPath2)" fill="none" width="212" rx="38" ry="38" height="76"/>
      <text x="691.3711" xml:space="preserve" y="848.9043" clip-path="url(#clipPath2)" font-family="sans-serif" stroke="none">Конец</text>
    </g>
    <g text-rendering="geometricPrecision" stroke-miterlimit="1.45" shape-rendering="geometricPrecision" transform="matrix(1,0,0,1,-590,-174)" stroke-linecap="butt">
      <path fill="none" d="M605 724.25 L817 724.25 L817 787.25 L807 797.25 L615 797.25 L605 787.25 Z" clip-path="url(#clipPath2)"/>
      <text x="657.2695" xml:space="preserve" y="764.9043" clip-path="url(#clipPath2)" font-family="sans-serif" stroke="none">Конец цикла по i</text>
    </g>
    <g text-rendering="geometricPrecision" stroke-miterlimit="1.45" shape-rendering="geometricPrecision" transform="matrix(1,0,0,1,-590,-174)" stroke-linecap="butt">
      <path fill="none" d="M615 379.25 L807 379.25 L817 389.25 L817 455.25 L605 455.25 L605 389.25 Z" clip-path="url(#clipPath2)"/>
      <text x="633.0586" xml:space="preserve" y="414.4199" clip-path="url(#clipPath2)" font-family="sans-serif" stroke="none">Цикл по q пока очередь </text>
      <text x="674.001" xml:space="preserve" y="428.3887" clip-path="url(#clipPath2)" font-family="sans-serif" stroke="none">q2 не пуста</text>
    </g>
    <g text-rendering="geometricPrecision" stroke-miterlimit="1.45" shape-rendering="geometricPrecision" transform="matrix(1,0,0,1,-590,-174)" stroke-linecap="butt">
      <path fill="none" d="M605 466.25 L817 466.25 L817 529.25 L807 539.25 L615 539.25 L605 529.25 Z" clip-path="url(#clipPath2)"/>
      <text x="655.1279" xml:space="preserve" y="506.9043" clip-path="url(#clipPath2)" font-family="sans-serif" stroke="none">Конец цикла по q</text>
    </g>
    <g text-rendering="geometricPrecision" stroke-miterlimit="1.45" shape-rendering="geometricPrecision" transform="matrix(1,0,0,1,-590,-174)" stroke-linecap="butt">
      <path fill="none" d="M605 550.25 L817 550.25 L817 626.25 L605 626.25 Z" clip-path="url(#clipPath2)"/>
      <text x="622.1426" xml:space="preserve" y="571.4512" clip-path="url(#clipPath2)" font-family="sans-serif" stroke="none">Обеспечение монопольного</text>
      <text x="649.4355" xml:space="preserve" y="585.4199" clip-path="url(#clipPath2)" font-family="sans-serif" stroke="none">доступа к очереди </text>
      <text x="634.7432" xml:space="preserve" y="599.3887" clip-path="url(#clipPath2)" font-family="sans-serif" stroke="none">заявок q2 и считывание</text>
      <text x="689.4639" xml:space="preserve" y="613.3574" clip-path="url(#clipPath2)" font-family="sans-serif" stroke="none">заявки</text>
    </g>
    <g text-rendering="geometricPrecision" stroke-miterlimit="1.45" shape-rendering="geometricPrecision" transform="matrix(1,0,0,1,-590,-174)" stroke-linecap="butt">
      <path fill="none" d="M605 637.25 L817 637.25 L817 713.25 L605 713.25 Z" clip-path="url(#clipPath2)"/>
      <text x="622.2246" xml:space="preserve" y="679.4043" clip-path="url(#clipPath2)" font-family="sans-serif" stroke="none">Логирование заявки в файл</text>
    </g>
    <g text-rendering="geometricPrecision" stroke-miterlimit="1.45" shape-rendering="geometricPrecision" transform="matrix(1,0,0,1,-590,-174)" stroke-linecap="butt">
      <path fill="none" d="M874.0098 243.25 L816.9803 243.25" clip-path="url(#clipPath2)"/>
    </g>
    <g text-rendering="geometricPrecision" stroke-miterlimit="1.45" shape-rendering="geometricPrecision" transform="matrix(1,0,0,1,-590,-174)" stroke-linecap="butt">
      <path fill="none" d="M711 281.27 L711 292.2235" clip-path="url(#clipPath2)"/>
      <path fill="none" d="M711 797.2129 L711 806.7296" clip-path="url(#clipPath2)"/>
      <path fill="none" d="M711 368.27 L711 379.2235" clip-path="url(#clipPath2)"/>
      <path fill="none" d="M711 455.2825 L711 466.2686" clip-path="url(#clipPath2)"/>
      <path fill="none" d="M711 539.2795 L711 550.231" clip-path="url(#clipPath2)"/>
      <path fill="none" d="M711 626.27 L711 637.2236" clip-path="url(#clipPath2)"/>
      <path fill="none" d="M711 713.2825 L711 724.2686" clip-path="url(#clipPath2)"/>
    </g>
  </g>
</svg>
