<?xml version="1.0" encoding="UTF-8"?><svg xmlns="http://www.w3.org/2000/svg" xmlns:xlink="http://www.w3.org/1999/xlink" fill-opacity="1" color-rendering="auto" color-interpolation="auto" text-rendering="auto" stroke="black" stroke-linecap="square" width="530" stroke-miterlimit="10" shape-rendering="auto" stroke-opacity="1" fill="black" stroke-dasharray="none" font-weight="normal" stroke-width="1" height="741" font-family="'Dialog'" font-style="normal" stroke-linejoin="miter" font-size="12px" stroke-dashoffset="0" image-rendering="auto">
  <!--Generated by ySVG 2.6-->
  <defs id="genericDefs"/>
  <g>
    <defs id="defs1">
      <clipPath clipPathUnits="userSpaceOnUse" id="clipPath1">
        <path d="M0 0 L530 0 L530 741 L0 741 L0 0 Z"/>
      </clipPath>
      <clipPath clipPathUnits="userSpaceOnUse" id="clipPath2">
        <path d="M515 88 L1045 88 L1045 829 L515 829 L515 88 Z"/>
      </clipPath>
    </defs>
    <g fill="white" text-rendering="geometricPrecision" shape-rendering="geometricPrecision" transform="translate(-515,-88)" stroke="white">
      <rect x="515" width="530" height="741" y="88" clip-path="url(#clipPath2)" stroke="none"/>
    </g>
    <g text-rendering="geometricPrecision" stroke-miterlimit="1.45" shape-rendering="geometricPrecision" transform="matrix(1,0,0,1,-515,-88)" stroke-linecap="butt">
      <rect x="530" y="129" clip-path="url(#clipPath2)" fill="none" width="212" rx="38" ry="38" height="76"/>
      <text x="613.084" xml:space="preserve" y="171.1543" clip-path="url(#clipPath2)" font-family="sans-serif" stroke="none">Начало</text>
    </g>
    <g text-rendering="geometricPrecision" stroke-miterlimit="1.45" shape-rendering="geometricPrecision" transform="matrix(1,0,0,1,-515,-88)" stroke-linecap="butt">
      <path fill="none" d="M827.875 103.5 L799 103.5 L799 230.5 L827.875 230.5" clip-path="url(#clipPath2)"/>
      <text x="809.0049" xml:space="preserve" y="122.2637" clip-path="url(#clipPath2)" font-family="sans-serif" stroke="none">Последовательная обработка</text>
      <text x="809.0049" xml:space="preserve" y="136.2324" clip-path="url(#clipPath2)" font-family="sans-serif" stroke="none">Вход:</text>
      <text x="809.0049" xml:space="preserve" y="150.2012" clip-path="url(#clipPath2)" font-family="sans-serif" stroke="none">numAppl - количество заявок</text>
      <text x="809.0049" xml:space="preserve" y="164.1699" clip-path="url(#clipPath2)" font-family="sans-serif" stroke="none">numLines - число строк в файле</text>
      <text x="809.0049" xml:space="preserve" y="178.1387" clip-path="url(#clipPath2)" font-family="sans-serif" stroke="none">strLenght - длина строки в файле</text>
      <text x="809.0049" xml:space="preserve" y="192.1074" clip-path="url(#clipPath2)" font-family="sans-serif" stroke="none">число N</text>
      <text x="809.0049" xml:space="preserve" y="206.0762" clip-path="url(#clipPath2)" font-family="sans-serif" stroke="none">Выход:</text>
      <text x="809.0049" xml:space="preserve" y="220.0449" clip-path="url(#clipPath2)" font-family="sans-serif" stroke="none">Лог программы</text>
    </g>
    <g text-rendering="geometricPrecision" stroke-miterlimit="1.45" shape-rendering="geometricPrecision" transform="matrix(1,0,0,1,-515,-88)" stroke-linecap="butt">
      <path fill="none" d="M540 216 L732 216 L742 226 L742 292 L530 292 L530 226 Z" clip-path="url(#clipPath2)"/>
      <text x="543.8408" xml:space="preserve" y="258.1543" clip-path="url(#clipPath2)" font-family="sans-serif" stroke="none">Цикл по i от 0 до numAppl - 1</text>
    </g>
    <g text-rendering="geometricPrecision" stroke-miterlimit="1.45" shape-rendering="geometricPrecision" transform="matrix(1,0,0,1,-515,-88)" stroke-linecap="butt">
      <rect fill="none" x="530" width="212" height="76" y="303" clip-path="url(#clipPath2)"/>
      <path fill="none" d="M540 303 L540 379 M732 303 L732 379 M540 303 Z" clip-path="url(#clipPath2)"/>
      <text x="546.917" xml:space="preserve" y="324.2012" clip-path="url(#clipPath2)" font-family="sans-serif" stroke="none">Генерация файла с текстом</text>
      <text x="548.1592" xml:space="preserve" y="338.1699" clip-path="url(#clipPath2)" font-family="sans-serif" stroke="none">на русском языке с числом </text>
      <text x="557.9971" xml:space="preserve" y="352.1387" clip-path="url(#clipPath2)" font-family="sans-serif" stroke="none">строк numLines и длине </text>
      <text x="583.5498" xml:space="preserve" y="366.1074" clip-path="url(#clipPath2)" font-family="sans-serif" stroke="none">строки strLenght</text>
    </g>
    <g text-rendering="geometricPrecision" stroke-miterlimit="1.45" shape-rendering="geometricPrecision" transform="matrix(1,0,0,1,-515,-88)" stroke-linecap="butt">
      <path fill="none" d="M530 390 L742 390 L742 466 L530 466 Z" clip-path="url(#clipPath2)"/>
      <text x="558.876" xml:space="preserve" y="432.1543" clip-path="url(#clipPath2)" font-family="sans-serif" stroke="none">Чтение текста из файла</text>
    </g>
    <g text-rendering="geometricPrecision" stroke-miterlimit="1.45" shape-rendering="geometricPrecision" transform="matrix(1,0,0,1,-515,-88)" stroke-linecap="butt">
      <rect fill="none" x="530" width="212" height="76" y="477" clip-path="url(#clipPath2)"/>
      <path fill="none" d="M540 477 L540 553 M732 477 L732 553 M540 477 Z" clip-path="url(#clipPath2)"/>
      <text x="545.3672" xml:space="preserve" y="512.1699" clip-path="url(#clipPath2)" font-family="sans-serif" stroke="none">Составление файла-словаря</text>
      <text x="557.2119" xml:space="preserve" y="526.1387" clip-path="url(#clipPath2)" font-family="sans-serif" stroke="none">с N-граммами в 2 потока</text>
    </g>
    <g text-rendering="geometricPrecision" stroke-miterlimit="1.45" shape-rendering="geometricPrecision" transform="matrix(1,0,0,1,-515,-88)" stroke-linecap="butt">
      <path fill="none" d="M530 564 L742 564 L742 640 L530 640 Z" clip-path="url(#clipPath2)"/>
      <text x="547.2246" xml:space="preserve" y="606.1543" clip-path="url(#clipPath2)" font-family="sans-serif" stroke="none">Логирование заявки в файл</text>
    </g>
    <g text-rendering="geometricPrecision" stroke-miterlimit="1.45" shape-rendering="geometricPrecision" transform="matrix(1,0,0,1,-515,-88)" stroke-linecap="butt">
      <rect x="530" y="738" clip-path="url(#clipPath2)" fill="none" width="212" rx="38" ry="38" height="76"/>
      <text x="616.3711" xml:space="preserve" y="780.1543" clip-path="url(#clipPath2)" font-family="sans-serif" stroke="none">Конец</text>
    </g>
    <g text-rendering="geometricPrecision" stroke-miterlimit="1.45" shape-rendering="geometricPrecision" transform="matrix(1,0,0,1,-515,-88)" stroke-linecap="butt">
      <path fill="none" d="M530 651 L742 651 L742 727 L530 727 Z" clip-path="url(#clipPath2)"/>
      <text x="555.5859" xml:space="preserve" y="686.1699" clip-path="url(#clipPath2)" font-family="sans-serif" stroke="none">Добавление заявки в пул</text>
      <text x="567.252" xml:space="preserve" y="700.1387" clip-path="url(#clipPath2)" font-family="sans-serif" stroke="none">обработанных заявок</text>
    </g>
    <g text-rendering="geometricPrecision" stroke-miterlimit="1.45" shape-rendering="geometricPrecision" transform="matrix(1,0,0,1,-515,-88)" stroke-linecap="butt">
      <path fill="none" d="M799.0136 167 L741.9827 167" clip-path="url(#clipPath2)"/>
    </g>
    <g text-rendering="geometricPrecision" stroke-miterlimit="1.45" shape-rendering="geometricPrecision" transform="matrix(1,0,0,1,-515,-88)" stroke-linecap="butt">
      <path fill="none" d="M636 205.02 L636 215.9736" clip-path="url(#clipPath2)"/>
      <path fill="none" d="M636 292.02 L636 302.9735" clip-path="url(#clipPath2)"/>
      <path fill="none" d="M636 379.02 L636 389.9735" clip-path="url(#clipPath2)"/>
      <path fill="none" d="M636 466.02 L636 476.9735" clip-path="url(#clipPath2)"/>
      <path fill="none" d="M636 553.02 L636 563.9736" clip-path="url(#clipPath2)"/>
      <path fill="none" d="M636 640.02 L636 650.9736" clip-path="url(#clipPath2)"/>
      <path fill="none" d="M636 727.02 L636 737.9736" clip-path="url(#clipPath2)"/>
    </g>
  </g>
</svg>
