<?xml version="1.0" encoding="UTF-8"?><svg xmlns="http://www.w3.org/2000/svg" xmlns:xlink="http://www.w3.org/1999/xlink" fill-opacity="1" color-rendering="auto" color-interpolation="auto" text-rendering="auto" stroke="black" stroke-linecap="square" width="612" stroke-miterlimit="10" shape-rendering="auto" stroke-opacity="1" fill="black" stroke-dasharray="none" font-weight="normal" stroke-width="1" height="340" font-family="'Dialog'" font-style="normal" stroke-linejoin="miter" font-size="12px" stroke-dashoffset="0" image-rendering="auto">
  <!--Generated by ySVG 2.6-->
  <defs id="genericDefs"/>
  <g>
    <defs id="defs1">
      <clipPath clipPathUnits="userSpaceOnUse" id="clipPath1">
        <path d="M0 0 L612 0 L612 340 L0 340 L0 0 Z"/>
      </clipPath>
      <clipPath clipPathUnits="userSpaceOnUse" id="clipPath2">
        <path d="M-106 -51 L506 -51 L506 289 L-106 289 L-106 -51 Z"/>
      </clipPath>
    </defs>
    <g fill="white" text-rendering="geometricPrecision" shape-rendering="geometricPrecision" transform="translate(106,51)" stroke="white">
      <rect x="-106" width="612" height="340" y="-51" clip-path="url(#clipPath2)" stroke="none"/>
    </g>
    <g text-rendering="geometricPrecision" stroke-miterlimit="1.45" shape-rendering="geometricPrecision" transform="matrix(1,0,0,1,106,51)" stroke-linecap="butt">
      <rect fill="none" x="0" width="159" height="30" y="-34.88" clip-path="url(#clipPath2)"/>
      <text x="30.627" xml:space="preserve" y="-22.7101" clip-path="url(#clipPath2)" font-family="sans-serif" stroke="none">Параллельный </text>
      <text x="1.3037" xml:space="preserve" y="-8.7413" clip-path="url(#clipPath2)" font-family="sans-serif" stroke="none">Корпус языка источника</text>
      <rect fill="none" x="273" width="159" height="30" y="-34.88" clip-path="url(#clipPath2)"/>
      <text x="305.5342" xml:space="preserve" y="-22.7101" clip-path="url(#clipPath2)" font-family="sans-serif" stroke="none">Параллельный</text>
      <text x="277.1895" xml:space="preserve" y="-8.7413" clip-path="url(#clipPath2)" font-family="sans-serif" stroke="none">Корпус языка перевода</text>
      <rect fill="none" x="152.72" width="159" height="30" y="58" clip-path="url(#clipPath2)"/>
      <text x="183.8889" xml:space="preserve" y="70.1699" clip-path="url(#clipPath2)" font-family="sans-serif" stroke="none">Выравнивание </text>
      <text x="155.2014" xml:space="preserve" y="84.1387" clip-path="url(#clipPath2)" font-family="sans-serif" stroke="none">параллельных корпусов</text>
      <rect fill="none" x="-90.68" width="289" height="48" y="147" clip-path="url(#clipPath2)"/>
      <text x="-61.5071" xml:space="preserve" y="161.1855" clip-path="url(#clipPath2)" font-family="sans-serif" stroke="none">Поиск максимальных вероятностей </text>
      <text x="-45.6312" xml:space="preserve" y="175.1543" clip-path="url(#clipPath2)" font-family="sans-serif" stroke="none">частей корпуса источника при </text>
      <text x="-83.5794" xml:space="preserve" y="189.123" clip-path="url(#clipPath2)" font-family="sans-serif" stroke="none">имеющейся части корпуса языка перевода</text>
      <rect fill="none" x="273" width="159" height="30" y="156" clip-path="url(#clipPath2)"/>
      <text x="275.6865" xml:space="preserve" y="175.1543" clip-path="url(#clipPath2)" font-family="sans-serif" stroke="none">Создание модели языка</text>
      <rect fill="none" x="187.28" width="89.88" height="30" y="242.64" clip-path="url(#clipPath2)"/>
      <text x="205.1614" xml:space="preserve" y="261.7943" clip-path="url(#clipPath2)" font-family="sans-serif" stroke="none">Перевод</text>
      <rect fill="none" x="-25.68" width="159" height="30" y="242.64" clip-path="url(#clipPath2)"/>
      <text x="3.8718" xml:space="preserve" y="254.8099" clip-path="url(#clipPath2)" font-family="sans-serif" stroke="none">Текст на языке </text>
      <text x="20.7878" xml:space="preserve" y="268.7787" clip-path="url(#clipPath2)" font-family="sans-serif" stroke="none">источника</text>
      <rect fill="none" x="331.12" width="159" height="30" y="242.64" clip-path="url(#clipPath2)"/>
      <text x="336.7919" xml:space="preserve" y="254.8099" clip-path="url(#clipPath2)" font-family="sans-serif" stroke="none">Переведенный на язык</text>
      <text x="360.9618" xml:space="preserve" y="268.7787" clip-path="url(#clipPath2)" font-family="sans-serif" stroke="none">перевода текст</text>
      <path fill="none" d="M104.1641 -4.88 L200.7207 53.843" clip-path="url(#clipPath2)"/>
      <path d="M207.5559 58 L199.9012 47.4926 L199.8663 53.3234 L194.705 56.0365 Z" clip-path="url(#clipPath2)" stroke="none"/>
      <path fill="none" d="M333.0749 -4.88 L257.977 53.1105" clip-path="url(#clipPath2)"/>
      <path d="M251.6451 58 L264.1989 54.6232 L258.7685 52.4993 L258.087 46.7083 Z" clip-path="url(#clipPath2)" stroke="none"/>
      <path fill="none" d="M204.9139 88 L104.5215 143.1483" clip-path="url(#clipPath2)"/>
      <path d="M97.5098 147 L110.4347 145.6047 L105.398 142.6668 L105.62 136.8401 Z" clip-path="url(#clipPath2)" stroke="none"/>
      <path fill="none" d="M352.5 -4.88 L352.5 148" clip-path="url(#clipPath2)"/>
      <path d="M352.5 156 L357.5 144 L352.5 147 L347.5 144 Z" clip-path="url(#clipPath2)" stroke="none"/>
      <path fill="none" d="M103.2383 195 L194.1373 239.1451" clip-path="url(#clipPath2)"/>
      <path d="M201.3336 242.64 L192.7235 232.9001 L193.2378 238.7083 L188.3549 241.8954 Z" clip-path="url(#clipPath2)" stroke="none"/>
      <path fill="none" d="M331.6759 186 L259.5354 237.9642" clip-path="url(#clipPath2)"/>
      <path d="M253.0441 242.64 L265.7034 239.6834 L260.3468 237.3797 L259.8587 231.5692 Z" clip-path="url(#clipPath2)" stroke="none"/>
      <path fill="none" d="M133.32 257.64 L179.28 257.64" clip-path="url(#clipPath2)"/>
      <path d="M187.28 257.64 L175.28 252.64 L178.28 257.64 L175.28 262.64 Z" clip-path="url(#clipPath2)" stroke="none"/>
      <path fill="none" d="M277.16 257.64 L323.12 257.64" clip-path="url(#clipPath2)"/>
      <path d="M331.12 257.64 L319.12 252.64 L322.12 257.64 L319.12 262.64 Z" clip-path="url(#clipPath2)" stroke="none"/>
    </g>
  </g>
</svg>
