<?xml version="1.0" encoding="UTF-8"?><svg xmlns="http://www.w3.org/2000/svg" xmlns:xlink="http://www.w3.org/1999/xlink" fill-opacity="1" color-rendering="auto" color-interpolation="auto" text-rendering="auto" stroke="black" stroke-linecap="square" width="850" stroke-miterlimit="10" shape-rendering="auto" stroke-opacity="1" fill="black" stroke-dasharray="none" font-weight="normal" stroke-width="1" height="1068" font-family="'Dialog'" font-style="normal" stroke-linejoin="miter" font-size="12px" stroke-dashoffset="0" image-rendering="auto">
  <!--Generated by ySVG 2.6-->
  <defs id="genericDefs"/>
  <g>
    <defs id="defs1">
      <clipPath clipPathUnits="userSpaceOnUse" id="clipPath1">
        <path d="M0 0 L850 0 L850 1068 L0 1068 L0 0 Z"/>
      </clipPath>
      <clipPath clipPathUnits="userSpaceOnUse" id="clipPath2">
        <path d="M239 136 L1089 136 L1089 1204 L239 1204 L239 136 Z"/>
      </clipPath>
    </defs>
    <g fill="white" text-rendering="geometricPrecision" shape-rendering="geometricPrecision" transform="translate(-239,-136)" stroke="white">
      <rect x="239" width="850" height="1068" y="136" clip-path="url(#clipPath2)" stroke="none"/>
    </g>
    <g text-rendering="geometricPrecision" stroke-miterlimit="1.45" shape-rendering="geometricPrecision" transform="matrix(1,0,0,1,-239,-136)" stroke-linecap="butt">
      <rect x="441" y="196" clip-path="url(#clipPath2)" fill="none" width="213" rx="37" ry="37" height="74"/>
      <text x="524.584" xml:space="preserve" y="237.1543" clip-path="url(#clipPath2)" font-family="sans-serif" stroke="none">Начало</text>
    </g>
    <g text-rendering="geometricPrecision" stroke-miterlimit="1.45" shape-rendering="geometricPrecision" transform="matrix(1,0,0,1,-239,-136)" stroke-linecap="butt">
      <path fill="none" d="M789.625 151.5 L749 151.5 L749 306.5 L789.625 306.5" clip-path="url(#clipPath2)"/>
      <text x="764.7432" xml:space="preserve" y="177.2793" clip-path="url(#clipPath2)" font-family="sans-serif" stroke="none">merge - функция слияния двух </text>
      <text x="764.7432" xml:space="preserve" y="191.248" clip-path="url(#clipPath2)" font-family="sans-serif" stroke="none">подмассивов в один</text>
      <text x="764.7432" xml:space="preserve" y="205.2168" clip-path="url(#clipPath2)" font-family="sans-serif" stroke="none">Вход:</text>
      <text x="764.7432" xml:space="preserve" y="219.1855" clip-path="url(#clipPath2)" font-family="sans-serif" stroke="none">Массив A размера N</text>
      <text x="764.7432" xml:space="preserve" y="233.1543" clip-path="url(#clipPath2)" font-family="sans-serif" stroke="none">low - индекс первого элемента массива А</text>
      <text x="764.7432" xml:space="preserve" y="247.123" clip-path="url(#clipPath2)" font-family="sans-serif" stroke="none">high - индекс последнего элемента массива А</text>
      <text x="764.7432" xml:space="preserve" y="261.0918" clip-path="url(#clipPath2)" font-family="sans-serif" stroke="none">mid -  индекс срединного элемента массива А</text>
      <text x="764.7432" xml:space="preserve" y="275.0605" clip-path="url(#clipPath2)" font-family="sans-serif" stroke="none">Выход:</text>
      <text x="764.7432" xml:space="preserve" y="289.0293" clip-path="url(#clipPath2)" font-family="sans-serif" stroke="none">Объединенный массив А</text>
    </g>
    <g text-rendering="geometricPrecision" stroke-miterlimit="1.45" shape-rendering="geometricPrecision" transform="matrix(1,0,0,1,-239,-136)" stroke-linecap="butt">
      <path fill="none" d="M445.5 476 L649.5 476 L649.5 567 L445.5 567 Z" clip-path="url(#clipPath2)"/>
      <text x="483.8525" xml:space="preserve" y="490.7324" clip-path="url(#clipPath2)" font-family="sans-serif" stroke="none">Создание массивов </text>
      <text x="481.7666" xml:space="preserve" y="504.7012" clip-path="url(#clipPath2)" font-family="sans-serif" stroke="none">arrLeft и arrRight для</text>
      <text x="473.2178" xml:space="preserve" y="518.6699" clip-path="url(#clipPath2)" font-family="sans-serif" stroke="none">левой и правой частей </text>
      <text x="468.5303" xml:space="preserve" y="532.6387" clip-path="url(#clipPath2)" font-family="sans-serif" stroke="none">массива А и заполнение </text>
      <text x="474.665" xml:space="preserve" y="546.6074" clip-path="url(#clipPath2)" font-family="sans-serif" stroke="none">их сооствествующими </text>
      <text x="509.6162" xml:space="preserve" y="560.5762" clip-path="url(#clipPath2)" font-family="sans-serif" stroke="none">значениями</text>
    </g>
    <g text-rendering="geometricPrecision" stroke-miterlimit="1.45" shape-rendering="geometricPrecision" transform="matrix(1,0,0,1,-239,-136)" stroke-linecap="butt">
      <path fill="none" d="M445.5 278 L649.5 278 L649.5 369 L445.5 369 Z" clip-path="url(#clipPath2)"/>
      <text x="461.7363" xml:space="preserve" y="306.7012" clip-path="url(#clipPath2)" font-family="sans-serif" stroke="none">lengthLeft := mid - low + 1 -</text>
      <text x="502.6465" xml:space="preserve" y="320.6699" clip-path="url(#clipPath2)" font-family="sans-serif" stroke="none">длина левого </text>
      <text x="489.1289" xml:space="preserve" y="334.6387" clip-path="url(#clipPath2)" font-family="sans-serif" stroke="none">отсортированного</text>
      <text x="509.8447" xml:space="preserve" y="348.6074" clip-path="url(#clipPath2)" font-family="sans-serif" stroke="none">подмассива</text>
    </g>
    <g text-rendering="geometricPrecision" stroke-miterlimit="1.45" shape-rendering="geometricPrecision" transform="matrix(1,0,0,1,-239,-136)" stroke-linecap="butt">
      <path fill="none" d="M445.5 377 L649.5 377 L649.5 468 L445.5 468 Z" clip-path="url(#clipPath2)"/>
      <text x="467.2588" xml:space="preserve" y="405.7012" clip-path="url(#clipPath2)" font-family="sans-serif" stroke="none">lengthRight := high - mid -</text>
      <text x="500.6719" xml:space="preserve" y="419.6699" clip-path="url(#clipPath2)" font-family="sans-serif" stroke="none">длина правого</text>
      <text x="489.1289" xml:space="preserve" y="433.6387" clip-path="url(#clipPath2)" font-family="sans-serif" stroke="none">отсортированного</text>
      <text x="509.8447" xml:space="preserve" y="447.6074" clip-path="url(#clipPath2)" font-family="sans-serif" stroke="none">подмассива</text>
    </g>
    <g text-rendering="geometricPrecision" stroke-miterlimit="1.45" shape-rendering="geometricPrecision" transform="matrix(1,0,0,1,-239,-136)" stroke-linecap="butt">
      <path fill="none" d="M445.5 575 L649.5 575 L649.5 649 L445.5 649 Z" clip-path="url(#clipPath2)"/>
      <text x="531.1523" xml:space="preserve" y="602.1855" clip-path="url(#clipPath2)" font-family="sans-serif" stroke="none">i := 0</text>
      <text x="531.1523" xml:space="preserve" y="616.1543" clip-path="url(#clipPath2)" font-family="sans-serif" stroke="none">j := 0</text>
      <text x="522.917" xml:space="preserve" y="630.123" clip-path="url(#clipPath2)" font-family="sans-serif" stroke="none">k := low</text>
    </g>
    <g text-rendering="geometricPrecision" stroke-miterlimit="1.45" shape-rendering="geometricPrecision" transform="matrix(1,0,0,1,-239,-136)" stroke-linecap="butt">
      <path fill="none" d="M547.5 657 L649.5 694 L547.5 731 L445.5 694 Z" clip-path="url(#clipPath2)"/>
      <text x="498.6533" xml:space="preserve" y="691.1699" clip-path="url(#clipPath2)" font-family="sans-serif" stroke="none">i &lt; lengthLeft и </text>
      <text x="496.9746" xml:space="preserve" y="705.1387" clip-path="url(#clipPath2)" font-family="sans-serif" stroke="none">j &lt; lengthRight ?</text>
    </g>
    <g text-rendering="geometricPrecision" stroke-miterlimit="1.45" shape-rendering="geometricPrecision" transform="matrix(1,0,0,1,-239,-136)" stroke-linecap="butt">
      <path fill="none" d="M547.5 751.84 L649.5 788.84 L547.5 825.84 L445.5 788.84 Z" clip-path="url(#clipPath2)"/>
      <text x="509.0801" xml:space="preserve" y="786.0099" clip-path="url(#clipPath2)" font-family="sans-serif" stroke="none">arrLeft[i] &lt;=</text>
      <text x="511.6494" xml:space="preserve" y="799.9787" clip-path="url(#clipPath2)" font-family="sans-serif" stroke="none">arrRight[j] ?</text>
    </g>
    <g text-rendering="geometricPrecision" stroke-miterlimit="1.45" shape-rendering="geometricPrecision" transform="matrix(1,0,0,1,-239,-136)" stroke-linecap="butt">
      <path fill="none" d="M621.5 808.84 L825.5 808.84 L825.5 882.84 L621.5 882.84 Z" clip-path="url(#clipPath2)"/>
      <text x="669.4121" xml:space="preserve" y="849.9943" clip-path="url(#clipPath2)" font-family="sans-serif" stroke="none">arr[k] = arrLeft[i];</text>
    </g>
    <g text-rendering="geometricPrecision" stroke-miterlimit="1.45" shape-rendering="geometricPrecision" transform="matrix(1,0,0,1,-239,-136)" stroke-linecap="butt">
      <path fill="none" d="M621.5 900.84 L825.5 900.84 L825.5 974.84 L621.5 974.84 Z" clip-path="url(#clipPath2)"/>
      <text x="696.6436" xml:space="preserve" y="941.9943" clip-path="url(#clipPath2)" font-family="sans-serif" stroke="none">i := i + 1</text>
    </g>
    <g text-rendering="geometricPrecision" stroke-miterlimit="1.45" shape-rendering="geometricPrecision" transform="matrix(1,0,0,1,-239,-136)" stroke-linecap="butt">
      <path fill="none" d="M269.5 808.84 L473.5 808.84 L473.5 882.84 L269.5 882.84 Z" clip-path="url(#clipPath2)"/>
      <text x="313.1113" xml:space="preserve" y="849.9943" clip-path="url(#clipPath2)" font-family="sans-serif" stroke="none">arr[k] = arrRight[j];</text>
    </g>
    <g text-rendering="geometricPrecision" stroke-miterlimit="1.45" shape-rendering="geometricPrecision" transform="matrix(1,0,0,1,-239,-136)" stroke-linecap="butt">
      <path fill="none" d="M269.5 900.84 L473.5 900.84 L473.5 974.84 L269.5 974.84 Z" clip-path="url(#clipPath2)"/>
      <text x="344.6436" xml:space="preserve" y="941.9943" clip-path="url(#clipPath2)" font-family="sans-serif" stroke="none">j := j + 1</text>
    </g>
    <g text-rendering="geometricPrecision" stroke-miterlimit="1.45" shape-rendering="geometricPrecision" transform="matrix(1,0,0,1,-239,-136)" stroke-linecap="butt">
      <path fill="none" d="M445.5 1024.5734 L649.5 1024.5734 L649.5 1098.5734 L445.5 1098.5734 Z" clip-path="url(#clipPath2)"/>
      <text x="517.0283" xml:space="preserve" y="1065.7277" clip-path="url(#clipPath2)" font-family="sans-serif" stroke="none">k := k + 1</text>
    </g>
    <g text-rendering="geometricPrecision" stroke-miterlimit="1.45" shape-rendering="geometricPrecision" transform="matrix(1,0,0,1,-239,-136)" stroke-linecap="butt">
      <circle fill="none" r="20" clip-path="url(#clipPath2)" cx="547.5" cy="1168.3067"/>
      <text x="543.3955" xml:space="preserve" y="1172.4609" clip-path="url(#clipPath2)" font-family="sans-serif" stroke="none">А</text>
    </g>
    <g text-rendering="geometricPrecision" stroke-miterlimit="1.45" shape-rendering="geometricPrecision" transform="matrix(1,0,0,1,-239,-136)" stroke-linecap="butt">
      <path fill="none" d="M749.0063 230.7856 L654.0091 231.8296" clip-path="url(#clipPath2)"/>
    </g>
    <g text-rendering="geometricPrecision" stroke-miterlimit="1.45" shape-rendering="geometricPrecision" transform="matrix(1,0,0,1,-239,-136)" stroke-linecap="butt">
      <path fill="none" d="M547.5 269.9866 L547.5 278.0084" clip-path="url(#clipPath2)"/>
      <path fill="none" d="M547.5 368.9878 L547.5 377.0094" clip-path="url(#clipPath2)"/>
      <path fill="none" d="M547.5 467.9878 L547.5 476.0094" clip-path="url(#clipPath2)"/>
      <path fill="none" d="M547.5 566.9709 L547.5 575.0181" clip-path="url(#clipPath2)"/>
      <path fill="none" d="M547.5 649.0361 L547.5 656.9838" clip-path="url(#clipPath2)"/>
      <path fill="none" d="M547.5 731.0005 L547.5 751.8149" clip-path="url(#clipPath2)"/>
      <text x="547.2827" xml:space="preserve" y="746.0743" clip-path="url(#clipPath2)" font-family="sans-serif" stroke="none">Да</text>
      <path fill="none" d="M649.4648 788.84 L723.5 788.84 L723.5 808.8513" clip-path="url(#clipPath2)"/>
      <text x="685.8179" xml:space="preserve" y="783.0099" clip-path="url(#clipPath2)" font-family="sans-serif" stroke="none">Да</text>
      <path fill="none" d="M723.5 882.8107 L723.5 900.8403" clip-path="url(#clipPath2)"/>
      <path fill="none" d="M445.5352 788.84 L371.5 788.84 L371.5 808.8513" clip-path="url(#clipPath2)"/>
      <path fill="none" d="M371.5 882.8107 L371.5 900.8403" clip-path="url(#clipPath2)"/>
      <path fill="none" d="M723.5 974.819 L723.5 1010.1733 L547.5 1010.1733 L547.5 1016.3333 L547.5 1016.3333 L547.5 1024.595" clip-path="url(#clipPath2)"/>
      <path fill="none" d="M371.5 974.8589 L371.5 1009.9759 L547.5 1010.1733 L547.5 1016.3333 L547.5 1016.3333 L547.5 1024.595" clip-path="url(#clipPath2)"/>
      <path fill="none" d="M547.5 1098.5717 L547.5 1110.333 L254.1336 1110.333 L254.1336 694 L445.4735 694" clip-path="url(#clipPath2)"/>
      <path fill="none" d="M649.4737 694 L848.5336 694 L848.5336 1129.5331 L547.5 1129.5331 L547.5 1148.2761" clip-path="url(#clipPath2)"/>
    </g>
  </g>
</svg>
