<?xml version="1.0" encoding="UTF-8"?><svg xmlns="http://www.w3.org/2000/svg" xmlns:xlink="http://www.w3.org/1999/xlink" fill-opacity="1" color-rendering="auto" color-interpolation="auto" text-rendering="auto" stroke="black" stroke-linecap="square" width="575" stroke-miterlimit="10" shape-rendering="auto" stroke-opacity="1" fill="black" stroke-dasharray="none" font-weight="normal" stroke-width="1" height="893" font-family="'Dialog'" font-style="normal" stroke-linejoin="miter" font-size="12px" stroke-dashoffset="0" image-rendering="auto">
  <!--Generated by ySVG 2.6-->
  <defs id="genericDefs"/>
  <g>
    <defs id="defs1">
      <clipPath clipPathUnits="userSpaceOnUse" id="clipPath1">
        <path d="M0 0 L575 0 L575 893 L0 893 L0 0 Z"/>
      </clipPath>
      <clipPath clipPathUnits="userSpaceOnUse" id="clipPath2">
        <path d="M519 130 L1094 130 L1094 1023 L519 1023 L519 130 Z"/>
      </clipPath>
    </defs>
    <g fill="white" text-rendering="geometricPrecision" shape-rendering="geometricPrecision" transform="translate(-519,-130)" stroke="white">
      <rect x="519" width="575" height="893" y="130" clip-path="url(#clipPath2)" stroke="none"/>
    </g>
    <g text-rendering="geometricPrecision" stroke-miterlimit="1.45" shape-rendering="geometricPrecision" transform="matrix(1,0,0,1,-519,-130)" stroke-linecap="butt">
      <rect x="534" y="194" clip-path="url(#clipPath2)" fill="none" width="211" rx="33" ry="33" height="66"/>
      <text x="616.584" xml:space="preserve" y="231.1543" clip-path="url(#clipPath2)" font-family="sans-serif" stroke="none">Начало</text>
    </g>
    <g text-rendering="geometricPrecision" stroke-miterlimit="1.45" shape-rendering="geometricPrecision" transform="matrix(1,0,0,1,-519,-130)" stroke-linecap="butt">
      <path fill="none" d="M849.75 145 L817 145 L817 309 L849.75 309" clip-path="url(#clipPath2)"/>
      <text x="822.3838" xml:space="preserve" y="161.3105" clip-path="url(#clipPath2)" font-family="sans-serif" stroke="none">Функция составления </text>
      <text x="822.3838" xml:space="preserve" y="175.2793" clip-path="url(#clipPath2)" font-family="sans-serif" stroke="none">файла-словаря</text>
      <text x="822.3838" xml:space="preserve" y="189.248" clip-path="url(#clipPath2)" font-family="sans-serif" stroke="none">(многопоточная)</text>
      <text x="822.3838" xml:space="preserve" y="203.2168" clip-path="url(#clipPath2)" font-family="sans-serif" stroke="none">Вход:</text>
      <text x="822.3838" xml:space="preserve" y="217.1855" clip-path="url(#clipPath2)" font-family="sans-serif" stroke="none">Имя файла с текстом на русском языке</text>
      <text x="822.3838" xml:space="preserve" y="231.1543" clip-path="url(#clipPath2)" font-family="sans-serif" stroke="none">m - число строк в файле с текстом</text>
      <text x="822.3838" xml:space="preserve" y="245.123" clip-path="url(#clipPath2)" font-family="sans-serif" stroke="none">g - число потоков</text>
      <text x="822.3838" xml:space="preserve" y="259.0918" clip-path="url(#clipPath2)" font-family="sans-serif" stroke="none">Имя файла-словаря</text>
      <text x="822.3838" xml:space="preserve" y="273.0605" clip-path="url(#clipPath2)" font-family="sans-serif" stroke="none">Число N</text>
      <text x="822.3838" xml:space="preserve" y="287.0293" clip-path="url(#clipPath2)" font-family="sans-serif" stroke="none">Выход:</text>
      <text x="822.3838" xml:space="preserve" y="300.998" clip-path="url(#clipPath2)" font-family="sans-serif" stroke="none">Файл-словарь</text>
    </g>
    <g text-rendering="geometricPrecision" stroke-miterlimit="1.45" shape-rendering="geometricPrecision" transform="matrix(1,0,0,1,-519,-130)" stroke-linecap="butt">
      <path fill="none" d="M534 267 L745 267 L745 328 L534 328 Z" clip-path="url(#clipPath2)"/>
      <text x="575.8115" xml:space="preserve" y="287.6855" clip-path="url(#clipPath2)" font-family="sans-serif" stroke="none">Считывание текста </text>
      <text x="592.0156" xml:space="preserve" y="301.6543" clip-path="url(#clipPath2)" font-family="sans-serif" stroke="none">в массив строк</text>
      <text x="618.2949" xml:space="preserve" y="315.623" clip-path="url(#clipPath2)" font-family="sans-serif" stroke="none">strText</text>
    </g>
    <g text-rendering="geometricPrecision" stroke-miterlimit="1.45" shape-rendering="geometricPrecision" transform="matrix(1,0,0,1,-519,-130)" stroke-linecap="butt">
      <rect fill="none" x="534" width="211" height="61" y="335" clip-path="url(#clipPath2)"/>
      <path fill="none" d="M544 335 L544 396 M735 335 L735 396 M544 335 Z" clip-path="url(#clipPath2)"/>
      <text x="544.2002" xml:space="preserve" y="348.7012" clip-path="url(#clipPath2)" font-family="sans-serif" stroke="none">Выполнение преобразований </text>
      <text x="547.5635" xml:space="preserve" y="362.6699" clip-path="url(#clipPath2)" font-family="sans-serif" stroke="none">над текстом (перевод букв в</text>
      <text x="553.2588" xml:space="preserve" y="376.6387" clip-path="url(#clipPath2)" font-family="sans-serif" stroke="none">нижний регистр, удаление</text>
      <text x="575.3545" xml:space="preserve" y="390.6074" clip-path="url(#clipPath2)" font-family="sans-serif" stroke="none">знаков препинания)</text>
    </g>
    <g text-rendering="geometricPrecision" stroke-miterlimit="1.45" shape-rendering="geometricPrecision" transform="matrix(1,0,0,1,-519,-130)" stroke-linecap="butt">
      <path fill="none" d="M544 539 L735 539 L745 549 L745 600 L534 600 L534 549 Z" clip-path="url(#clipPath2)"/>
      <text x="570.3711" xml:space="preserve" y="573.6543" clip-path="url(#clipPath2)" font-family="sans-serif" stroke="none">Цикл по i от 0 до g - 1</text>
    </g>
    <g text-rendering="geometricPrecision" stroke-miterlimit="1.45" shape-rendering="geometricPrecision" transform="matrix(1,0,0,1,-519,-130)" stroke-linecap="butt">
      <rect fill="none" x="534" width="211" height="61" y="607" clip-path="url(#clipPath2)"/>
      <path fill="none" d="M544 607 L544 668 M735 607 L735 668 M544 607 Z" clip-path="url(#clipPath2)"/>
      <text x="584.126" xml:space="preserve" y="620.7012" clip-path="url(#clipPath2)" font-family="sans-serif" stroke="none">создание потока </text>
      <text x="546.6377" xml:space="preserve" y="634.6699" clip-path="url(#clipPath2)" font-family="sans-serif" stroke="none">с функцией parallelProcessStr</text>
      <text x="559.918" xml:space="preserve" y="648.6387" clip-path="url(#clipPath2)" font-family="sans-serif" stroke="none">и параметрами i, N, g, m,</text>
      <text x="554.8057" xml:space="preserve" y="662.6074" clip-path="url(#clipPath2)" font-family="sans-serif" stroke="none">strText, localDictCntNgrams</text>
    </g>
    <g text-rendering="geometricPrecision" stroke-miterlimit="1.45" shape-rendering="geometricPrecision" transform="matrix(1,0,0,1,-519,-130)" stroke-linecap="butt">
      <path fill="none" d="M534 403 L745 403 L745 464 L534 464 Z" clip-path="url(#clipPath2)"/>
      <text x="559.2881" xml:space="preserve" y="423.6855" clip-path="url(#clipPath2)" font-family="sans-serif" stroke="none">dictCntNgram - словарь с </text>
      <text x="549.8047" xml:space="preserve" y="437.6543" clip-path="url(#clipPath2)" font-family="sans-serif" stroke="none">количеством употреблений </text>
      <text x="613.1562" xml:space="preserve" y="451.623" clip-path="url(#clipPath2)" font-family="sans-serif" stroke="none">N-грамм</text>
    </g>
    <g text-rendering="geometricPrecision" stroke-miterlimit="1.45" shape-rendering="geometricPrecision" transform="matrix(1,0,0,1,-519,-130)" stroke-linecap="butt">
      <path fill="none" d="M534 675 L745 675 L745 726 L735 736 L544 736 L534 726 Z" clip-path="url(#clipPath2)"/>
      <text x="585.7695" xml:space="preserve" y="709.6543" clip-path="url(#clipPath2)" font-family="sans-serif" stroke="none">Конец цикла по i</text>
    </g>
    <g text-rendering="geometricPrecision" stroke-miterlimit="1.45" shape-rendering="geometricPrecision" transform="matrix(1,0,0,1,-519,-130)" stroke-linecap="butt">
      <path fill="none" d="M544 743 L735 743 L745 753 L745 804 L534 804 L534 753 Z" clip-path="url(#clipPath2)"/>
      <text x="570.3711" xml:space="preserve" y="777.6543" clip-path="url(#clipPath2)" font-family="sans-serif" stroke="none">Цикл по i от 0 до g - 1</text>
    </g>
    <g text-rendering="geometricPrecision" stroke-miterlimit="1.45" shape-rendering="geometricPrecision" transform="matrix(1,0,0,1,-519,-130)" stroke-linecap="butt">
      <path fill="none" d="M534 879 L745 879 L745 930 L735 940 L544 940 L534 930 Z" clip-path="url(#clipPath2)"/>
      <text x="585.7695" xml:space="preserve" y="913.6543" clip-path="url(#clipPath2)" font-family="sans-serif" stroke="none">Конец цикла по i</text>
    </g>
    <g text-rendering="geometricPrecision" stroke-miterlimit="1.45" shape-rendering="geometricPrecision" transform="matrix(1,0,0,1,-519,-130)" stroke-linecap="butt">
      <path fill="none" d="M534 811 L745 811 L745 872 L534 872 Z" clip-path="url(#clipPath2)"/>
      <text x="565.71" xml:space="preserve" y="838.6699" clip-path="url(#clipPath2)" font-family="sans-serif" stroke="none">Ожидание завершения</text>
      <text x="579.8809" xml:space="preserve" y="852.6387" clip-path="url(#clipPath2)" font-family="sans-serif" stroke="none">работы i-го потока</text>
    </g>
    <g text-rendering="geometricPrecision" stroke-miterlimit="1.45" shape-rendering="geometricPrecision" transform="matrix(1,0,0,1,-519,-130)" stroke-linecap="butt">
      <path fill="none" d="M534 471 L745 471 L745 532 L534 532 Z" clip-path="url(#clipPath2)"/>
      <text x="549.7021" xml:space="preserve" y="484.7012" clip-path="url(#clipPath2)" font-family="sans-serif" stroke="none">localDictCntNgrams - массив </text>
      <text x="560.2695" xml:space="preserve" y="498.6699" clip-path="url(#clipPath2)" font-family="sans-serif" stroke="none">словарей с количеством </text>
      <text x="562.3467" xml:space="preserve" y="512.6387" clip-path="url(#clipPath2)" font-family="sans-serif" stroke="none">употреблений  N-грамм </text>
      <text x="574.6836" xml:space="preserve" y="526.6074" clip-path="url(#clipPath2)" font-family="sans-serif" stroke="none">для каждого потока</text>
    </g>
    <g text-rendering="geometricPrecision" stroke-miterlimit="1.45" shape-rendering="geometricPrecision" transform="matrix(1,0,0,1,-519,-130)" stroke-linecap="butt">
      <circle fill="none" r="30.5" clip-path="url(#clipPath2)" cx="639.5" cy="977.5"/>
      <text x="635.3955" xml:space="preserve" y="981.6543" clip-path="url(#clipPath2)" font-family="sans-serif" stroke="none">A</text>
    </g>
    <g text-rendering="geometricPrecision" stroke-miterlimit="1.45" shape-rendering="geometricPrecision" transform="matrix(1,0,0,1,-519,-130)" stroke-linecap="butt">
      <rect fill="none" x="817" width="216" height="66" y="466" clip-path="url(#clipPath2)"/>
      <path fill="none" d="M827 466 L827 532 M1023 466 L1023 532 M827 466 Z" clip-path="url(#clipPath2)"/>
      <text x="845.1748" xml:space="preserve" y="489.1855" clip-path="url(#clipPath2)" font-family="sans-serif" stroke="none">Объединение локальных</text>
      <text x="860.9629" xml:space="preserve" y="503.1543" clip-path="url(#clipPath2)" font-family="sans-serif" stroke="none">словарей в словарь </text>
      <text x="883.2432" xml:space="preserve" y="517.123" clip-path="url(#clipPath2)" font-family="sans-serif" stroke="none">dictCntNgram</text>
    </g>
    <g text-rendering="geometricPrecision" stroke-miterlimit="1.45" shape-rendering="geometricPrecision" transform="matrix(1,0,0,1,-519,-130)" stroke-linecap="butt">
      <path fill="none" d="M829.5 539 L1020.5 539 L1030.5 549 L1030.5 600 L819.5 600 L819.5 549 Z" clip-path="url(#clipPath2)"/>
      <text x="833.1777" xml:space="preserve" y="566.6699" clip-path="url(#clipPath2)" font-family="sans-serif" stroke="none">Цикл по количеству N-грамм</text>
      <text x="921.1973" xml:space="preserve" y="580.6387" clip-path="url(#clipPath2)" font-family="sans-serif" stroke="none">n</text>
    </g>
    <g text-rendering="geometricPrecision" stroke-miterlimit="1.45" shape-rendering="geometricPrecision" transform="matrix(1,0,0,1,-519,-130)" stroke-linecap="butt">
      <path fill="none" d="M819.5 675 L1030.5 675 L1030.5 726 L1020.5 736 L829.5 736 L819.5 726 Z" clip-path="url(#clipPath2)"/>
      <text x="871.2695" xml:space="preserve" y="709.6543" clip-path="url(#clipPath2)" font-family="sans-serif" stroke="none">Конец цикла по i</text>
    </g>
    <g text-rendering="geometricPrecision" stroke-miterlimit="1.45" shape-rendering="geometricPrecision" transform="matrix(1,0,0,1,-519,-130)" stroke-linecap="butt">
      <path fill="none" d="M819.5 607 L1030.5 607 L1030.5 668 L819.5 668 Z" clip-path="url(#clipPath2)"/>
      <text x="862.1172" xml:space="preserve" y="620.7012" clip-path="url(#clipPath2)" font-family="sans-serif" stroke="none">Запись N-граммы и </text>
      <text x="877.5361" xml:space="preserve" y="634.6699" clip-path="url(#clipPath2)" font-family="sans-serif" stroke="none">количество ее </text>
      <text x="872.8516" xml:space="preserve" y="648.6387" clip-path="url(#clipPath2)" font-family="sans-serif" stroke="none">употребления в </text>
      <text x="880.9316" xml:space="preserve" y="662.6074" clip-path="url(#clipPath2)" font-family="sans-serif" stroke="none">файл-словарь</text>
    </g>
    <g text-rendering="geometricPrecision" stroke-miterlimit="1.45" shape-rendering="geometricPrecision" transform="matrix(1,0,0,1,-519,-130)" stroke-linecap="butt">
      <rect x="822" y="743" clip-path="url(#clipPath2)" fill="none" width="211" rx="33" ry="33" height="66"/>
      <text x="907.8711" xml:space="preserve" y="780.1543" clip-path="url(#clipPath2)" font-family="sans-serif" stroke="none">Конец</text>
    </g>
    <g text-rendering="geometricPrecision" stroke-miterlimit="1.45" shape-rendering="geometricPrecision" transform="matrix(1,0,0,1,-519,-130)" stroke-linecap="butt">
      <circle fill="none" r="30.5" clip-path="url(#clipPath2)" cx="925" cy="428.5"/>
      <text x="920.8955" xml:space="preserve" y="432.6543" clip-path="url(#clipPath2)" font-family="sans-serif" stroke="none">A</text>
    </g>
    <g text-rendering="geometricPrecision" stroke-miterlimit="1.45" shape-rendering="geometricPrecision" transform="matrix(1,0,0,1,-519,-130)" stroke-linecap="butt">
      <path fill="none" d="M816.9854 227 L745.012 227" clip-path="url(#clipPath2)"/>
    </g>
    <g text-rendering="geometricPrecision" stroke-miterlimit="1.45" shape-rendering="geometricPrecision" transform="matrix(1,0,0,1,-519,-130)" stroke-linecap="butt">
      <path fill="none" d="M639.5 260.0125 L639.5 267.0048" clip-path="url(#clipPath2)"/>
      <path fill="none" d="M639.5 328.0137 L639.5 335.0057" clip-path="url(#clipPath2)"/>
      <path fill="none" d="M639.5 600.0137 L639.5 607.0057" clip-path="url(#clipPath2)"/>
      <path fill="none" d="M639.5 396.0137 L639.5 403.0057" clip-path="url(#clipPath2)"/>
      <path fill="none" d="M639.5 668.0137 L639.5 675.0057" clip-path="url(#clipPath2)"/>
      <path fill="none" d="M639.5 736.0137 L639.5 743.0057" clip-path="url(#clipPath2)"/>
      <path fill="none" d="M639.5 804.0137 L639.5 811.0057" clip-path="url(#clipPath2)"/>
      <path fill="none" d="M639.5 872.0137 L639.5 879.0057" clip-path="url(#clipPath2)"/>
      <path fill="none" d="M639.5 464.0137 L639.5 471.0057" clip-path="url(#clipPath2)"/>
      <path fill="none" d="M639.5 532.0137 L639.5 539.0057" clip-path="url(#clipPath2)"/>
      <path fill="none" d="M639.5 940.0137 L639.5 947.0057" clip-path="url(#clipPath2)"/>
      <path fill="none" d="M925 532.0125 L925 539.0048" clip-path="url(#clipPath2)"/>
      <path fill="none" d="M925 600.0137 L925 607.0057" clip-path="url(#clipPath2)"/>
      <path fill="none" d="M925 668.0137 L925 675.0057" clip-path="url(#clipPath2)"/>
      <path fill="none" d="M926.0828 736.0339 L926.3305 743.0202" clip-path="url(#clipPath2)"/>
      <path fill="none" d="M925 459.0339 L925 466.0202" clip-path="url(#clipPath2)"/>
    </g>
  </g>
</svg>
