<?xml version="1.0" encoding="UTF-8"?><svg xmlns="http://www.w3.org/2000/svg" xmlns:xlink="http://www.w3.org/1999/xlink" fill-opacity="1" color-rendering="auto" color-interpolation="auto" text-rendering="auto" stroke="black" stroke-linecap="square" width="575" stroke-miterlimit="10" shape-rendering="auto" stroke-opacity="1" fill="black" stroke-dasharray="none" font-weight="normal" stroke-width="1" height="621" font-family="'Dialog'" font-style="normal" stroke-linejoin="miter" font-size="12px" stroke-dashoffset="0" image-rendering="auto">
  <!--Generated by ySVG 2.6-->
  <defs id="genericDefs"/>
  <g>
    <defs id="defs1">
      <clipPath clipPathUnits="userSpaceOnUse" id="clipPath1">
        <path d="M0 0 L575 0 L575 621 L0 621 L0 0 Z"/>
      </clipPath>
      <clipPath clipPathUnits="userSpaceOnUse" id="clipPath2">
        <path d="M519 135 L1094 135 L1094 756 L519 756 L519 135 Z"/>
      </clipPath>
    </defs>
    <g fill="white" text-rendering="geometricPrecision" shape-rendering="geometricPrecision" transform="translate(-519,-135)" stroke="white">
      <rect x="519" width="575" height="621" y="135" clip-path="url(#clipPath2)" stroke="none"/>
    </g>
    <g text-rendering="geometricPrecision" stroke-miterlimit="1.45" shape-rendering="geometricPrecision" transform="matrix(1,0,0,1,-519,-135)" stroke-linecap="butt">
      <rect x="534" y="194" clip-path="url(#clipPath2)" fill="none" width="211" rx="33" ry="33" height="66"/>
      <text x="616.584" xml:space="preserve" y="231.1543" clip-path="url(#clipPath2)" font-family="sans-serif" stroke="none">Начало</text>
    </g>
    <g text-rendering="geometricPrecision" stroke-miterlimit="1.45" shape-rendering="geometricPrecision" transform="matrix(1,0,0,1,-519,-135)" stroke-linecap="butt">
      <path fill="none" d="M849.75 150.86 L817 150.86 L817 303.14 L849.75 303.14" clip-path="url(#clipPath2)"/>
      <text x="830.1299" xml:space="preserve" y="168.2949" clip-path="url(#clipPath2)" font-family="sans-serif" stroke="none">Подпрограмма обработки </text>
      <text x="830.1299" xml:space="preserve" y="182.2637" clip-path="url(#clipPath2)" font-family="sans-serif" stroke="none">строки текста</text>
      <text x="830.1299" xml:space="preserve" y="196.2324" clip-path="url(#clipPath2)" font-family="sans-serif" stroke="none">Вход:</text>
      <text x="830.1299" xml:space="preserve" y="210.2012" clip-path="url(#clipPath2)" font-family="sans-serif" stroke="none">currStr - строка для обработки</text>
      <text x="830.1299" xml:space="preserve" y="224.1699" clip-path="url(#clipPath2)" font-family="sans-serif" stroke="none">dictCntNgram - словарь с </text>
      <text x="830.1299" xml:space="preserve" y="238.1387" clip-path="url(#clipPath2)" font-family="sans-serif" stroke="none">количеством употреблений </text>
      <text x="830.1299" xml:space="preserve" y="252.1074" clip-path="url(#clipPath2)" font-family="sans-serif" stroke="none">N-грамм</text>
      <text x="830.1299" xml:space="preserve" y="266.0762" clip-path="url(#clipPath2)" font-family="sans-serif" stroke="none">Число N</text>
      <text x="830.1299" xml:space="preserve" y="280.0449" clip-path="url(#clipPath2)" font-family="sans-serif" stroke="none">Выход:</text>
      <text x="830.1299" xml:space="preserve" y="294.0137" clip-path="url(#clipPath2)" font-family="sans-serif" stroke="none">dictCntNgram</text>
    </g>
    <g text-rendering="geometricPrecision" stroke-miterlimit="1.45" shape-rendering="geometricPrecision" transform="matrix(1,0,0,1,-519,-135)" stroke-linecap="butt">
      <path fill="none" d="M547.84 266.6613 L738.84 266.6613 L748.84 276.6613 L748.84 327.6613 L537.84 327.6613 L537.84 276.6613 Z" clip-path="url(#clipPath2)"/>
      <text x="576.6105" xml:space="preserve" y="294.3312" clip-path="url(#clipPath2)" font-family="sans-serif" stroke="none">Цикл по словам word</text>
      <text x="593.7375" xml:space="preserve" y="308.2999" clip-path="url(#clipPath2)" font-family="sans-serif" stroke="none">в строке currStr</text>
    </g>
    <g text-rendering="geometricPrecision" stroke-miterlimit="1.45" shape-rendering="geometricPrecision" transform="matrix(1,0,0,1,-519,-135)" stroke-linecap="butt">
      <rect fill="none" x="537.84" width="211" height="61" y="334.6612" clip-path="url(#clipPath2)"/>
      <path fill="none" d="M547.84 334.6613 L547.84 395.6613 M738.84 334.6613 L738.84 395.6613 M547.84 334.6613 Z" clip-path="url(#clipPath2)"/>
      <text x="568.2492" xml:space="preserve" y="362.3312" clip-path="url(#clipPath2)" font-family="sans-serif" stroke="none">Определение N-грамм, </text>
      <text x="569.8371" xml:space="preserve" y="376.2999" clip-path="url(#clipPath2)" font-family="sans-serif" stroke="none">входящих с слово word</text>
    </g>
    <g text-rendering="geometricPrecision" stroke-miterlimit="1.45" shape-rendering="geometricPrecision" transform="matrix(1,0,0,1,-519,-135)" stroke-linecap="butt">
      <path fill="none" d="M547.84 402.6613 L738.84 402.6613 L748.84 412.6613 L748.84 463.6613 L537.84 463.6613 L537.84 412.6613 Z" clip-path="url(#clipPath2)"/>
      <text x="547.1408" xml:space="preserve" y="430.3312" clip-path="url(#clipPath2)" font-family="sans-serif" stroke="none">Цикл по N-граммам currNgram</text>
      <text x="608.5617" xml:space="preserve" y="444.2999" clip-path="url(#clipPath2)" font-family="sans-serif" stroke="none">слова word</text>
    </g>
    <g text-rendering="geometricPrecision" stroke-miterlimit="1.45" shape-rendering="geometricPrecision" transform="matrix(1,0,0,1,-519,-135)" stroke-linecap="butt">
      <path fill="none" d="M537.84 538.6613 L748.84 538.6613 L748.84 589.6613 L738.84 599.6613 L547.84 599.6613 L537.84 589.6613 Z" clip-path="url(#clipPath2)"/>
      <text x="554.8224" xml:space="preserve" y="566.3312" clip-path="url(#clipPath2)" font-family="sans-serif" stroke="none">Конец цикла по N-граммам </text>
      <text x="574.3342" xml:space="preserve" y="580.2999" clip-path="url(#clipPath2)" font-family="sans-serif" stroke="none">currNgram слова word</text>
    </g>
    <g text-rendering="geometricPrecision" stroke-miterlimit="1.45" shape-rendering="geometricPrecision" transform="matrix(1,0,0,1,-519,-135)" stroke-linecap="butt">
      <path fill="none" d="M537.84 470.6613 L748.84 470.6613 L748.84 531.6613 L537.84 531.6613 Z" clip-path="url(#clipPath2)"/>
      <text x="553.718" xml:space="preserve" y="498.3312" clip-path="url(#clipPath2)" font-family="sans-serif" stroke="none">dictCntNgram[currNgram] := </text>
      <text x="551.9221" xml:space="preserve" y="512.2999" clip-path="url(#clipPath2)" font-family="sans-serif" stroke="none">dictCntNgram[currNgram] + 1</text>
    </g>
    <g text-rendering="geometricPrecision" stroke-miterlimit="1.45" shape-rendering="geometricPrecision" transform="matrix(1,0,0,1,-519,-135)" stroke-linecap="butt">
      <rect x="537.84" y="674.6612" clip-path="url(#clipPath2)" fill="none" width="211" rx="33" ry="33" height="66"/>
      <text x="623.7111" xml:space="preserve" y="711.8156" clip-path="url(#clipPath2)" font-family="sans-serif" stroke="none">Конец</text>
    </g>
    <g text-rendering="geometricPrecision" stroke-miterlimit="1.45" shape-rendering="geometricPrecision" transform="matrix(1,0,0,1,-519,-135)" stroke-linecap="butt">
      <path fill="none" d="M537.84 606.6613 L748.84 606.6613 L748.84 657.6613 L738.84 667.6613 L547.84 667.6613 L537.84 657.6613 Z" clip-path="url(#clipPath2)"/>
      <text x="551.9719" xml:space="preserve" y="634.3312" clip-path="url(#clipPath2)" font-family="sans-serif" stroke="none">Конец цикла по словам word</text>
      <text x="593.7375" xml:space="preserve" y="648.2999" clip-path="url(#clipPath2)" font-family="sans-serif" stroke="none">в строке currStr</text>
    </g>
    <g text-rendering="geometricPrecision" stroke-miterlimit="1.45" stroke-dasharray="6,2" shape-rendering="geometricPrecision" transform="matrix(1,0,0,1,-519,-135)" stroke-linecap="butt">
      <path fill="none" d="M816.9854 227 L745.012 227" clip-path="url(#clipPath2)"/>
    </g>
    <g text-rendering="geometricPrecision" stroke-miterlimit="1.45" shape-rendering="geometricPrecision" transform="matrix(1,0,0,1,-519,-135)" stroke-linecap="butt">
      <path fill="none" d="M641.3056 259.9909 L641.6692 266.6336" clip-path="url(#clipPath2)"/>
      <path fill="none" d="M643.34 327.6749 L643.34 334.667" clip-path="url(#clipPath2)"/>
      <path fill="none" d="M643.34 395.6749 L643.34 402.667" clip-path="url(#clipPath2)"/>
      <path fill="none" d="M643.34 463.6749 L643.34 470.667" clip-path="url(#clipPath2)"/>
      <path fill="none" d="M643.34 531.6749 L643.34 538.667" clip-path="url(#clipPath2)"/>
      <path fill="none" d="M643.34 599.6749 L643.34 606.667" clip-path="url(#clipPath2)"/>
      <path fill="none" d="M643.34 667.6952 L643.34 674.6815" clip-path="url(#clipPath2)"/>
    </g>
  </g>
</svg>
