<?xml version="1.0" encoding="UTF-8"?><svg xmlns="http://www.w3.org/2000/svg" xmlns:xlink="http://www.w3.org/1999/xlink" fill-opacity="1" color-rendering="auto" color-interpolation="auto" text-rendering="auto" stroke="black" stroke-linecap="square" width="575" stroke-miterlimit="10" shape-rendering="auto" stroke-opacity="1" fill="black" stroke-dasharray="none" font-weight="normal" stroke-width="1" height="814" font-family="'Dialog'" font-style="normal" stroke-linejoin="miter" font-size="12px" stroke-dashoffset="0" image-rendering="auto">
  <!--Generated by ySVG 2.6-->
  <defs id="genericDefs"/>
  <g>
    <defs id="defs1">
      <clipPath clipPathUnits="userSpaceOnUse" id="clipPath1">
        <path d="M0 0 L575 0 L575 814 L0 814 L0 0 Z"/>
      </clipPath>
      <clipPath clipPathUnits="userSpaceOnUse" id="clipPath2">
        <path d="M494 121 L1069 121 L1069 935 L494 935 L494 121 Z"/>
      </clipPath>
    </defs>
    <g fill="white" text-rendering="geometricPrecision" shape-rendering="geometricPrecision" transform="translate(-494,-121)" stroke="white">
      <rect x="494" width="575" height="814" y="121" clip-path="url(#clipPath2)" stroke="none"/>
    </g>
    <g text-rendering="geometricPrecision" stroke-miterlimit="1.45" shape-rendering="geometricPrecision" transform="matrix(1,0,0,1,-494,-121)" stroke-linecap="butt">
      <rect x="509" y="169" clip-path="url(#clipPath2)" fill="none" width="211" rx="33" ry="33" height="66"/>
      <text x="591.584" xml:space="preserve" y="206.1543" clip-path="url(#clipPath2)" font-family="sans-serif" stroke="none">Начало</text>
    </g>
    <g text-rendering="geometricPrecision" stroke-miterlimit="1.45" shape-rendering="geometricPrecision" transform="matrix(1,0,0,1,-494,-121)" stroke-linecap="butt">
      <path fill="none" d="M824.75 136 L792 136 L792 268 L824.75 268" clip-path="url(#clipPath2)"/>
      <text x="797.3838" xml:space="preserve" y="150.2793" clip-path="url(#clipPath2)" font-family="sans-serif" stroke="none">Функция составления </text>
      <text x="797.3838" xml:space="preserve" y="164.248" clip-path="url(#clipPath2)" font-family="sans-serif" stroke="none">файла-словаря</text>
      <text x="797.3838" xml:space="preserve" y="178.2168" clip-path="url(#clipPath2)" font-family="sans-serif" stroke="none">Вход:</text>
      <text x="797.3838" xml:space="preserve" y="192.1855" clip-path="url(#clipPath2)" font-family="sans-serif" stroke="none">Имя файла с текстом на русском языке</text>
      <text x="797.3838" xml:space="preserve" y="206.1543" clip-path="url(#clipPath2)" font-family="sans-serif" stroke="none">m - число строк в файле с текстом</text>
      <text x="797.3838" xml:space="preserve" y="220.123" clip-path="url(#clipPath2)" font-family="sans-serif" stroke="none">Имя файла-словаря</text>
      <text x="797.3838" xml:space="preserve" y="234.0918" clip-path="url(#clipPath2)" font-family="sans-serif" stroke="none">Число N</text>
      <text x="797.3838" xml:space="preserve" y="248.0605" clip-path="url(#clipPath2)" font-family="sans-serif" stroke="none">Выход:</text>
      <text x="797.3838" xml:space="preserve" y="262.0293" clip-path="url(#clipPath2)" font-family="sans-serif" stroke="none">Файл-словарь</text>
    </g>
    <g text-rendering="geometricPrecision" stroke-miterlimit="1.45" shape-rendering="geometricPrecision" transform="matrix(1,0,0,1,-494,-121)" stroke-linecap="butt">
      <rect fill="none" x="509" width="211" height="61" y="310" clip-path="url(#clipPath2)"/>
      <path fill="none" d="M519 310 L519 371 M710 310 L710 371 M519 310 Z" clip-path="url(#clipPath2)"/>
      <text x="519.2002" xml:space="preserve" y="323.7012" clip-path="url(#clipPath2)" font-family="sans-serif" stroke="none">Выполнение преобразований </text>
      <text x="522.5635" xml:space="preserve" y="337.6699" clip-path="url(#clipPath2)" font-family="sans-serif" stroke="none">над текстом (перевод букв в</text>
      <text x="528.2588" xml:space="preserve" y="351.6387" clip-path="url(#clipPath2)" font-family="sans-serif" stroke="none">нижний регистр, удаление</text>
      <text x="550.3545" xml:space="preserve" y="365.6074" clip-path="url(#clipPath2)" font-family="sans-serif" stroke="none">знаков препинания)</text>
    </g>
    <g text-rendering="geometricPrecision" stroke-miterlimit="1.45" shape-rendering="geometricPrecision" transform="matrix(1,0,0,1,-494,-121)" stroke-linecap="butt">
      <path fill="none" d="M519 446 L710 446 L720 456 L720 507 L509 507 L509 456 Z" clip-path="url(#clipPath2)"/>
      <text x="543.335" xml:space="preserve" y="480.6543" clip-path="url(#clipPath2)" font-family="sans-serif" stroke="none">Цикл по i от 0 до m - 1</text>
    </g>
    <g text-rendering="geometricPrecision" stroke-miterlimit="1.45" shape-rendering="geometricPrecision" transform="matrix(1,0,0,1,-494,-121)" stroke-linecap="butt">
      <rect fill="none" x="509" width="211" height="61" y="514" clip-path="url(#clipPath2)"/>
      <path fill="none" d="M519 514 L519 575 M710 514 L710 575 M519 514 Z" clip-path="url(#clipPath2)"/>
      <text x="523.8936" xml:space="preserve" y="548.6543" clip-path="url(#clipPath2)" font-family="sans-serif" stroke="none">Обработка i-й строки текста</text>
    </g>
    <g text-rendering="geometricPrecision" stroke-miterlimit="1.45" shape-rendering="geometricPrecision" transform="matrix(1,0,0,1,-494,-121)" stroke-linecap="butt">
      <path fill="none" d="M509 378 L720 378 L720 439 L509 439 Z" clip-path="url(#clipPath2)"/>
      <text x="534.2881" xml:space="preserve" y="398.6855" clip-path="url(#clipPath2)" font-family="sans-serif" stroke="none">dictCntNgram - словарь с </text>
      <text x="524.8047" xml:space="preserve" y="412.6543" clip-path="url(#clipPath2)" font-family="sans-serif" stroke="none">количеством употреблений </text>
      <text x="588.1562" xml:space="preserve" y="426.623" clip-path="url(#clipPath2)" font-family="sans-serif" stroke="none">N-грамм</text>
    </g>
    <g text-rendering="geometricPrecision" stroke-miterlimit="1.45" shape-rendering="geometricPrecision" transform="matrix(1,0,0,1,-494,-121)" stroke-linecap="butt">
      <path fill="none" d="M509 582 L720 582 L720 633 L710 643 L519 643 L509 633 Z" clip-path="url(#clipPath2)"/>
      <text x="560.7695" xml:space="preserve" y="616.6543" clip-path="url(#clipPath2)" font-family="sans-serif" stroke="none">Конец цикла по i</text>
    </g>
    <g text-rendering="geometricPrecision" stroke-miterlimit="1.45" shape-rendering="geometricPrecision" transform="matrix(1,0,0,1,-494,-121)" stroke-linecap="butt">
      <path fill="none" d="M519 650 L710 650 L720 660 L720 711 L509 711 L509 660 Z" clip-path="url(#clipPath2)"/>
      <text x="522.6777" xml:space="preserve" y="677.6699" clip-path="url(#clipPath2)" font-family="sans-serif" stroke="none">Цикл по количеству N-грамм</text>
      <text x="610.6973" xml:space="preserve" y="691.6387" clip-path="url(#clipPath2)" font-family="sans-serif" stroke="none">n</text>
    </g>
    <g text-rendering="geometricPrecision" stroke-miterlimit="1.45" shape-rendering="geometricPrecision" transform="matrix(1,0,0,1,-494,-121)" stroke-linecap="butt">
      <path fill="none" d="M509 786 L720 786 L720 837 L710 847 L519 847 L509 837 Z" clip-path="url(#clipPath2)"/>
      <text x="560.7695" xml:space="preserve" y="820.6543" clip-path="url(#clipPath2)" font-family="sans-serif" stroke="none">Конец цикла по i</text>
    </g>
    <g text-rendering="geometricPrecision" stroke-miterlimit="1.45" shape-rendering="geometricPrecision" transform="matrix(1,0,0,1,-494,-121)" stroke-linecap="butt">
      <rect x="509" y="854" clip-path="url(#clipPath2)" fill="none" width="211" rx="33" ry="33" height="66"/>
      <text x="594.8711" xml:space="preserve" y="891.1543" clip-path="url(#clipPath2)" font-family="sans-serif" stroke="none">Конец</text>
    </g>
    <g text-rendering="geometricPrecision" stroke-miterlimit="1.45" shape-rendering="geometricPrecision" transform="matrix(1,0,0,1,-494,-121)" stroke-linecap="butt">
      <rect fill="none" x="509" width="211" height="61" y="718" clip-path="url(#clipPath2)"/>
      <path fill="none" d="M519 718 L519 779 M710 718 L710 779 M519 718 Z" clip-path="url(#clipPath2)"/>
      <text x="551.6172" xml:space="preserve" y="731.7012" clip-path="url(#clipPath2)" font-family="sans-serif" stroke="none">Запись N-граммы и </text>
      <text x="567.0361" xml:space="preserve" y="745.6699" clip-path="url(#clipPath2)" font-family="sans-serif" stroke="none">количество ее </text>
      <text x="562.3516" xml:space="preserve" y="759.6387" clip-path="url(#clipPath2)" font-family="sans-serif" stroke="none">употребления в </text>
      <text x="570.4316" xml:space="preserve" y="773.6074" clip-path="url(#clipPath2)" font-family="sans-serif" stroke="none">файл-словарь</text>
    </g>
    <g text-rendering="geometricPrecision" stroke-miterlimit="1.45" shape-rendering="geometricPrecision" transform="matrix(1,0,0,1,-494,-121)" stroke-linecap="butt">
      <rect fill="none" x="509" width="211" height="61" y="242" clip-path="url(#clipPath2)"/>
      <path fill="none" d="M519 242 L519 303 M710 242 L710 303 M519 242 Z" clip-path="url(#clipPath2)"/>
      <text x="550.8115" xml:space="preserve" y="269.6699" clip-path="url(#clipPath2)" font-family="sans-serif" stroke="none">Считывание текста </text>
      <text x="567.0156" xml:space="preserve" y="283.6387" clip-path="url(#clipPath2)" font-family="sans-serif" stroke="none">в массив строк</text>
    </g>
    <g text-rendering="geometricPrecision" stroke-miterlimit="1.45" stroke-dasharray="6,2" shape-rendering="geometricPrecision" transform="matrix(1,0,0,1,-494,-121)" stroke-linecap="butt">
      <path fill="none" d="M791.9854 202 L720.012 202" clip-path="url(#clipPath2)"/>
    </g>
    <g text-rendering="geometricPrecision" stroke-miterlimit="1.45" shape-rendering="geometricPrecision" transform="matrix(1,0,0,1,-494,-121)" stroke-linecap="butt">
      <path fill="none" d="M614.5 507.0137 L614.5 514.0057" clip-path="url(#clipPath2)"/>
      <path fill="none" d="M614.5 371.0137 L614.5 378.0057" clip-path="url(#clipPath2)"/>
      <path fill="none" d="M614.5 439.0137 L614.5 446.0057" clip-path="url(#clipPath2)"/>
      <path fill="none" d="M614.5 575.0137 L614.5 582.0057" clip-path="url(#clipPath2)"/>
      <path fill="none" d="M614.5 643.0137 L614.5 650.0057" clip-path="url(#clipPath2)"/>
      <path fill="none" d="M614.5 847.0339 L614.5 854.0202" clip-path="url(#clipPath2)"/>
      <path fill="none" d="M614.5 711.0137 L614.5 718.0057" clip-path="url(#clipPath2)"/>
      <path fill="none" d="M614.5 779.0137 L614.5 786.0057" clip-path="url(#clipPath2)"/>
      <path fill="none" d="M614.5 235.0125 L614.5 242.0048" clip-path="url(#clipPath2)"/>
      <path fill="none" d="M614.5 303.0137 L614.5 310.0057" clip-path="url(#clipPath2)"/>
    </g>
  </g>
</svg>
