<?xml version="1.0" encoding="UTF-8"?><svg xmlns="http://www.w3.org/2000/svg" xmlns:xlink="http://www.w3.org/1999/xlink" fill-opacity="1" color-rendering="auto" color-interpolation="auto" text-rendering="auto" stroke="black" stroke-linecap="square" width="532" stroke-miterlimit="10" shape-rendering="auto" stroke-opacity="1" fill="black" stroke-dasharray="none" font-weight="normal" stroke-width="1" height="919" font-family="'Dialog'" font-style="normal" stroke-linejoin="miter" font-size="12px" stroke-dashoffset="0" image-rendering="auto">
  <!--Generated by ySVG 2.6-->
  <defs id="genericDefs"/>
  <g>
    <defs id="defs1">
      <clipPath clipPathUnits="userSpaceOnUse" id="clipPath1">
        <path d="M0 0 L532 0 L532 919 L0 919 L0 0 Z"/>
      </clipPath>
      <clipPath clipPathUnits="userSpaceOnUse" id="clipPath2">
        <path d="M569 150 L1101 150 L1101 1069 L569 1069 L569 150 Z"/>
      </clipPath>
    </defs>
    <g fill="white" text-rendering="geometricPrecision" shape-rendering="geometricPrecision" transform="translate(-569,-150)" stroke="white">
      <rect x="569" width="532" height="919" y="150" clip-path="url(#clipPath2)" stroke="none"/>
    </g>
    <g text-rendering="geometricPrecision" stroke-miterlimit="1.45" shape-rendering="geometricPrecision" transform="matrix(1,0,0,1,-569,-150)" stroke-linecap="butt">
      <rect x="584" y="186" clip-path="url(#clipPath2)" fill="none" width="203" rx="30" ry="30" height="60"/>
      <text x="662.584" xml:space="preserve" y="220.1543" clip-path="url(#clipPath2)" font-family="sans-serif" stroke="none">Начало</text>
    </g>
    <g text-rendering="geometricPrecision" stroke-miterlimit="1.45" shape-rendering="geometricPrecision" transform="matrix(1,0,0,1,-569,-150)" stroke-linecap="butt">
      <path fill="none" d="M865 165 L845 165 L845 267 L865 267" clip-path="url(#clipPath2)"/>
      <text x="861.4199" xml:space="preserve" y="185.2324" clip-path="url(#clipPath2)" font-family="sans-serif" stroke="none">bucketSort</text>
      <text x="861.4199" xml:space="preserve" y="199.2012" clip-path="url(#clipPath2)" font-family="sans-serif" stroke="none">Вход:</text>
      <text x="861.4199" xml:space="preserve" y="213.1699" clip-path="url(#clipPath2)" font-family="sans-serif" stroke="none">Массив A размера N</text>
      <text x="861.4199" xml:space="preserve" y="227.1387" clip-path="url(#clipPath2)" font-family="sans-serif" stroke="none">Выход:</text>
      <text x="861.4199" xml:space="preserve" y="241.1074" clip-path="url(#clipPath2)" font-family="sans-serif" stroke="none">Отсортированный</text>
      <text x="861.4199" xml:space="preserve" y="255.0762" clip-path="url(#clipPath2)" font-family="sans-serif" stroke="none">массив A размера N</text>
    </g>
    <g text-rendering="geometricPrecision" stroke-miterlimit="1.45" shape-rendering="geometricPrecision" transform="matrix(1,0,0,1,-569,-150)" stroke-linecap="butt">
      <path fill="none" d="M584 462 L787 462 L787 522 L584 522 Z" clip-path="url(#clipPath2)"/>
      <text x="609.9873" xml:space="preserve" y="489.1699" clip-path="url(#clipPath2)" font-family="sans-serif" stroke="none">Создать массив buckets</text>
      <text x="658.5615" xml:space="preserve" y="503.1387" clip-path="url(#clipPath2)" font-family="sans-serif" stroke="none">длины N</text>
    </g>
    <g text-rendering="geometricPrecision" stroke-miterlimit="1.45" shape-rendering="geometricPrecision" transform="matrix(1,0,0,1,-569,-150)" stroke-linecap="butt">
      <path fill="none" d="M584 393 L787 393 L787 453 L584 453 Z" clip-path="url(#clipPath2)"/>
      <text x="635.0596" xml:space="preserve" y="420.1699" clip-path="url(#clipPath2)" font-family="sans-serif" stroke="none">bucketRange := </text>
      <text x="606.5508" xml:space="preserve" y="434.1387" clip-path="url(#clipPath2)" font-family="sans-serif" stroke="none">(maxVal - minVal) / N + 1;</text>
    </g>
    <g text-rendering="geometricPrecision" stroke-miterlimit="1.45" shape-rendering="geometricPrecision" transform="matrix(1,0,0,1,-569,-150)" stroke-linecap="butt">
      <rect fill="none" x="584" width="203" height="60" y="324" clip-path="url(#clipPath2)"/>
      <path fill="none" d="M594 324 L594 384 M777 324 L777 384 M594 324 Z" clip-path="url(#clipPath2)"/>
      <text x="635.2588" xml:space="preserve" y="351.1699" clip-path="url(#clipPath2)" font-family="sans-serif" stroke="none">Найти минимум</text>
      <text x="625.4473" xml:space="preserve" y="365.1387" clip-path="url(#clipPath2)" font-family="sans-serif" stroke="none">minVal в массиве А</text>
    </g>
    <g text-rendering="geometricPrecision" stroke-miterlimit="1.45" shape-rendering="geometricPrecision" transform="matrix(1,0,0,1,-569,-150)" stroke-linecap="butt">
      <rect fill="none" x="584" width="203" height="60" y="255" clip-path="url(#clipPath2)"/>
      <path fill="none" d="M594 255 L594 315 M777 255 L777 315 M594 255 Z" clip-path="url(#clipPath2)"/>
      <text x="632.4814" xml:space="preserve" y="282.1699" clip-path="url(#clipPath2)" font-family="sans-serif" stroke="none">Найти максимум</text>
      <text x="623.6895" xml:space="preserve" y="296.1387" clip-path="url(#clipPath2)" font-family="sans-serif" stroke="none">maxVal в массиве А</text>
    </g>
    <g text-rendering="geometricPrecision" stroke-miterlimit="1.45" shape-rendering="geometricPrecision" transform="matrix(1,0,0,1,-569,-150)" stroke-linecap="butt">
      <path fill="none" d="M594 531 L777 531 L787 541 L787 591 L584 591 L584 541 Z" clip-path="url(#clipPath2)"/>
      <text x="625.4883" xml:space="preserve" y="558.1699" clip-path="url(#clipPath2)" font-family="sans-serif" stroke="none">Цикл по i от 0 до N</text>
      <text x="654.0527" xml:space="preserve" y="572.1387" clip-path="url(#clipPath2)" font-family="sans-serif" stroke="none">c шагом 1</text>
    </g>
    <g text-rendering="geometricPrecision" stroke-miterlimit="1.45" shape-rendering="geometricPrecision" transform="matrix(1,0,0,1,-569,-150)" stroke-linecap="butt">
      <path fill="none" d="M584 600 L787 600 L787 660 L584 660 Z" clip-path="url(#clipPath2)"/>
      <text x="637.585" xml:space="preserve" y="627.1699" clip-path="url(#clipPath2)" font-family="sans-serif" stroke="none">bucketIndex := </text>
      <text x="596.1885" xml:space="preserve" y="641.1387" clip-path="url(#clipPath2)" font-family="sans-serif" stroke="none">(А[i] - minVal) / bucketRange;</text>
    </g>
    <g text-rendering="geometricPrecision" stroke-miterlimit="1.45" shape-rendering="geometricPrecision" transform="matrix(1,0,0,1,-569,-150)" stroke-linecap="butt">
      <path fill="none" d="M584 669 L787 669 L787 729 L584 729 Z" clip-path="url(#clipPath2)"/>
      <text x="598.4209" xml:space="preserve" y="696.1699" clip-path="url(#clipPath2)" font-family="sans-serif" stroke="none">Добавить A[i] в блок bucket</text>
      <text x="610.9043" xml:space="preserve" y="710.1387" clip-path="url(#clipPath2)" font-family="sans-serif" stroke="none">по индексу bucketIndex</text>
    </g>
    <g text-rendering="geometricPrecision" stroke-miterlimit="1.45" shape-rendering="geometricPrecision" transform="matrix(1,0,0,1,-569,-150)" stroke-linecap="butt">
      <path fill="none" d="M584 738 L787 738 L787 788 L777 798 L594 798 L584 788 Z" clip-path="url(#clipPath2)"/>
      <text x="631.7695" xml:space="preserve" y="772.1543" clip-path="url(#clipPath2)" font-family="sans-serif" stroke="none">Конец цикла по i</text>
    </g>
    <g text-rendering="geometricPrecision" stroke-miterlimit="1.45" shape-rendering="geometricPrecision" transform="matrix(1,0,0,1,-569,-150)" stroke-linecap="butt">
      <path fill="none" d="M594 807 L777 807 L787 817 L787 867 L584 867 L584 817 Z" clip-path="url(#clipPath2)"/>
      <text x="625.4883" xml:space="preserve" y="834.1699" clip-path="url(#clipPath2)" font-family="sans-serif" stroke="none">Цикл по i от 0 до N</text>
      <text x="654.0527" xml:space="preserve" y="848.1387" clip-path="url(#clipPath2)" font-family="sans-serif" stroke="none">c шагом 1</text>
    </g>
    <g text-rendering="geometricPrecision" stroke-miterlimit="1.45" shape-rendering="geometricPrecision" transform="matrix(1,0,0,1,-569,-150)" stroke-linecap="butt">
      <path fill="none" d="M584 876 L787 876 L787 936 L584 936 Z" clip-path="url(#clipPath2)"/>
      <text x="605.3701" xml:space="preserve" y="903.1699" clip-path="url(#clipPath2)" font-family="sans-serif" stroke="none">Сортировка блока bucket</text>
      <text x="646.2891" xml:space="preserve" y="917.1387" clip-path="url(#clipPath2)" font-family="sans-serif" stroke="none">по индексу i</text>
    </g>
    <g text-rendering="geometricPrecision" stroke-miterlimit="1.45" shape-rendering="geometricPrecision" transform="matrix(1,0,0,1,-569,-150)" stroke-linecap="butt">
      <path fill="none" d="M584 945 L787 945 L787 995 L777 1005 L594 1005 L584 995 Z" clip-path="url(#clipPath2)"/>
      <text x="631.7695" xml:space="preserve" y="979.1543" clip-path="url(#clipPath2)" font-family="sans-serif" stroke="none">Конец цикла по i</text>
    </g>
    <g text-rendering="geometricPrecision" stroke-miterlimit="1.45" shape-rendering="geometricPrecision" transform="matrix(1,0,0,1,-569,-150)" stroke-linecap="butt">
      <path fill="none" d="M892.688 393 L1075.688 393 L1085.688 403 L1085.688 453 L882.688 453 L882.688 403 Z" clip-path="url(#clipPath2)"/>
      <text x="924.1763" xml:space="preserve" y="420.1699" clip-path="url(#clipPath2)" font-family="sans-serif" stroke="none">Цикл по i от 0 до N</text>
      <text x="952.7407" xml:space="preserve" y="434.1387" clip-path="url(#clipPath2)" font-family="sans-serif" stroke="none">c шагом 1</text>
    </g>
    <g text-rendering="geometricPrecision" stroke-miterlimit="1.45" shape-rendering="geometricPrecision" transform="matrix(1,0,0,1,-569,-150)" stroke-linecap="butt">
      <path fill="none" d="M882.688 738 L1085.688 738 L1085.688 788 L1075.688 798 L892.688 798 L882.688 788 Z" clip-path="url(#clipPath2)"/>
      <text x="930.4575" xml:space="preserve" y="772.1543" clip-path="url(#clipPath2)" font-family="sans-serif" stroke="none">Конец цикла по j</text>
    </g>
    <g text-rendering="geometricPrecision" stroke-miterlimit="1.45" shape-rendering="geometricPrecision" transform="matrix(1,0,0,1,-569,-150)" stroke-linecap="butt">
      <circle fill="none" r="20" clip-path="url(#clipPath2)" cx="685.5" cy="1034"/>
      <text x="681.3955" xml:space="preserve" y="1038.1543" clip-path="url(#clipPath2)" font-family="sans-serif" stroke="none">A</text>
    </g>
    <g text-rendering="geometricPrecision" stroke-miterlimit="1.45" shape-rendering="geometricPrecision" transform="matrix(1,0,0,1,-569,-150)" stroke-linecap="butt">
      <circle fill="none" r="20" clip-path="url(#clipPath2)" cx="984.188" cy="295"/>
      <text x="980.0835" xml:space="preserve" y="299.1543" clip-path="url(#clipPath2)" font-family="sans-serif" stroke="none">A</text>
    </g>
    <g text-rendering="geometricPrecision" stroke-miterlimit="1.45" shape-rendering="geometricPrecision" transform="matrix(1,0,0,1,-569,-150)" stroke-linecap="butt">
      <path fill="none" d="M892.688 531 L1075.688 531 L1085.688 541 L1085.688 591 L882.688 591 L882.688 541 Z" clip-path="url(#clipPath2)"/>
      <text x="923.4878" xml:space="preserve" y="558.1699" clip-path="url(#clipPath2)" font-family="sans-serif" stroke="none">Цикл по j от 0 до M</text>
      <text x="952.7407" xml:space="preserve" y="572.1387" clip-path="url(#clipPath2)" font-family="sans-serif" stroke="none">c шагом 1</text>
    </g>
    <g text-rendering="geometricPrecision" stroke-miterlimit="1.45" shape-rendering="geometricPrecision" transform="matrix(1,0,0,1,-569,-150)" stroke-linecap="butt">
      <path fill="none" d="M882.688 462 L1085.688 462 L1085.688 522 L882.688 522 Z" clip-path="url(#clipPath2)"/>
      <text x="905.4644" xml:space="preserve" y="482.1855" clip-path="url(#clipPath2)" font-family="sans-serif" stroke="none">Вычисление количества </text>
      <text x="895.2339" xml:space="preserve" y="496.1543" clip-path="url(#clipPath2)" font-family="sans-serif" stroke="none">элементов М в блоке bucket</text>
      <text x="944.6255" xml:space="preserve" y="510.123" clip-path="url(#clipPath2)" font-family="sans-serif" stroke="none">с индексом i</text>
    </g>
    <g text-rendering="geometricPrecision" stroke-miterlimit="1.45" shape-rendering="geometricPrecision" transform="matrix(1,0,0,1,-569,-150)" stroke-linecap="butt">
      <path fill="none" d="M882.688 600 L1085.688 600 L1085.688 660 L882.688 660 Z" clip-path="url(#clipPath2)"/>
      <text x="911.7661" xml:space="preserve" y="634.1543" clip-path="url(#clipPath2)" font-family="sans-serif" stroke="none">A[index] = buckets[i][j];</text>
    </g>
    <g text-rendering="geometricPrecision" stroke-miterlimit="1.45" shape-rendering="geometricPrecision" transform="matrix(1,0,0,1,-569,-150)" stroke-linecap="butt">
      <path fill="none" d="M882.688 807 L1085.688 807 L1085.688 857 L1075.688 867 L892.688 867 L882.688 857 Z" clip-path="url(#clipPath2)"/>
      <text x="930.4575" xml:space="preserve" y="841.1543" clip-path="url(#clipPath2)" font-family="sans-serif" stroke="none">Конец цикла по i</text>
    </g>
    <g text-rendering="geometricPrecision" stroke-miterlimit="1.45" shape-rendering="geometricPrecision" transform="matrix(1,0,0,1,-569,-150)" stroke-linecap="butt">
      <path fill="none" d="M882.688 324 L1085.688 324 L1085.688 384 L882.688 384 Z" clip-path="url(#clipPath2)"/>
      <text x="952.9868" xml:space="preserve" y="358.1543" clip-path="url(#clipPath2)" font-family="sans-serif" stroke="none">index := 0</text>
    </g>
    <g text-rendering="geometricPrecision" stroke-miterlimit="1.45" shape-rendering="geometricPrecision" transform="matrix(1,0,0,1,-569,-150)" stroke-linecap="butt">
      <path fill="none" d="M882.688 669 L1085.688 669 L1085.688 729 L882.688 729 Z" clip-path="url(#clipPath2)"/>
      <text x="927.6245" xml:space="preserve" y="703.1543" clip-path="url(#clipPath2)" font-family="sans-serif" stroke="none">index := index + 1</text>
    </g>
    <g text-rendering="geometricPrecision" stroke-miterlimit="1.45" shape-rendering="geometricPrecision" transform="matrix(1,0,0,1,-569,-150)" stroke-linecap="butt">
      <rect x="882.688" y="876" clip-path="url(#clipPath2)" fill="none" width="203" rx="30" ry="30" height="60"/>
      <text x="964.5591" xml:space="preserve" y="910.1543" clip-path="url(#clipPath2)" font-family="sans-serif" stroke="none">Конец</text>
    </g>
    <g text-rendering="geometricPrecision" stroke-miterlimit="1.45" shape-rendering="geometricPrecision" transform="matrix(1,0,0,1,-569,-150)" stroke-linecap="butt">
      <path fill="none" d="M844.9815 216 L787.0059 216" clip-path="url(#clipPath2)"/>
    </g>
    <g text-rendering="geometricPrecision" stroke-miterlimit="1.45" shape-rendering="geometricPrecision" transform="matrix(1,0,0,1,-569,-150)" stroke-linecap="butt">
      <path fill="none" d="M685.5 453.019 L685.5 461.9649" clip-path="url(#clipPath2)"/>
      <path fill="none" d="M685.5 384.019 L685.5 392.9649" clip-path="url(#clipPath2)"/>
      <path fill="none" d="M685.5 246.019 L685.5 254.9649" clip-path="url(#clipPath2)"/>
      <path fill="none" d="M685.5 315.019 L685.5 323.9649" clip-path="url(#clipPath2)"/>
      <path fill="none" d="M685.5 522.019 L685.5 530.9648" clip-path="url(#clipPath2)"/>
      <path fill="none" d="M685.5 591.019 L685.5 599.9648" clip-path="url(#clipPath2)"/>
      <path fill="none" d="M685.5 660.019 L685.5 668.9648" clip-path="url(#clipPath2)"/>
      <path fill="none" d="M685.5 729.019 L685.5 737.9648" clip-path="url(#clipPath2)"/>
      <path fill="none" d="M685.5 798.019 L685.5 806.9648" clip-path="url(#clipPath2)"/>
      <path fill="none" d="M685.5 867.019 L685.5 875.9648" clip-path="url(#clipPath2)"/>
      <path fill="none" d="M685.5 936.019 L685.5 944.9648" clip-path="url(#clipPath2)"/>
      <path fill="none" d="M685.5 1004.9897 L685.5 1014.0271" clip-path="url(#clipPath2)"/>
      <path fill="none" d="M984.188 453.019 L984.188 461.9649" clip-path="url(#clipPath2)"/>
      <path fill="none" d="M984.188 522.019 L984.188 530.9648" clip-path="url(#clipPath2)"/>
      <path fill="none" d="M984.188 591.019 L984.188 599.9648" clip-path="url(#clipPath2)"/>
      <path fill="none" d="M984.188 798.019 L984.188 806.9648" clip-path="url(#clipPath2)"/>
      <path fill="none" d="M984.188 315.022 L984.188 323.9671" clip-path="url(#clipPath2)"/>
      <path fill="none" d="M984.188 384.019 L984.188 392.9649" clip-path="url(#clipPath2)"/>
      <path fill="none" d="M984.188 660.019 L984.188 668.9648" clip-path="url(#clipPath2)"/>
      <path fill="none" d="M984.188 729.019 L984.188 737.9648" clip-path="url(#clipPath2)"/>
      <path fill="none" d="M984.188 867.019 L984.188 875.9648" clip-path="url(#clipPath2)"/>
    </g>
  </g>
</svg>
