<?xml version="1.0" encoding="UTF-8"?><svg xmlns="http://www.w3.org/2000/svg" xmlns:xlink="http://www.w3.org/1999/xlink" fill-opacity="1" color-rendering="auto" color-interpolation="auto" text-rendering="auto" stroke="black" stroke-linecap="square" width="559" stroke-miterlimit="10" shape-rendering="auto" stroke-opacity="1" fill="black" stroke-dasharray="none" font-weight="normal" stroke-width="1" height="876" font-family="'Dialog'" font-style="normal" stroke-linejoin="miter" font-size="12px" stroke-dashoffset="0" image-rendering="auto">
  <!--Generated by ySVG 2.6-->
  <defs id="genericDefs"/>
  <g>
    <defs id="defs1">
      <clipPath clipPathUnits="userSpaceOnUse" id="clipPath1">
        <path d="M0 0 L559 0 L559 876 L0 876 L0 0 Z"/>
      </clipPath>
      <clipPath clipPathUnits="userSpaceOnUse" id="clipPath2">
        <path d="M100 -42 L659 -42 L659 834 L100 834 L100 -42 Z"/>
      </clipPath>
    </defs>
    <g fill="white" text-rendering="geometricPrecision" shape-rendering="geometricPrecision" transform="translate(-100,42)" stroke="white">
      <rect x="100" width="559" height="876" y="-42" clip-path="url(#clipPath2)" stroke="none"/>
    </g>
    <g text-rendering="geometricPrecision" stroke-miterlimit="1.45" shape-rendering="geometricPrecision" transform="matrix(1,0,0,1,-100,42)" stroke-linecap="butt">
      <path fill="none" d="M115.279 62.8022 L364.5399 62.8022 L364.5399 111.456 L115.279 111.456 Z" clip-path="url(#clipPath2)"/>
      <text x="176.3586" xml:space="preserve" y="77.3147" clip-path="url(#clipPath2)" font-family="sans-serif" stroke="none">Создать временный</text>
      <text x="194.0686" xml:space="preserve" y="91.2834" clip-path="url(#clipPath2)" font-family="sans-serif" stroke="none">массив output </text>
      <text x="200.7073" xml:space="preserve" y="105.2522" clip-path="url(#clipPath2)" font-family="sans-serif" stroke="none">размером N </text>
    </g>
    <g text-rendering="geometricPrecision" stroke-miterlimit="1.45" shape-rendering="geometricPrecision" transform="matrix(1,0,0,1,-100,42)" stroke-linecap="butt">
      <rect x="115.279" y="6.2912" clip-path="url(#clipPath2)" fill="none" width="249.2609" rx="24.3269" ry="24.3269" height="48.6538"/>
      <text x="216.9934" xml:space="preserve" y="34.7724" clip-path="url(#clipPath2)" font-family="sans-serif" stroke="none">Начало</text>
    </g>
    <g text-rendering="geometricPrecision" stroke-miterlimit="1.45" shape-rendering="geometricPrecision" transform="matrix(1,0,0,1,-100,42)" stroke-linecap="butt">
      <path fill="none" d="M115.279 317.8983 L364.5399 317.8983 L364.5399 356.5522 L354.5399 366.5522 L125.279 366.5522 L115.279 356.5522 Z" clip-path="url(#clipPath2)"/>
      <text x="186.1789" xml:space="preserve" y="346.3795" clip-path="url(#clipPath2)" font-family="sans-serif" stroke="none">Конец цикла по i</text>
    </g>
    <g text-rendering="geometricPrecision" stroke-miterlimit="1.45" shape-rendering="geometricPrecision" transform="matrix(1,0,0,1,-100,42)" stroke-linecap="butt">
      <path fill="none" d="M125.279 204.8764 L354.5399 204.8764 L364.5399 214.8764 L364.5399 253.5302 L115.279 253.5302 L115.279 214.8764 Z" clip-path="url(#clipPath2)"/>
      <text x="179.8977" xml:space="preserve" y="226.3732" clip-path="url(#clipPath2)" font-family="sans-serif" stroke="none">Цикл по i от 0 до N</text>
      <text x="208.4621" xml:space="preserve" y="240.3419" clip-path="url(#clipPath2)" font-family="sans-serif" stroke="none">с шагом 1</text>
    </g>
    <g text-rendering="geometricPrecision" stroke-miterlimit="1.45" shape-rendering="geometricPrecision" transform="matrix(1,0,0,1,-100,42)" stroke-linecap="butt">
      <rect x="115.279" y="769.9862" clip-path="url(#clipPath2)" fill="none" width="249.2609" rx="24.3269" ry="24.3269" height="48.6538"/>
      <text x="220.2805" xml:space="preserve" y="798.4673" clip-path="url(#clipPath2)" font-family="sans-serif" stroke="none">Конец</text>
    </g>
    <g text-rendering="geometricPrecision" stroke-miterlimit="1.45" shape-rendering="geometricPrecision" transform="matrix(1,0,0,1,-100,42)" stroke-linecap="butt">
      <path fill="none" d="M115.279 119.3132 L364.5399 119.3132 L364.5399 197.0192 L115.279 197.0192 Z" clip-path="url(#clipPath2)"/>
      <text x="171.0237" xml:space="preserve" y="134.383" clip-path="url(#clipPath2)" font-family="sans-serif" stroke="none">Создать массив count</text>
      <text x="184.0608" xml:space="preserve" y="148.3517" clip-path="url(#clipPath2)" font-family="sans-serif" stroke="none">размером 10 для </text>
      <text x="175.3244" xml:space="preserve" y="162.3205" clip-path="url(#clipPath2)" font-family="sans-serif" stroke="none">хранения количеств</text>
      <text x="184.5676" xml:space="preserve" y="176.2892" clip-path="url(#clipPath2)" font-family="sans-serif" stroke="none">каждой цифры в </text>
      <text x="165.5657" xml:space="preserve" y="190.258" clip-path="url(#clipPath2)" font-family="sans-serif" stroke="none">определенном разряде</text>
    </g>
    <g text-rendering="geometricPrecision" stroke-miterlimit="1.45" shape-rendering="geometricPrecision" transform="matrix(1,0,0,1,-100,42)" stroke-linecap="butt">
      <path fill="none" d="M115.279 261.3873 L364.5399 261.3873 L364.5399 310.0412 L115.279 310.0412 Z" clip-path="url(#clipPath2)"/>
      <text x="155.6662" xml:space="preserve" y="282.8842" clip-path="url(#clipPath2)" font-family="sans-serif" stroke="none">count[(arr[i] / exp) % 10] :=</text>
      <text x="151.9631" xml:space="preserve" y="296.8529" clip-path="url(#clipPath2)" font-family="sans-serif" stroke="none">count[(arr[i] / exp) % 10] + 1</text>
    </g>
    <g text-rendering="geometricPrecision" stroke-miterlimit="1.45" shape-rendering="geometricPrecision" transform="matrix(1,0,0,1,-100,42)" stroke-linecap="butt">
      <path fill="none" d="M125.279 543.9423 L354.5399 543.9423 L364.5399 553.9423 L364.5399 592.5961 L115.279 592.5961 L115.279 553.9423 Z" clip-path="url(#clipPath2)"/>
      <text x="170.1008" xml:space="preserve" y="565.4391" clip-path="url(#clipPath2)" font-family="sans-serif" stroke="none">Цикл по i от N - 1 до 0</text>
      <text x="206.2971" xml:space="preserve" y="579.4078" clip-path="url(#clipPath2)" font-family="sans-serif" stroke="none">c шагом -1</text>
    </g>
    <g text-rendering="geometricPrecision" stroke-miterlimit="1.45" shape-rendering="geometricPrecision" transform="matrix(1,0,0,1,-100,42)" stroke-linecap="butt">
      <path fill="none" d="M115.279 713.4752 L364.5399 713.4752 L364.5399 752.129 L354.5399 762.129 L125.279 762.129 L115.279 752.129 Z" clip-path="url(#clipPath2)"/>
      <text x="186.1789" xml:space="preserve" y="741.9564" clip-path="url(#clipPath2)" font-family="sans-serif" stroke="none">Конец цикла по i</text>
    </g>
    <g text-rendering="geometricPrecision" stroke-miterlimit="1.45" shape-rendering="geometricPrecision" transform="matrix(1,0,0,1,-100,42)" stroke-linecap="butt">
      <path fill="none" d="M115.279 600.4532 L364.5399 600.4532 L364.5399 649.1071 L115.279 649.1071 Z" clip-path="url(#clipPath2)"/>
      <text x="121.3977" xml:space="preserve" y="614.9657" clip-path="url(#clipPath2)" font-family="sans-serif" stroke="none">output[count[(arr[i] / exp) % 10] - 1] :=</text>
      <text x="123.4192" xml:space="preserve" y="628.9344" clip-path="url(#clipPath2)" font-family="sans-serif" stroke="none">output[count[(arr[i] / exp) % 10] - 1] +</text>
      <text x="221.0217" xml:space="preserve" y="642.9032" clip-path="url(#clipPath2)" font-family="sans-serif" stroke="none"> arr[i];</text>
    </g>
    <g text-rendering="geometricPrecision" stroke-miterlimit="1.45" shape-rendering="geometricPrecision" transform="matrix(1,0,0,1,-100,42)" stroke-linecap="butt">
      <path fill="none" d="M115.279 656.9642 L364.5399 656.9642 L364.5399 705.618 L115.279 705.618 Z" clip-path="url(#clipPath2)"/>
      <text x="155.6662" xml:space="preserve" y="678.4611" clip-path="url(#clipPath2)" font-family="sans-serif" stroke="none">count[(arr[i] / exp) % 10] :=</text>
      <text x="154.8254" xml:space="preserve" y="692.4298" clip-path="url(#clipPath2)" font-family="sans-serif" stroke="none">count[(arr[i] / exp) % 10] - 1</text>
    </g>
    <g text-rendering="geometricPrecision" stroke-miterlimit="1.45" shape-rendering="geometricPrecision" transform="matrix(1,0,0,1,-100,42)" stroke-linecap="butt">
      <path fill="none" d="M439.6647 -26.7789 L410.5799 -26.7789 L410.5799 95.4327 L439.6647 95.4327" clip-path="url(#clipPath2)"/>
      <text x="425.2737" xml:space="preserve" y="-10.4094" clip-path="url(#clipPath2)" font-family="sans-serif" stroke="none">countSort - функция сортировки</text>
      <text x="425.2737" xml:space="preserve" y="3.5593" clip-path="url(#clipPath2)" font-family="sans-serif" stroke="none">по определенному разряду</text>
      <text x="425.2737" xml:space="preserve" y="17.5281" clip-path="url(#clipPath2)" font-family="sans-serif" stroke="none">Вход:</text>
      <text x="425.2737" xml:space="preserve" y="31.4968" clip-path="url(#clipPath2)" font-family="sans-serif" stroke="none">Массив A размера N</text>
      <text x="425.2737" xml:space="preserve" y="45.4656" clip-path="url(#clipPath2)" font-family="sans-serif" stroke="none">exp - число </text>
      <text x="425.2737" xml:space="preserve" y="59.4343" clip-path="url(#clipPath2)" font-family="sans-serif" stroke="none">Выход:</text>
      <text x="425.2737" xml:space="preserve" y="73.4031" clip-path="url(#clipPath2)" font-family="sans-serif" stroke="none">Отсортированный</text>
      <text x="425.2737" xml:space="preserve" y="87.3718" clip-path="url(#clipPath2)" font-family="sans-serif" stroke="none">массив A размера N</text>
    </g>
    <g text-rendering="geometricPrecision" stroke-miterlimit="1.45" shape-rendering="geometricPrecision" transform="matrix(1,0,0,1,-100,42)" stroke-linecap="butt">
      <path fill="none" d="M115.279 487.4312 L364.5399 487.4312 L364.5399 526.0851 L354.5399 536.0851 L125.279 536.0851 L115.279 526.0851 Z" clip-path="url(#clipPath2)"/>
      <text x="186.1789" xml:space="preserve" y="515.9125" clip-path="url(#clipPath2)" font-family="sans-serif" stroke="none">Конец цикла по i</text>
    </g>
    <g text-rendering="geometricPrecision" stroke-miterlimit="1.45" shape-rendering="geometricPrecision" transform="matrix(1,0,0,1,-100,42)" stroke-linecap="butt">
      <path fill="none" d="M125.279 374.4093 L354.5399 374.4093 L364.5399 384.4093 L364.5399 423.0631 L115.279 423.0631 L115.279 384.4093 Z" clip-path="url(#clipPath2)"/>
      <text x="176.7512" xml:space="preserve" y="395.9061" clip-path="url(#clipPath2)" font-family="sans-serif" stroke="none">Цикл по i от 1 до 10</text>
      <text x="208.4621" xml:space="preserve" y="409.8749" clip-path="url(#clipPath2)" font-family="sans-serif" stroke="none">с шагом 1</text>
    </g>
    <g text-rendering="geometricPrecision" stroke-miterlimit="1.45" shape-rendering="geometricPrecision" transform="matrix(1,0,0,1,-100,42)" stroke-linecap="butt">
      <path fill="none" d="M115.279 430.9203 L364.5399 430.9203 L364.5399 479.5741 L115.279 479.5741 Z" clip-path="url(#clipPath2)"/>
      <text x="205.7698" xml:space="preserve" y="452.4171" clip-path="url(#clipPath2)" font-family="sans-serif" stroke="none">count[i] := </text>
      <text x="174.718" xml:space="preserve" y="466.3859" clip-path="url(#clipPath2)" font-family="sans-serif" stroke="none">count[i] + count[i - 1]</text>
    </g>
    <g text-rendering="geometricPrecision" stroke-miterlimit="1.45" shape-rendering="geometricPrecision" transform="matrix(1,0,0,1,-100,42)" stroke-linecap="butt">
      <path fill="none" d="M239.9094 54.9278 L239.9094 62.8209" clip-path="url(#clipPath2)"/>
    </g>
    <g text-rendering="geometricPrecision" stroke-miterlimit="1.45" shape-rendering="geometricPrecision" transform="matrix(1,0,0,1,-100,42)" stroke-linecap="butt">
      <path fill="none" d="M239.9094 111.4441 L239.9094 119.3375" clip-path="url(#clipPath2)"/>
      <path fill="none" d="M239.9094 197.0493 L239.9094 204.868" clip-path="url(#clipPath2)"/>
      <path fill="none" d="M239.9094 253.5129 L239.9094 261.406" clip-path="url(#clipPath2)"/>
      <path fill="none" d="M239.9094 310.0239 L239.9094 317.917" clip-path="url(#clipPath2)"/>
      <path fill="none" d="M239.9094 762.1118 L239.9094 770.0048" clip-path="url(#clipPath2)"/>
      <path fill="none" d="M239.9094 592.5788 L239.9094 600.4719" clip-path="url(#clipPath2)"/>
      <path fill="none" d="M239.9094 649.0898 L239.9094 656.9829" clip-path="url(#clipPath2)"/>
      <path fill="none" d="M410.5667 32.8234 L364.5276 32.2285" clip-path="url(#clipPath2)"/>
      <path fill="none" d="M239.9094 536.0678 L239.9094 543.9609" clip-path="url(#clipPath2)"/>
      <path fill="none" d="M239.9094 366.5349 L239.9094 374.428" clip-path="url(#clipPath2)"/>
      <path fill="none" d="M239.9094 423.0459 L239.9094 430.939" clip-path="url(#clipPath2)"/>
      <path fill="none" d="M239.9094 479.5569 L239.9094 487.45" clip-path="url(#clipPath2)"/>
    </g>
  </g>
</svg>
