<?xml version="1.0" encoding="UTF-8"?><svg xmlns="http://www.w3.org/2000/svg" xmlns:xlink="http://www.w3.org/1999/xlink" fill-opacity="1" color-rendering="auto" color-interpolation="auto" text-rendering="auto" stroke="black" stroke-linecap="square" width="315" stroke-miterlimit="10" shape-rendering="auto" stroke-opacity="1" fill="black" stroke-dasharray="none" font-weight="normal" stroke-width="1" height="723" font-family="'Dialog'" font-style="normal" stroke-linejoin="miter" font-size="12px" stroke-dashoffset="0" image-rendering="auto">
  <!--Generated by ySVG 2.6-->
  <defs id="genericDefs"/>
  <g>
    <defs id="defs1">
      <clipPath clipPathUnits="userSpaceOnUse" id="clipPath1">
        <path d="M0 0 L315 0 L315 723 L0 723 L0 0 Z"/>
      </clipPath>
      <clipPath clipPathUnits="userSpaceOnUse" id="clipPath2">
        <path d="M523 75 L838 75 L838 798 L523 798 L523 75 Z"/>
      </clipPath>
    </defs>
    <g fill="white" text-rendering="geometricPrecision" shape-rendering="geometricPrecision" transform="translate(-523,-75)" stroke="white">
      <rect x="523" width="315" height="723" y="75" clip-path="url(#clipPath2)" stroke="none"/>
    </g>
    <g text-rendering="geometricPrecision" stroke-miterlimit="1.45" shape-rendering="geometricPrecision" transform="matrix(1,0,0,1,-523,-75)" stroke-linecap="butt">
      <path fill="none" d="M679 143.3333 L753.5 168.8333 L679 194.3333 L604.5 168.8333 Z" clip-path="url(#clipPath2)"/>
      <text x="632.7754" xml:space="preserve" y="172.9876" clip-path="url(#clipPath2)" font-family="sans-serif" stroke="none">i &lt; lengthLeft ?</text>
    </g>
    <g text-rendering="geometricPrecision" stroke-miterlimit="1.45" shape-rendering="geometricPrecision" transform="matrix(1,0,0,1,-523,-75)" stroke-linecap="butt">
      <path fill="none" d="M604.5 335.3333 L753.5 335.3333 L753.5 386.3333 L604.5 386.3333 Z" clip-path="url(#clipPath2)"/>
      <text x="648.5283" xml:space="preserve" y="364.9876" clip-path="url(#clipPath2)" font-family="sans-serif" stroke="none">k := k + 1</text>
    </g>
    <g text-rendering="geometricPrecision" stroke-miterlimit="1.45" shape-rendering="geometricPrecision" transform="matrix(1,0,0,1,-523,-75)" stroke-linecap="butt">
      <circle fill="none" r="20" clip-path="url(#clipPath2)" cx="679" cy="110.3333"/>
      <text x="674.8955" xml:space="preserve" y="114.4876" clip-path="url(#clipPath2)" font-family="sans-serif" stroke="none">А</text>
    </g>
    <g text-rendering="geometricPrecision" stroke-miterlimit="1.45" shape-rendering="geometricPrecision" transform="matrix(1,0,0,1,-523,-75)" stroke-linecap="butt">
      <path fill="none" d="M604.5 207.3333 L753.5 207.3333 L753.5 258.3333 L604.5 258.3333 Z" clip-path="url(#clipPath2)"/>
      <text x="631.4395" xml:space="preserve" y="236.9876" clip-path="url(#clipPath2)" font-family="sans-serif" stroke="none">A[k] = arrLeft[i]</text>
    </g>
    <g text-rendering="geometricPrecision" stroke-miterlimit="1.45" shape-rendering="geometricPrecision" transform="matrix(1,0,0,1,-523,-75)" stroke-linecap="butt">
      <path fill="none" d="M604.5 271.3333 L753.5 271.3333 L753.5 322.3333 L604.5 322.3333 Z" clip-path="url(#clipPath2)"/>
      <text x="652.1436" xml:space="preserve" y="300.9876" clip-path="url(#clipPath2)" font-family="sans-serif" stroke="none">i := i + 1</text>
    </g>
    <g text-rendering="geometricPrecision" stroke-miterlimit="1.45" shape-rendering="geometricPrecision" transform="matrix(1,0,0,1,-523,-75)" stroke-linecap="butt">
      <path fill="none" d="M679 434.6667 L753.5 460.1667 L679 485.6667 L604.5 460.1667 Z" clip-path="url(#clipPath2)"/>
      <text x="628.4746" xml:space="preserve" y="464.321" clip-path="url(#clipPath2)" font-family="sans-serif" stroke="none">j &lt; lengthRight ?</text>
    </g>
    <g text-rendering="geometricPrecision" stroke-miterlimit="1.45" shape-rendering="geometricPrecision" transform="matrix(1,0,0,1,-523,-75)" stroke-linecap="butt">
      <path fill="none" d="M604.5 626.6667 L753.5 626.6667 L753.5 677.6667 L604.5 677.6667 Z" clip-path="url(#clipPath2)"/>
      <text x="648.5283" xml:space="preserve" y="656.321" clip-path="url(#clipPath2)" font-family="sans-serif" stroke="none">k := k + 1</text>
    </g>
    <g text-rendering="geometricPrecision" stroke-miterlimit="1.45" shape-rendering="geometricPrecision" transform="matrix(1,0,0,1,-523,-75)" stroke-linecap="butt">
      <path fill="none" d="M604.5 498.6667 L753.5 498.6667 L753.5 549.6667 L604.5 549.6667 Z" clip-path="url(#clipPath2)"/>
      <text x="627.1387" xml:space="preserve" y="528.321" clip-path="url(#clipPath2)" font-family="sans-serif" stroke="none">A[k] = arrRight[j]</text>
    </g>
    <g text-rendering="geometricPrecision" stroke-miterlimit="1.45" shape-rendering="geometricPrecision" transform="matrix(1,0,0,1,-523,-75)" stroke-linecap="butt">
      <path fill="none" d="M604.5 562.6667 L753.5 562.6667 L753.5 613.6667 L604.5 613.6667 Z" clip-path="url(#clipPath2)"/>
      <text x="652.1436" xml:space="preserve" y="592.321" clip-path="url(#clipPath2)" font-family="sans-serif" stroke="none">j := j + 1</text>
    </g>
    <g text-rendering="geometricPrecision" stroke-miterlimit="1.45" shape-rendering="geometricPrecision" transform="matrix(1,0,0,1,-523,-75)" stroke-linecap="butt">
      <rect x="604.5" y="731.3333" clip-path="url(#clipPath2)" fill="none" width="149" rx="25.5" ry="25.5" height="51"/>
      <text x="659.3711" xml:space="preserve" y="760.9876" clip-path="url(#clipPath2)" font-family="sans-serif" stroke="none">Конец</text>
    </g>
    <g text-rendering="geometricPrecision" stroke-miterlimit="1.45" shape-rendering="geometricPrecision" transform="matrix(1,0,0,1,-523,-75)" stroke-linecap="butt">
      <path fill="none" d="M679 386.3027 L679 404.6664 L538.6336 404.6664 L538.6336 168.8333 L604.5332 168.8333" clip-path="url(#clipPath2)"/>
    </g>
    <g text-rendering="geometricPrecision" stroke-miterlimit="1.45" shape-rendering="geometricPrecision" transform="matrix(1,0,0,1,-523,-75)" stroke-linecap="butt">
      <path fill="none" d="M679 130.357 L679 143.3202" clip-path="url(#clipPath2)"/>
      <path fill="none" d="M679 194.3021 L679 207.3591" clip-path="url(#clipPath2)"/>
      <text x="682" xml:space="preserve" y="204.9876" clip-path="url(#clipPath2)" font-family="sans-serif" stroke="none">Да</text>
      <path fill="none" d="M679 258.3646 L679 271.3253" clip-path="url(#clipPath2)"/>
      <path fill="none" d="M679 322.3646 L679 335.3253" clip-path="url(#clipPath2)"/>
      <path fill="none" d="M753.4961 168.8333 L823 168.8333 L823 423.3333 L679 423.3333 L679 434.6639" clip-path="url(#clipPath2)"/>
      <path fill="none" d="M679 677.636 L679 695.9997 L538.6336 695.9997 L538.6336 460.1667 L604.5332 460.1667" clip-path="url(#clipPath2)"/>
      <path fill="none" d="M679 485.6354 L679 498.6924" clip-path="url(#clipPath2)"/>
      <text x="684.4502" xml:space="preserve" y="496.321" clip-path="url(#clipPath2)" font-family="sans-serif" stroke="none">Да</text>
      <path fill="none" d="M679 549.6979 L679 562.6586" clip-path="url(#clipPath2)"/>
      <path fill="none" d="M679 613.6979 L679 626.6586" clip-path="url(#clipPath2)"/>
      <path fill="none" d="M753.5015 460.1667 L821 460.1667 L821 717.3333 L679 717.3333 L679 731.3358" clip-path="url(#clipPath2)"/>
    </g>
  </g>
</svg>
