<?xml version="1.0" encoding="UTF-8"?><svg xmlns="http://www.w3.org/2000/svg" xmlns:xlink="http://www.w3.org/1999/xlink" fill-opacity="1" color-rendering="auto" color-interpolation="auto" text-rendering="auto" stroke="black" stroke-linecap="square" width="742" stroke-miterlimit="10" shape-rendering="auto" stroke-opacity="1" fill="black" stroke-dasharray="none" font-weight="normal" stroke-width="1" height="536" font-family="'Dialog'" font-style="normal" stroke-linejoin="miter" font-size="12px" stroke-dashoffset="0" image-rendering="auto">
  <!--Generated by ySVG 2.6-->
  <defs id="genericDefs"/>
  <g>
    <defs id="defs1">
      <clipPath clipPathUnits="userSpaceOnUse" id="clipPath1">
        <path d="M0 0 L742 0 L742 536 L0 536 L0 0 Z"/>
      </clipPath>
      <clipPath clipPathUnits="userSpaceOnUse" id="clipPath2">
        <path d="M407 149 L1149 149 L1149 685 L407 685 L407 149 Z"/>
      </clipPath>
    </defs>
    <g fill="white" text-rendering="geometricPrecision" shape-rendering="geometricPrecision" transform="translate(-407,-149)" stroke="white">
      <rect x="407" width="742" height="536" y="149" clip-path="url(#clipPath2)" stroke="none"/>
    </g>
    <g text-rendering="geometricPrecision" stroke-miterlimit="1.45" shape-rendering="geometricPrecision" transform="matrix(1,0,0,1,-407,-149)" stroke-linecap="butt">
      <rect x="555" y="200.5" clip-path="url(#clipPath2)" fill="none" width="202" rx="28.5" ry="28.5" height="57"/>
      <text x="633.084" xml:space="preserve" y="233.1543" clip-path="url(#clipPath2)" font-family="sans-serif" stroke="none">Начало</text>
    </g>
    <g text-rendering="geometricPrecision" stroke-miterlimit="1.45" shape-rendering="geometricPrecision" transform="matrix(1,0,0,1,-407,-149)" stroke-linecap="butt">
      <path fill="none" d="M848.75 164.5 L808 164.5 L808 293.5 L848.75 293.5" clip-path="url(#clipPath2)"/>
      <text x="824.5713" xml:space="preserve" y="184.2637" clip-path="url(#clipPath2)" font-family="sans-serif" stroke="none">mergeSort</text>
      <text x="824.5713" xml:space="preserve" y="198.2324" clip-path="url(#clipPath2)" font-family="sans-serif" stroke="none">Вход:</text>
      <text x="824.5713" xml:space="preserve" y="212.2012" clip-path="url(#clipPath2)" font-family="sans-serif" stroke="none">Массив A размера N</text>
      <text x="824.5713" xml:space="preserve" y="226.1699" clip-path="url(#clipPath2)" font-family="sans-serif" stroke="none">low - индекс первого элемента массива А</text>
      <text x="824.5713" xml:space="preserve" y="240.1387" clip-path="url(#clipPath2)" font-family="sans-serif" stroke="none">high - индекс последнего элемента массива А</text>
      <text x="824.5713" xml:space="preserve" y="254.1074" clip-path="url(#clipPath2)" font-family="sans-serif" stroke="none">Выход:</text>
      <text x="824.5713" xml:space="preserve" y="268.0762" clip-path="url(#clipPath2)" font-family="sans-serif" stroke="none">Отсортированный</text>
      <text x="824.5713" xml:space="preserve" y="282.0449" clip-path="url(#clipPath2)" font-family="sans-serif" stroke="none">массив A размера N</text>
    </g>
    <g text-rendering="geometricPrecision" stroke-miterlimit="1.45" shape-rendering="geometricPrecision" transform="matrix(1,0,0,1,-407,-149)" stroke-linecap="butt">
      <path fill="none" d="M656 270 L757 312.5 L656 355 L555 312.5 Z" clip-path="url(#clipPath2)"/>
      <text x="618.7402" xml:space="preserve" y="316.6543" clip-path="url(#clipPath2)" font-family="sans-serif" stroke="none">low &lt; high ?</text>
    </g>
    <g text-rendering="geometricPrecision" stroke-miterlimit="1.45" shape-rendering="geometricPrecision" transform="matrix(1,0,0,1,-407,-149)" stroke-linecap="butt">
      <path fill="none" d="M801 323.5 L1003 323.5 L1003 380.5 L801 380.5 Z" clip-path="url(#clipPath2)"/>
      <text x="821.9668" xml:space="preserve" y="342.1855" clip-path="url(#clipPath2)" font-family="sans-serif" stroke="none">Вычисление индекса mid</text>
      <text x="830.8672" xml:space="preserve" y="356.1543" clip-path="url(#clipPath2)" font-family="sans-serif" stroke="none">срединного  элемента</text>
      <text x="870.0752" xml:space="preserve" y="370.123" clip-path="url(#clipPath2)" font-family="sans-serif" stroke="none">массива А</text>
    </g>
    <g text-rendering="geometricPrecision" stroke-miterlimit="1.45" shape-rendering="geometricPrecision" transform="matrix(1,0,0,1,-407,-149)" stroke-linecap="butt">
      <rect fill="none" x="801" width="202" height="57" y="392.5" clip-path="url(#clipPath2)"/>
      <path fill="none" d="M811 392.5 L811 449.5 M993 392.5 L993 449.5 M811 392.5 Z" clip-path="url(#clipPath2)"/>
      <text x="832.0303" xml:space="preserve" y="404.2012" clip-path="url(#clipPath2)" font-family="sans-serif" stroke="none">Сортировка слиянием</text>
      <text x="848.3574" xml:space="preserve" y="418.1699" clip-path="url(#clipPath2)" font-family="sans-serif" stroke="none">левой половины </text>
      <text x="870.0752" xml:space="preserve" y="432.1387" clip-path="url(#clipPath2)" font-family="sans-serif" stroke="none">массива A</text>
      <text x="855.0459" xml:space="preserve" y="446.1074" clip-path="url(#clipPath2)" font-family="sans-serif" stroke="none">(от low до mid)</text>
    </g>
    <g text-rendering="geometricPrecision" stroke-miterlimit="1.45" shape-rendering="geometricPrecision" transform="matrix(1,0,0,1,-407,-149)" stroke-linecap="butt">
      <rect fill="none" x="801" width="202" height="57" y="461.5" clip-path="url(#clipPath2)"/>
      <path fill="none" d="M811 461.5 L811 518.5 M993 461.5 L993 518.5 M811 461.5 Z" clip-path="url(#clipPath2)"/>
      <text x="832.0303" xml:space="preserve" y="473.2012" clip-path="url(#clipPath2)" font-family="sans-serif" stroke="none">Сортировка слиянием</text>
      <text x="844.4756" xml:space="preserve" y="487.1699" clip-path="url(#clipPath2)" font-family="sans-serif" stroke="none">правой половины </text>
      <text x="870.0752" xml:space="preserve" y="501.1387" clip-path="url(#clipPath2)" font-family="sans-serif" stroke="none">массива A</text>
      <text x="843.3652" xml:space="preserve" y="515.1074" clip-path="url(#clipPath2)" font-family="sans-serif" stroke="none">(от mid+1 до high)</text>
    </g>
    <g text-rendering="geometricPrecision" stroke-miterlimit="1.45" shape-rendering="geometricPrecision" transform="matrix(1,0,0,1,-407,-149)" stroke-linecap="butt">
      <rect fill="none" x="801" width="202" height="57" y="530.5" clip-path="url(#clipPath2)"/>
      <path fill="none" d="M811 530.5 L811 587.5 M993 530.5 L993 587.5 M811 530.5 Z" clip-path="url(#clipPath2)"/>
      <text x="832.124" xml:space="preserve" y="549.1855" clip-path="url(#clipPath2)" font-family="sans-serif" stroke="none">Объединение левой и</text>
      <text x="819.5059" xml:space="preserve" y="563.1543" clip-path="url(#clipPath2)" font-family="sans-serif" stroke="none">правой отсортированных </text>
      <text x="833.2578" xml:space="preserve" y="577.123" clip-path="url(#clipPath2)" font-family="sans-serif" stroke="none">частей в один массив</text>
    </g>
    <g text-rendering="geometricPrecision" stroke-miterlimit="1.45" shape-rendering="geometricPrecision" transform="matrix(1,0,0,1,-407,-149)" stroke-linecap="butt">
      <rect x="555" y="612.38" clip-path="url(#clipPath2)" fill="none" width="202" rx="28.5" ry="28.5" height="57"/>
      <text x="636.3711" xml:space="preserve" y="645.0343" clip-path="url(#clipPath2)" font-family="sans-serif" stroke="none">Конец</text>
    </g>
    <g text-rendering="geometricPrecision" stroke-miterlimit="1.45" shape-rendering="geometricPrecision" transform="matrix(1,0,0,1,-407,-149)" stroke-linecap="butt">
      <path fill="none" d="M808.0013 229 L756.9755 229" clip-path="url(#clipPath2)"/>
    </g>
    <g text-rendering="geometricPrecision" stroke-miterlimit="1.45" shape-rendering="geometricPrecision" transform="matrix(1,0,0,1,-407,-149)" stroke-linecap="butt">
      <path fill="none" d="M656 257.4993 L656 269.9872" clip-path="url(#clipPath2)"/>
      <path fill="none" d="M756.9885 312.5 L902 312.5 L902 323.4937" clip-path="url(#clipPath2)"/>
      <text x="828.8179" xml:space="preserve" y="310.6699" clip-path="url(#clipPath2)" font-family="sans-serif" stroke="none">Да</text>
      <path fill="none" d="M902 380.4692 L902 392.4622" clip-path="url(#clipPath2)"/>
      <path fill="none" d="M902 449.4692 L902 461.4622" clip-path="url(#clipPath2)"/>
      <path fill="none" d="M902 518.4692 L902 530.4622" clip-path="url(#clipPath2)"/>
      <path fill="none" d="M902 587.4956 L902 598.7 L656 598.7 L656 612.4167" clip-path="url(#clipPath2)"/>
      <path fill="none" d="M555.0247 312.5 L422 312.5 L422 598.7 L670 598.7 L656 598.7 L656 612.3475" clip-path="url(#clipPath2)"/>
    </g>
  </g>
</svg>
