<?xml version="1.0" encoding="UTF-8"?><svg xmlns="http://www.w3.org/2000/svg" xmlns:xlink="http://www.w3.org/1999/xlink" fill-opacity="1" color-rendering="auto" color-interpolation="auto" text-rendering="auto" stroke="black" stroke-linecap="square" width="835" stroke-miterlimit="10" shape-rendering="auto" stroke-opacity="1" fill="black" stroke-dasharray="none" font-weight="normal" stroke-width="1" height="1263" font-family="'Dialog'" font-style="normal" stroke-linejoin="miter" font-size="12px" stroke-dashoffset="0" image-rendering="auto">
  <!--Generated by ySVG 2.6-->
  <defs id="genericDefs"/>
  <g>
    <defs id="defs1">
      <clipPath clipPathUnits="userSpaceOnUse" id="clipPath1">
        <path d="M0 0 L835 0 L835 1263 L0 1263 L0 0 Z"/>
      </clipPath>
      <clipPath clipPathUnits="userSpaceOnUse" id="clipPath2">
        <path d="M254 136 L1089 136 L1089 1399 L254 1399 L254 136 Z"/>
      </clipPath>
    </defs>
    <g fill="white" text-rendering="geometricPrecision" shape-rendering="geometricPrecision" transform="translate(-254,-136)" stroke="white">
      <rect x="254" width="835" height="1263" y="136" clip-path="url(#clipPath2)" stroke="none"/>
    </g>
    <g text-rendering="geometricPrecision" stroke-miterlimit="1.45" shape-rendering="geometricPrecision" transform="matrix(1,0,0,1,-254,-136)" stroke-linecap="butt">
      <rect x="441" y="196" clip-path="url(#clipPath2)" fill="none" width="213" rx="37" ry="37" height="74"/>
      <text x="524.584" xml:space="preserve" y="237.1543" clip-path="url(#clipPath2)" font-family="sans-serif" stroke="none">Начало</text>
    </g>
    <g text-rendering="geometricPrecision" stroke-miterlimit="1.45" shape-rendering="geometricPrecision" transform="matrix(1,0,0,1,-254,-136)" stroke-linecap="butt">
      <path fill="none" d="M789.625 151.5 L749 151.5 L749 306.5 L789.625 306.5" clip-path="url(#clipPath2)"/>
      <text x="764.7432" xml:space="preserve" y="177.2793" clip-path="url(#clipPath2)" font-family="sans-serif" stroke="none">merge - функция слияния двух </text>
      <text x="764.7432" xml:space="preserve" y="191.248" clip-path="url(#clipPath2)" font-family="sans-serif" stroke="none">подмассивов в один</text>
      <text x="764.7432" xml:space="preserve" y="205.2168" clip-path="url(#clipPath2)" font-family="sans-serif" stroke="none">Вход:</text>
      <text x="764.7432" xml:space="preserve" y="219.1855" clip-path="url(#clipPath2)" font-family="sans-serif" stroke="none">Массив A размера N</text>
      <text x="764.7432" xml:space="preserve" y="233.1543" clip-path="url(#clipPath2)" font-family="sans-serif" stroke="none">low - индекс первого элемента массива А</text>
      <text x="764.7432" xml:space="preserve" y="247.123" clip-path="url(#clipPath2)" font-family="sans-serif" stroke="none">high - индекс последнего элемента массива А</text>
      <text x="764.7432" xml:space="preserve" y="261.0918" clip-path="url(#clipPath2)" font-family="sans-serif" stroke="none">mid -  индекс срединного элемента массива А</text>
      <text x="764.7432" xml:space="preserve" y="275.0605" clip-path="url(#clipPath2)" font-family="sans-serif" stroke="none">Выход:</text>
      <text x="764.7432" xml:space="preserve" y="289.0293" clip-path="url(#clipPath2)" font-family="sans-serif" stroke="none">Объединенный массив А</text>
    </g>
    <g text-rendering="geometricPrecision" stroke-miterlimit="1.45" shape-rendering="geometricPrecision" transform="matrix(1,0,0,1,-254,-136)" stroke-linecap="butt">
      <path fill="none" d="M445.5 476 L649.5 476 L649.5 567 L445.5 567 Z" clip-path="url(#clipPath2)"/>
      <text x="483.8525" xml:space="preserve" y="490.7324" clip-path="url(#clipPath2)" font-family="sans-serif" stroke="none">Создание массивов </text>
      <text x="481.7666" xml:space="preserve" y="504.7012" clip-path="url(#clipPath2)" font-family="sans-serif" stroke="none">arrLeft и arrRight для</text>
      <text x="473.2178" xml:space="preserve" y="518.6699" clip-path="url(#clipPath2)" font-family="sans-serif" stroke="none">левой и правой частей </text>
      <text x="468.5303" xml:space="preserve" y="532.6387" clip-path="url(#clipPath2)" font-family="sans-serif" stroke="none">массива А и заполнение </text>
      <text x="474.665" xml:space="preserve" y="546.6074" clip-path="url(#clipPath2)" font-family="sans-serif" stroke="none">их сооствествующими </text>
      <text x="509.6162" xml:space="preserve" y="560.5762" clip-path="url(#clipPath2)" font-family="sans-serif" stroke="none">значениями</text>
    </g>
    <g text-rendering="geometricPrecision" stroke-miterlimit="1.45" shape-rendering="geometricPrecision" transform="matrix(1,0,0,1,-254,-136)" stroke-linecap="butt">
      <path fill="none" d="M445.5 278 L649.5 278 L649.5 369 L445.5 369 Z" clip-path="url(#clipPath2)"/>
      <text x="461.7363" xml:space="preserve" y="306.7012" clip-path="url(#clipPath2)" font-family="sans-serif" stroke="none">lengthLeft := mid - low + 1 -</text>
      <text x="502.6465" xml:space="preserve" y="320.6699" clip-path="url(#clipPath2)" font-family="sans-serif" stroke="none">длина левого </text>
      <text x="489.1289" xml:space="preserve" y="334.6387" clip-path="url(#clipPath2)" font-family="sans-serif" stroke="none">отсортированного</text>
      <text x="509.8447" xml:space="preserve" y="348.6074" clip-path="url(#clipPath2)" font-family="sans-serif" stroke="none">подмассива</text>
    </g>
    <g text-rendering="geometricPrecision" stroke-miterlimit="1.45" shape-rendering="geometricPrecision" transform="matrix(1,0,0,1,-254,-136)" stroke-linecap="butt">
      <path fill="none" d="M445.5 377 L649.5 377 L649.5 468 L445.5 468 Z" clip-path="url(#clipPath2)"/>
      <text x="467.2588" xml:space="preserve" y="405.7012" clip-path="url(#clipPath2)" font-family="sans-serif" stroke="none">lengthRight := high - mid -</text>
      <text x="500.6719" xml:space="preserve" y="419.6699" clip-path="url(#clipPath2)" font-family="sans-serif" stroke="none">длина правого</text>
      <text x="489.1289" xml:space="preserve" y="433.6387" clip-path="url(#clipPath2)" font-family="sans-serif" stroke="none">отсортированного</text>
      <text x="509.8447" xml:space="preserve" y="447.6074" clip-path="url(#clipPath2)" font-family="sans-serif" stroke="none">подмассива</text>
    </g>
    <g text-rendering="geometricPrecision" stroke-miterlimit="1.45" shape-rendering="geometricPrecision" transform="matrix(1,0,0,1,-254,-136)" stroke-linecap="butt">
      <path fill="none" d="M445.5 575 L649.5 575 L649.5 649 L445.5 649 Z" clip-path="url(#clipPath2)"/>
      <text x="531.1523" xml:space="preserve" y="616.1543" clip-path="url(#clipPath2)" font-family="sans-serif" stroke="none">i := 0</text>
    </g>
    <g text-rendering="geometricPrecision" stroke-miterlimit="1.45" shape-rendering="geometricPrecision" transform="matrix(1,0,0,1,-254,-136)" stroke-linecap="butt">
      <path fill="none" d="M547.5 903 L649.5 940 L547.5 977 L445.5 940 Z" clip-path="url(#clipPath2)"/>
      <text x="509.0801" xml:space="preserve" y="937.1699" clip-path="url(#clipPath2)" font-family="sans-serif" stroke="none">arrLeft[i] &lt;=</text>
      <text x="511.6494" xml:space="preserve" y="951.1387" clip-path="url(#clipPath2)" font-family="sans-serif" stroke="none">arrRight[j] ?</text>
    </g>
    <g text-rendering="geometricPrecision" stroke-miterlimit="1.45" shape-rendering="geometricPrecision" transform="matrix(1,0,0,1,-254,-136)" stroke-linecap="butt">
      <path fill="none" d="M621.5 960 L825.5 960 L825.5 1034 L621.5 1034 Z" clip-path="url(#clipPath2)"/>
      <text x="669.4121" xml:space="preserve" y="1001.1543" clip-path="url(#clipPath2)" font-family="sans-serif" stroke="none">arr[k] = arrLeft[i];</text>
    </g>
    <g text-rendering="geometricPrecision" stroke-miterlimit="1.45" shape-rendering="geometricPrecision" transform="matrix(1,0,0,1,-254,-136)" stroke-linecap="butt">
      <path fill="none" d="M621.5 1052 L825.5 1052 L825.5 1126 L621.5 1126 Z" clip-path="url(#clipPath2)"/>
      <text x="696.6436" xml:space="preserve" y="1093.1543" clip-path="url(#clipPath2)" font-family="sans-serif" stroke="none">i := i + 1</text>
    </g>
    <g text-rendering="geometricPrecision" stroke-miterlimit="1.45" shape-rendering="geometricPrecision" transform="matrix(1,0,0,1,-254,-136)" stroke-linecap="butt">
      <path fill="none" d="M269.5 960 L473.5 960 L473.5 1034 L269.5 1034 Z" clip-path="url(#clipPath2)"/>
      <text x="313.1113" xml:space="preserve" y="1001.1543" clip-path="url(#clipPath2)" font-family="sans-serif" stroke="none">arr[k] = arrRight[j];</text>
    </g>
    <g text-rendering="geometricPrecision" stroke-miterlimit="1.45" shape-rendering="geometricPrecision" transform="matrix(1,0,0,1,-254,-136)" stroke-linecap="butt">
      <path fill="none" d="M269.5 1052 L473.5 1052 L473.5 1126 L269.5 1126 Z" clip-path="url(#clipPath2)"/>
      <text x="344.6436" xml:space="preserve" y="1093.1543" clip-path="url(#clipPath2)" font-family="sans-serif" stroke="none">j := j + 1</text>
    </g>
    <g text-rendering="geometricPrecision" stroke-miterlimit="1.45" shape-rendering="geometricPrecision" transform="matrix(1,0,0,1,-254,-136)" stroke-linecap="butt">
      <path fill="none" d="M445.5 1175.7333 L649.5 1175.7333 L649.5 1249.7333 L445.5 1249.7333 Z" clip-path="url(#clipPath2)"/>
      <text x="517.0283" xml:space="preserve" y="1216.8876" clip-path="url(#clipPath2)" font-family="sans-serif" stroke="none">k := k + 1</text>
    </g>
    <g text-rendering="geometricPrecision" stroke-miterlimit="1.45" shape-rendering="geometricPrecision" transform="matrix(1,0,0,1,-254,-136)" stroke-linecap="butt">
      <circle fill="none" r="20" clip-path="url(#clipPath2)" cx="547.5" cy="1363.245"/>
      <text x="543.3955" xml:space="preserve" y="1367.3993" clip-path="url(#clipPath2)" font-family="sans-serif" stroke="none">А</text>
    </g>
    <g text-rendering="geometricPrecision" stroke-miterlimit="1.45" shape-rendering="geometricPrecision" transform="matrix(1,0,0,1,-254,-136)" stroke-linecap="butt">
      <path fill="none" d="M455.5 821 L639.5 821 L649.5 831 L649.5 895 L445.5 895 L445.5 831 Z" clip-path="url(#clipPath2)"/>
      <text x="498.6533" xml:space="preserve" y="855.1699" clip-path="url(#clipPath2)" font-family="sans-serif" stroke="none">i &lt; lengthLeft и </text>
      <text x="496.9746" xml:space="preserve" y="869.1387" clip-path="url(#clipPath2)" font-family="sans-serif" stroke="none">j &lt; lengthRight ?</text>
    </g>
    <g text-rendering="geometricPrecision" stroke-miterlimit="1.45" shape-rendering="geometricPrecision" transform="matrix(1,0,0,1,-254,-136)" stroke-linecap="butt">
      <path fill="none" d="M445.5 1259.4891 L649.5 1259.4891 L649.5 1323.4891 L639.5 1333.4891 L455.5 1333.4891 L445.5 1323.4891 Z" clip-path="url(#clipPath2)"/>
      <text x="506.8447" xml:space="preserve" y="1300.6434" clip-path="url(#clipPath2)" font-family="sans-serif" stroke="none">Конец цикла</text>
    </g>
    <g text-rendering="geometricPrecision" stroke-miterlimit="1.45" shape-rendering="geometricPrecision" transform="matrix(1,0,0,1,-254,-136)" stroke-linecap="butt">
      <path fill="none" d="M875.7686 583.75 L1024.7687 583.75 L1024.7687 634.75 L875.7686 634.75 Z" clip-path="url(#clipPath2)"/>
      <text x="919.7969" xml:space="preserve" y="613.4043" clip-path="url(#clipPath2)" font-family="sans-serif" stroke="none">k := k + 1</text>
    </g>
    <g text-rendering="geometricPrecision" stroke-miterlimit="1.45" shape-rendering="geometricPrecision" transform="matrix(1,0,0,1,-254,-136)" stroke-linecap="butt">
      <circle fill="none" r="20" clip-path="url(#clipPath2)" cx="950.2686" cy="381.75"/>
      <text x="946.1641" xml:space="preserve" y="385.9043" clip-path="url(#clipPath2)" font-family="sans-serif" stroke="none">А</text>
    </g>
    <g text-rendering="geometricPrecision" stroke-miterlimit="1.45" shape-rendering="geometricPrecision" transform="matrix(1,0,0,1,-254,-136)" stroke-linecap="butt">
      <path fill="none" d="M875.7686 467.75 L1024.7687 467.75 L1024.7687 518.75 L875.7686 518.75 Z" clip-path="url(#clipPath2)"/>
      <text x="902.7081" xml:space="preserve" y="497.4043" clip-path="url(#clipPath2)" font-family="sans-serif" stroke="none">A[k] = arrLeft[i]</text>
    </g>
    <g text-rendering="geometricPrecision" stroke-miterlimit="1.45" shape-rendering="geometricPrecision" transform="matrix(1,0,0,1,-254,-136)" stroke-linecap="butt">
      <path fill="none" d="M875.7686 525.75 L1024.7687 525.75 L1024.7687 576.75 L875.7686 576.75 Z" clip-path="url(#clipPath2)"/>
      <text x="923.4122" xml:space="preserve" y="555.4043" clip-path="url(#clipPath2)" font-family="sans-serif" stroke="none">i := i + 1</text>
    </g>
    <g text-rendering="geometricPrecision" stroke-miterlimit="1.45" shape-rendering="geometricPrecision" transform="matrix(1,0,0,1,-254,-136)" stroke-linecap="butt">
      <path fill="none" d="M875.7686 851.75 L1024.7687 851.75 L1024.7687 902.75 L875.7686 902.75 Z" clip-path="url(#clipPath2)"/>
      <text x="919.7969" xml:space="preserve" y="881.4043" clip-path="url(#clipPath2)" font-family="sans-serif" stroke="none">k := k + 1</text>
    </g>
    <g text-rendering="geometricPrecision" stroke-miterlimit="1.45" shape-rendering="geometricPrecision" transform="matrix(1,0,0,1,-254,-136)" stroke-linecap="butt">
      <path fill="none" d="M875.7686 735.75 L1024.7687 735.75 L1024.7687 786.75 L875.7686 786.75 Z" clip-path="url(#clipPath2)"/>
      <text x="898.4073" xml:space="preserve" y="765.4043" clip-path="url(#clipPath2)" font-family="sans-serif" stroke="none">A[k] = arrRight[j]</text>
    </g>
    <g text-rendering="geometricPrecision" stroke-miterlimit="1.45" shape-rendering="geometricPrecision" transform="matrix(1,0,0,1,-254,-136)" stroke-linecap="butt">
      <path fill="none" d="M875.7686 793.75 L1024.7687 793.75 L1024.7687 844.75 L875.7686 844.75 Z" clip-path="url(#clipPath2)"/>
      <text x="923.4122" xml:space="preserve" y="823.4043" clip-path="url(#clipPath2)" font-family="sans-serif" stroke="none">j := j + 1</text>
    </g>
    <g text-rendering="geometricPrecision" stroke-miterlimit="1.45" shape-rendering="geometricPrecision" transform="matrix(1,0,0,1,-254,-136)" stroke-linecap="butt">
      <rect x="875.7686" y="956.75" clip-path="url(#clipPath2)" fill="none" width="149" rx="25.5" ry="25.5" height="51"/>
      <text x="930.6397" xml:space="preserve" y="986.4043" clip-path="url(#clipPath2)" font-family="sans-serif" stroke="none">Конец</text>
    </g>
    <g text-rendering="geometricPrecision" stroke-miterlimit="1.45" shape-rendering="geometricPrecision" transform="matrix(1,0,0,1,-254,-136)" stroke-linecap="butt">
      <path fill="none" d="M885.7686 420.25 L1014.7686 420.25 L1024.7687 430.25 L1024.7687 460.25 L875.7686 460.25 L875.7686 430.25 Z" clip-path="url(#clipPath2)"/>
      <text x="904.044" xml:space="preserve" y="444.4043" clip-path="url(#clipPath2)" font-family="sans-serif" stroke="none">i &lt; lengthLeft ?</text>
    </g>
    <g text-rendering="geometricPrecision" stroke-miterlimit="1.45" shape-rendering="geometricPrecision" transform="matrix(1,0,0,1,-254,-136)" stroke-linecap="butt">
      <path fill="none" d="M875.7686 641.75 L1024.7687 641.75 L1024.7687 671.75 L1014.7686 681.75 L885.7686 681.75 L875.7686 671.75 Z" clip-path="url(#clipPath2)"/>
      <text x="909.6133" xml:space="preserve" y="665.9043" clip-path="url(#clipPath2)" font-family="sans-serif" stroke="none">Конец цикла</text>
    </g>
    <g text-rendering="geometricPrecision" stroke-miterlimit="1.45" shape-rendering="geometricPrecision" transform="matrix(1,0,0,1,-254,-136)" stroke-linecap="butt">
      <path fill="none" d="M885.7686 688.75 L1014.7686 688.75 L1024.7687 698.75 L1024.7687 728.75 L875.7686 728.75 L875.7686 698.75 Z" clip-path="url(#clipPath2)"/>
      <text x="899.7432" xml:space="preserve" y="712.9043" clip-path="url(#clipPath2)" font-family="sans-serif" stroke="none">j &lt; lengthRight ?</text>
    </g>
    <g text-rendering="geometricPrecision" stroke-miterlimit="1.45" shape-rendering="geometricPrecision" transform="matrix(1,0,0,1,-254,-136)" stroke-linecap="butt">
      <path fill="none" d="M875.7686 909.75 L1024.7687 909.75 L1024.7687 939.75 L1014.7686 949.75 L885.7686 949.75 L875.7686 939.75 Z" clip-path="url(#clipPath2)"/>
      <text x="909.6133" xml:space="preserve" y="933.9043" clip-path="url(#clipPath2)" font-family="sans-serif" stroke="none">Конец цикла</text>
    </g>
    <g text-rendering="geometricPrecision" stroke-miterlimit="1.45" shape-rendering="geometricPrecision" transform="matrix(1,0,0,1,-254,-136)" stroke-linecap="butt">
      <path fill="none" d="M445.5 657 L649.5 657 L649.5 731 L445.5 731 Z" clip-path="url(#clipPath2)"/>
      <text x="531.1523" xml:space="preserve" y="698.1543" clip-path="url(#clipPath2)" font-family="sans-serif" stroke="none">j := 0</text>
    </g>
    <g text-rendering="geometricPrecision" stroke-miterlimit="1.45" shape-rendering="geometricPrecision" transform="matrix(1,0,0,1,-254,-136)" stroke-linecap="butt">
      <path fill="none" d="M445.5 739 L649.5 739 L649.5 813 L445.5 813 Z" clip-path="url(#clipPath2)"/>
      <text x="522.917" xml:space="preserve" y="780.1543" clip-path="url(#clipPath2)" font-family="sans-serif" stroke="none">k := low</text>
    </g>
    <g text-rendering="geometricPrecision" stroke-miterlimit="1.45" shape-rendering="geometricPrecision" transform="matrix(1,0,0,1,-254,-136)" stroke-linecap="butt">
      <path fill="none" d="M749.0063 230.7856 L654.0091 231.8296" clip-path="url(#clipPath2)"/>
    </g>
    <g text-rendering="geometricPrecision" stroke-miterlimit="1.45" shape-rendering="geometricPrecision" transform="matrix(1,0,0,1,-254,-136)" stroke-linecap="butt">
      <path fill="none" d="M547.5 269.9866 L547.5 278.0084" clip-path="url(#clipPath2)"/>
      <path fill="none" d="M547.5 368.9878 L547.5 377.0094" clip-path="url(#clipPath2)"/>
      <path fill="none" d="M547.5 467.9878 L547.5 476.0094" clip-path="url(#clipPath2)"/>
      <path fill="none" d="M547.5 566.9709 L547.5 575.0181" clip-path="url(#clipPath2)"/>
      <path fill="none" d="M649.4648 940 L723.5 940 L723.5 960.0112" clip-path="url(#clipPath2)"/>
      <text x="685.8179" xml:space="preserve" y="934.1699" clip-path="url(#clipPath2)" font-family="sans-serif" stroke="none">Да</text>
      <path fill="none" d="M723.5 1033.9707 L723.5 1052.0004" clip-path="url(#clipPath2)"/>
      <path fill="none" d="M445.5352 940 L371.5 940 L371.5 960.0112" clip-path="url(#clipPath2)"/>
      <path fill="none" d="M371.5 1033.9707 L371.5 1052.0004" clip-path="url(#clipPath2)"/>
      <path fill="none" d="M723.5 1125.979 L723.5 1161.3334 L547.5 1161.3334 L547.5 1167.4933 L547.5 1167.4933 L547.5 1175.7549" clip-path="url(#clipPath2)"/>
      <path fill="none" d="M371.5 1126.0189 L371.5 1161.1359 L547.5 1161.3334 L547.5 1167.4933 L547.5 1167.4933 L547.5 1175.7549" clip-path="url(#clipPath2)"/>
      <path fill="none" d="M547.5 895.0361 L547.5 902.9838" clip-path="url(#clipPath2)"/>
      <path fill="none" d="M547.5 1249.7445 L547.5 1259.4678" clip-path="url(#clipPath2)"/>
      <path fill="none" d="M547.5 1333.4851 L547.5 1343.2211" clip-path="url(#clipPath2)"/>
      <path fill="none" d="M950.2686 518.7666 L950.2686 525.7772" clip-path="url(#clipPath2)"/>
      <path fill="none" d="M950.2686 576.7666 L950.2686 583.7772" clip-path="url(#clipPath2)"/>
      <path fill="none" d="M950.2686 786.7666 L950.2686 793.7772" clip-path="url(#clipPath2)"/>
      <path fill="none" d="M950.2686 844.7666 L950.2686 851.7772" clip-path="url(#clipPath2)"/>
      <path fill="none" d="M950.2686 401.7737 L950.2686 420.2228" clip-path="url(#clipPath2)"/>
      <path fill="none" d="M950.2686 460.2544 L950.2686 467.7622" clip-path="url(#clipPath2)"/>
      <path fill="none" d="M950.2686 681.7158 L950.2686 688.7648" clip-path="url(#clipPath2)"/>
      <path fill="none" d="M950.2686 728.7708 L950.2686 735.7805" clip-path="url(#clipPath2)"/>
      <path fill="none" d="M950.2686 902.7566 L950.2686 909.7422" clip-path="url(#clipPath2)"/>
      <path fill="none" d="M950.2686 949.7708 L950.2686 956.7805" clip-path="url(#clipPath2)"/>
      <path fill="none" d="M547.5 649.0361 L547.5 656.9838" clip-path="url(#clipPath2)"/>
      <path fill="none" d="M547.5 731.0361 L547.5 738.9838" clip-path="url(#clipPath2)"/>
      <path fill="none" d="M547.5 813.0361 L547.5 820.9838" clip-path="url(#clipPath2)"/>
    </g>
  </g>
</svg>
