<?xml version="1.0" encoding="UTF-8"?><svg xmlns="http://www.w3.org/2000/svg" xmlns:xlink="http://www.w3.org/1999/xlink" fill-opacity="1" color-rendering="auto" color-interpolation="auto" text-rendering="auto" stroke="black" stroke-linecap="square" width="458" stroke-miterlimit="10" shape-rendering="auto" stroke-opacity="1" fill="black" stroke-dasharray="none" font-weight="normal" stroke-width="1" height="587" font-family="'Dialog'" font-style="normal" stroke-linejoin="miter" font-size="12px" stroke-dashoffset="0" image-rendering="auto">
  <!--Generated by ySVG 2.6-->
  <defs id="genericDefs"/>
  <g>
    <defs id="defs1">
      <clipPath clipPathUnits="userSpaceOnUse" id="clipPath1">
        <path d="M0 0 L458 0 L458 587 L0 587 L0 0 Z"/>
      </clipPath>
      <clipPath clipPathUnits="userSpaceOnUse" id="clipPath2">
        <path d="M467 91 L925 91 L925 678 L467 678 L467 91 Z"/>
      </clipPath>
    </defs>
    <g fill="white" text-rendering="geometricPrecision" shape-rendering="geometricPrecision" transform="translate(-467,-91)" stroke="white">
      <rect x="467" width="458" height="587" y="91" clip-path="url(#clipPath2)" stroke="none"/>
    </g>
    <g text-rendering="geometricPrecision" stroke-miterlimit="1.45" shape-rendering="geometricPrecision" transform="matrix(1,0,0,1,-467,-91)" stroke-linecap="butt">
      <rect x="482" y="130.5" clip-path="url(#clipPath2)" fill="none" width="193" rx="26.5" ry="26.5" height="53"/>
      <text x="555.584" xml:space="preserve" y="161.1543" clip-path="url(#clipPath2)" font-family="sans-serif" stroke="none">Начало</text>
    </g>
    <g text-rendering="geometricPrecision" stroke-miterlimit="1.45" shape-rendering="geometricPrecision" transform="matrix(1,0,0,1,-467,-91)" stroke-linecap="butt">
      <path fill="none" d="M768.25 106 L748 106 L748 208 L768.25 208" clip-path="url(#clipPath2)"/>
      <text x="765.4199" xml:space="preserve" y="126.2324" clip-path="url(#clipPath2)" font-family="sans-serif" stroke="none">radixSort</text>
      <text x="765.4199" xml:space="preserve" y="140.2012" clip-path="url(#clipPath2)" font-family="sans-serif" stroke="none">Вход:</text>
      <text x="765.4199" xml:space="preserve" y="154.1699" clip-path="url(#clipPath2)" font-family="sans-serif" stroke="none">Массив A размера N</text>
      <text x="765.4199" xml:space="preserve" y="168.1387" clip-path="url(#clipPath2)" font-family="sans-serif" stroke="none">Выход:</text>
      <text x="765.4199" xml:space="preserve" y="182.1074" clip-path="url(#clipPath2)" font-family="sans-serif" stroke="none">Отсортированный</text>
      <text x="765.4199" xml:space="preserve" y="196.0762" clip-path="url(#clipPath2)" font-family="sans-serif" stroke="none">массив A размера N</text>
    </g>
    <g text-rendering="geometricPrecision" stroke-miterlimit="1.45" shape-rendering="geometricPrecision" transform="matrix(1,0,0,1,-467,-91)" stroke-linecap="butt">
      <rect fill="none" x="482" width="193" height="60" y="195" clip-path="url(#clipPath2)"/>
      <path fill="none" d="M492 195 L492 255 M665 195 L665 255 M492 195 Z" clip-path="url(#clipPath2)"/>
      <text x="525.4814" xml:space="preserve" y="222.1699" clip-path="url(#clipPath2)" font-family="sans-serif" stroke="none">Найти максимум</text>
      <text x="526.1377" xml:space="preserve" y="236.1387" clip-path="url(#clipPath2)" font-family="sans-serif" stroke="none">max в массиве А</text>
    </g>
    <g text-rendering="geometricPrecision" stroke-miterlimit="1.45" shape-rendering="geometricPrecision" transform="matrix(1,0,0,1,-467,-91)" stroke-linecap="butt">
      <path fill="none" d="M482 474 L675 474 L675 534 L482 534 Z" clip-path="url(#clipPath2)"/>
      <text x="531.0859" xml:space="preserve" y="508.1543" clip-path="url(#clipPath2)" font-family="sans-serif" stroke="none">exp := exp * 10</text>
    </g>
    <g text-rendering="geometricPrecision" stroke-miterlimit="1.45" shape-rendering="geometricPrecision" transform="matrix(1,0,0,1,-467,-91)" stroke-linecap="butt">
      <path fill="none" d="M482 266.5 L675 266.5 L675 326.5 L482 326.5 Z" clip-path="url(#clipPath2)"/>
      <text x="552.7686" xml:space="preserve" y="300.6543" clip-path="url(#clipPath2)" font-family="sans-serif" stroke="none">exp := 1</text>
    </g>
    <g text-rendering="geometricPrecision" stroke-miterlimit="1.45" shape-rendering="geometricPrecision" transform="matrix(1,0,0,1,-467,-91)" stroke-linecap="butt">
      <rect fill="none" x="482" width="193" height="60" y="402.5" clip-path="url(#clipPath2)"/>
      <path fill="none" d="M492 402.5 L492 462.5 M665 402.5 L665 462.5 M492 402.5 Z" clip-path="url(#clipPath2)"/>
      <text x="500.1045" xml:space="preserve" y="415.7012" clip-path="url(#clipPath2)" font-family="sans-serif" stroke="none">Сортировка по разряду, </text>
      <text x="515.3828" xml:space="preserve" y="429.6699" clip-path="url(#clipPath2)" font-family="sans-serif" stroke="none">соответствующему </text>
      <text x="533.0928" xml:space="preserve" y="443.6387" clip-path="url(#clipPath2)" font-family="sans-serif" stroke="none">наибольшему </text>
      <text x="517.6797" xml:space="preserve" y="457.6074" clip-path="url(#clipPath2)" font-family="sans-serif" stroke="none">разряду  числа exp</text>
    </g>
    <g text-rendering="geometricPrecision" stroke-miterlimit="1.45" shape-rendering="geometricPrecision" transform="matrix(1,0,0,1,-467,-91)" stroke-linecap="butt">
      <rect x="482" y="610" clip-path="url(#clipPath2)" fill="none" width="193" rx="26.5" ry="26.5" height="53"/>
      <text x="558.8711" xml:space="preserve" y="640.6543" clip-path="url(#clipPath2)" font-family="sans-serif" stroke="none">Конец</text>
    </g>
    <g text-rendering="geometricPrecision" stroke-miterlimit="1.45" shape-rendering="geometricPrecision" transform="matrix(1,0,0,1,-467,-91)" stroke-linecap="butt">
      <path fill="none" d="M492 338 L665 338 L675 348 L675 391 L482 391 L482 348 Z" clip-path="url(#clipPath2)"/>
      <text x="530.79" xml:space="preserve" y="368.6543" clip-path="url(#clipPath2)" font-family="sans-serif" stroke="none">max / exp &gt; 0 ?</text>
    </g>
    <g text-rendering="geometricPrecision" stroke-miterlimit="1.45" shape-rendering="geometricPrecision" transform="matrix(1,0,0,1,-467,-91)" stroke-linecap="butt">
      <path fill="none" d="M482 545.5 L675 545.5 L675 588.5 L665 598.5 L492 598.5 L482 588.5 Z" clip-path="url(#clipPath2)"/>
      <text x="537.8447" xml:space="preserve" y="576.1543" clip-path="url(#clipPath2)" font-family="sans-serif" stroke="none">Конец цикла</text>
    </g>
    <g text-rendering="geometricPrecision" stroke-miterlimit="1.45" shape-rendering="geometricPrecision" transform="matrix(1,0,0,1,-467,-91)" stroke-linecap="butt">
      <path fill="none" d="M747.9973 157 L674.9595 157" clip-path="url(#clipPath2)"/>
    </g>
    <g text-rendering="geometricPrecision" stroke-miterlimit="1.45" shape-rendering="geometricPrecision" transform="matrix(1,0,0,1,-467,-91)" stroke-linecap="butt">
      <path fill="none" d="M578.5 183.5293 L578.5 194.9904" clip-path="url(#clipPath2)"/>
      <path fill="none" d="M578.5 254.9895 L578.5 266.4616" clip-path="url(#clipPath2)"/>
      <path fill="none" d="M578.5 462.4895 L578.5 473.9616" clip-path="url(#clipPath2)"/>
      <path fill="none" d="M578.5 326.4824 L578.5 338.0288" clip-path="url(#clipPath2)"/>
      <path fill="none" d="M578.5 391.0293 L578.5 402.4904" clip-path="url(#clipPath2)"/>
      <path fill="none" d="M578.5 533.9824 L578.5 545.5287" clip-path="url(#clipPath2)"/>
      <path fill="none" d="M578.5 598.4866 L578.5 610.0317" clip-path="url(#clipPath2)"/>
    </g>
  </g>
</svg>
