<?xml version="1.0" encoding="UTF-8"?><svg xmlns="http://www.w3.org/2000/svg" xmlns:xlink="http://www.w3.org/1999/xlink" fill-opacity="1" color-rendering="auto" color-interpolation="auto" text-rendering="auto" stroke="black" stroke-linecap="square" width="665" stroke-miterlimit="10" shape-rendering="auto" stroke-opacity="1" fill="black" stroke-dasharray="none" font-weight="normal" stroke-width="1" height="835" font-family="'Dialog'" font-style="normal" stroke-linejoin="miter" font-size="12px" stroke-dashoffset="0" image-rendering="auto">
  <!--Generated by ySVG 2.6-->
  <defs id="genericDefs"/>
  <g>
    <defs id="defs1">
      <clipPath clipPathUnits="userSpaceOnUse" id="clipPath1">
        <path d="M0 0 L665 0 L665 835 L0 835 L0 0 Z"/>
      </clipPath>
      <clipPath clipPathUnits="userSpaceOnUse" id="clipPath2">
        <path d="M525 50 L1190 50 L1190 885 L525 885 L525 50 Z"/>
      </clipPath>
    </defs>
    <g fill="white" text-rendering="geometricPrecision" shape-rendering="geometricPrecision" transform="translate(-525,-50)" stroke="white">
      <rect x="525" width="665" height="835" y="50" clip-path="url(#clipPath2)" stroke="none"/>
    </g>
    <g text-rendering="geometricPrecision" stroke-miterlimit="1.45" shape-rendering="geometricPrecision" transform="matrix(1,0,0,1,-525,-50)" stroke-linecap="butt">
      <rect x="540" y="132" clip-path="url(#clipPath2)" fill="none" width="184" rx="24.5" ry="24.5" height="49"/>
      <text x="609.084" xml:space="preserve" y="160.6543" clip-path="url(#clipPath2)" font-family="sans-serif" stroke="none">Начало</text>
    </g>
    <g text-rendering="geometricPrecision" stroke-miterlimit="1.45" shape-rendering="geometricPrecision" transform="matrix(1,0,0,1,-525,-50)" stroke-linecap="butt">
      <path fill="none" d="M837.25 65 L804 65 L804 248 L837.25 248" clip-path="url(#clipPath2)"/>
      <text x="815.7314" xml:space="preserve" y="83.8262" clip-path="url(#clipPath2)" font-family="sans-serif" stroke="none">Муравьиный алгоритм</text>
      <text x="815.7314" xml:space="preserve" y="97.7949" clip-path="url(#clipPath2)" font-family="sans-serif" stroke="none">Вход:</text>
      <text x="815.7314" xml:space="preserve" y="111.7637" clip-path="url(#clipPath2)" font-family="sans-serif" stroke="none">mtr_adj - матрица смежностей</text>
      <text x="815.7314" xml:space="preserve" y="125.7324" clip-path="url(#clipPath2)" font-family="sans-serif" stroke="none">size - количество  городов</text>
      <text x="815.7314" xml:space="preserve" y="139.7012" clip-path="url(#clipPath2)" font-family="sans-serif" stroke="none">(размер матрицы)</text>
      <text x="815.7314" xml:space="preserve" y="153.6699" clip-path="url(#clipPath2)" font-family="sans-serif" stroke="none">alpha - пар-р влияния видимости пути</text>
      <text x="815.7314" xml:space="preserve" y="167.6387" clip-path="url(#clipPath2)" font-family="sans-serif" stroke="none">beta - параметр влияния феромона</text>
      <text x="815.7314" xml:space="preserve" y="181.6074" clip-path="url(#clipPath2)" font-family="sans-serif" stroke="none">evoparation - коэф-т испарения</text>
      <text x="815.7314" xml:space="preserve" y="195.5762" clip-path="url(#clipPath2)" font-family="sans-serif" stroke="none">cnt_days - количество дней</text>
      <text x="815.7314" xml:space="preserve" y="209.5449" clip-path="url(#clipPath2)" font-family="sans-serif" stroke="none">Выход:</text>
      <text x="815.7314" xml:space="preserve" y="223.5137" clip-path="url(#clipPath2)" font-family="sans-serif" stroke="none">минимальный маршрут min_route</text>
      <text x="815.7314" xml:space="preserve" y="237.4824" clip-path="url(#clipPath2)" font-family="sans-serif" stroke="none">и его стоимость min_cost</text>
    </g>
    <g text-rendering="geometricPrecision" stroke-miterlimit="1.45" shape-rendering="geometricPrecision" transform="matrix(1,0,0,1,-525,-50)" stroke-linecap="butt">
      <rect fill="none" x="540" width="184" height="49" y="206" clip-path="url(#clipPath2)"/>
      <path fill="none" d="M550 206 L550 255 M714 206 L714 255 M550 206 Z" clip-path="url(#clipPath2)"/>
      <text x="555.3682" xml:space="preserve" y="234.6543" clip-path="url(#clipPath2)" font-family="sans-serif" stroke="none">Вычисление значения Q</text>
    </g>
    <g text-rendering="geometricPrecision" stroke-miterlimit="1.45" shape-rendering="geometricPrecision" transform="matrix(1,0,0,1,-525,-50)" stroke-linecap="butt">
      <path fill="none" d="M540 270 L724 270 L724 321 L540 321 Z" clip-path="url(#clipPath2)"/>
      <text x="549.6289" xml:space="preserve" y="299.6543" clip-path="url(#clipPath2)" font-family="sans-serif" stroke="none">Инициализация min_route</text>
    </g>
    <g text-rendering="geometricPrecision" stroke-miterlimit="1.45" shape-rendering="geometricPrecision" transform="matrix(1,0,0,1,-525,-50)" stroke-linecap="butt">
      <path fill="none" d="M540 334 L724 334 L724 385 L540 385 Z" clip-path="url(#clipPath2)"/>
      <text x="586.792" xml:space="preserve" y="363.6543" clip-path="url(#clipPath2)" font-family="sans-serif" stroke="none">min_cost := inf</text>
    </g>
    <g text-rendering="geometricPrecision" stroke-miterlimit="1.45" shape-rendering="geometricPrecision" transform="matrix(1,0,0,1,-525,-50)" stroke-linecap="butt">
      <rect fill="none" x="540" width="184" height="49" y="398" clip-path="url(#clipPath2)"/>
      <path fill="none" d="M550 398 L550 447 M714 398 L714 447 M550 398 Z" clip-path="url(#clipPath2)"/>
      <text x="551.7002" xml:space="preserve" y="419.6699" clip-path="url(#clipPath2)" font-family="sans-serif" stroke="none">Инициализация матрицы</text>
      <text x="563.3604" xml:space="preserve" y="433.6387" clip-path="url(#clipPath2)" font-family="sans-serif" stroke="none">феромонов mtr_phero</text>
    </g>
    <g text-rendering="geometricPrecision" stroke-miterlimit="1.45" shape-rendering="geometricPrecision" transform="matrix(1,0,0,1,-525,-50)" stroke-linecap="butt">
      <rect fill="none" x="540" width="184" height="49" y="460" clip-path="url(#clipPath2)"/>
      <path fill="none" d="M550 460 L550 509 M714 460 L714 509 M550 460 Z" clip-path="url(#clipPath2)"/>
      <text x="551.7002" xml:space="preserve" y="481.6699" clip-path="url(#clipPath2)" font-family="sans-serif" stroke="none">Инициализация матрицы</text>
      <text x="568.2354" xml:space="preserve" y="495.6387" clip-path="url(#clipPath2)" font-family="sans-serif" stroke="none">видимости mtr_visib</text>
    </g>
    <g text-rendering="geometricPrecision" stroke-miterlimit="1.45" shape-rendering="geometricPrecision" transform="matrix(1,0,0,1,-525,-50)" stroke-linecap="butt">
      <path fill="none" d="M540 527 L724 527 L724 576 L540 576 Z" clip-path="url(#clipPath2)"/>
      <text x="563.3281" xml:space="preserve" y="548.6699" clip-path="url(#clipPath2)" font-family="sans-serif" stroke="none">Количество муравьев</text>
      <text x="584.0908" xml:space="preserve" y="562.6387" clip-path="url(#clipPath2)" font-family="sans-serif" stroke="none">cnt_ants := size</text>
    </g>
    <g text-rendering="geometricPrecision" stroke-miterlimit="1.45" shape-rendering="geometricPrecision" transform="matrix(1,0,0,1,-525,-50)" stroke-linecap="butt">
      <path fill="none" d="M550 661 L714 661 L724 671 L724 710 L540 710 L540 671 Z" clip-path="url(#clipPath2)"/>
      <text x="576.834" xml:space="preserve" y="682.6699" clip-path="url(#clipPath2)" font-family="sans-serif" stroke="none">Цикл по day от 0 </text>
      <text x="585.8604" xml:space="preserve" y="696.6387" clip-path="url(#clipPath2)" font-family="sans-serif" stroke="none">до cnt_days - 1</text>
    </g>
    <g text-rendering="geometricPrecision" stroke-miterlimit="1.45" shape-rendering="geometricPrecision" transform="matrix(1,0,0,1,-525,-50)" stroke-linecap="butt">
      <path fill="none" d="M540 594 L724 594 L724 643 L540 643 Z" clip-path="url(#clipPath2)"/>
      <text x="558.7637" xml:space="preserve" y="608.6855" clip-path="url(#clipPath2)" font-family="sans-serif" stroke="none">Размещение муравьев </text>
      <text x="557.6094" xml:space="preserve" y="622.6543" clip-path="url(#clipPath2)" font-family="sans-serif" stroke="none">в случайно выбранные </text>
      <text x="557.8086" xml:space="preserve" y="636.623" clip-path="url(#clipPath2)" font-family="sans-serif" stroke="none">города без совпадений</text>
    </g>
    <g text-rendering="geometricPrecision" stroke-miterlimit="1.45" shape-rendering="geometricPrecision" transform="matrix(1,0,0,1,-525,-50)" stroke-linecap="butt">
      <path fill="none" d="M550 728 L714 728 L724 738 L724 777 L540 777 L540 738 Z" clip-path="url(#clipPath2)"/>
      <text x="584.3955" xml:space="preserve" y="749.6699" clip-path="url(#clipPath2)" font-family="sans-serif" stroke="none">Цикл по k от 0 </text>
      <text x="587.0645" xml:space="preserve" y="763.6387" clip-path="url(#clipPath2)" font-family="sans-serif" stroke="none">до cnt_ants - 1</text>
    </g>
    <g text-rendering="geometricPrecision" stroke-miterlimit="1.45" shape-rendering="geometricPrecision" transform="matrix(1,0,0,1,-525,-50)" stroke-linecap="butt">
      <circle fill="none" r="24.5" clip-path="url(#clipPath2)" cx="632" cy="819.5"/>
      <text x="627.8955" xml:space="preserve" y="823.6543" clip-path="url(#clipPath2)" font-family="sans-serif" stroke="none">A</text>
    </g>
    <g text-rendering="geometricPrecision" stroke-miterlimit="1.45" shape-rendering="geometricPrecision" transform="matrix(1,0,0,1,-525,-50)" stroke-linecap="butt">
      <rect fill="none" x="840" width="184" height="49" y="350" clip-path="url(#clipPath2)"/>
      <path fill="none" d="M850 350 L850 399 M1014 350 L1014 399 M850 350 Z" clip-path="url(#clipPath2)"/>
      <text x="860.3984" xml:space="preserve" y="364.6855" clip-path="url(#clipPath2)" font-family="sans-serif" stroke="none">Построение маршрута</text>
      <text x="851.293" xml:space="preserve" y="378.6543" clip-path="url(#clipPath2)" font-family="sans-serif" stroke="none">curr_route и определение</text>
      <text x="869.6445" xml:space="preserve" y="392.623" clip-path="url(#clipPath2)" font-family="sans-serif" stroke="none">его длины curr_cost</text>
    </g>
    <g text-rendering="geometricPrecision" stroke-miterlimit="1.45" shape-rendering="geometricPrecision" transform="matrix(1,0,0,1,-525,-50)" stroke-linecap="butt">
      <path fill="none" d="M932 417 L1024 449 L932 481 L840 449 Z" clip-path="url(#clipPath2)"/>
      <text x="863.8203" xml:space="preserve" y="453.1543" clip-path="url(#clipPath2)" font-family="sans-serif" stroke="none">curr_cost &lt; min_cost ?</text>
    </g>
    <g text-rendering="geometricPrecision" stroke-miterlimit="1.45" shape-rendering="geometricPrecision" transform="matrix(1,0,0,1,-525,-50)" stroke-linecap="butt">
      <path fill="none" d="M991 475 L1175 475 L1175 526 L991 526 Z" clip-path="url(#clipPath2)"/>
      <text x="1017.8906" xml:space="preserve" y="504.6543" clip-path="url(#clipPath2)" font-family="sans-serif" stroke="none">min_cost := curr_cost</text>
    </g>
    <g text-rendering="geometricPrecision" stroke-miterlimit="1.45" shape-rendering="geometricPrecision" transform="matrix(1,0,0,1,-525,-50)" stroke-linecap="butt">
      <path fill="none" d="M991 545 L1175 545 L1175 596 L991 596 Z" clip-path="url(#clipPath2)"/>
      <text x="1010.8184" xml:space="preserve" y="574.6543" clip-path="url(#clipPath2)" font-family="sans-serif" stroke="none">min_route := curr_route</text>
    </g>
    <g text-rendering="geometricPrecision" stroke-miterlimit="1.45" shape-rendering="geometricPrecision" transform="matrix(1,0,0,1,-525,-50)" stroke-linecap="butt">
      <path fill="none" d="M840 626 L1024 626 L1024 665 L1014 675 L850 675 L840 665 Z" clip-path="url(#clipPath2)"/>
      <text x="876.4619" xml:space="preserve" y="654.6543" clip-path="url(#clipPath2)" font-family="sans-serif" stroke="none">Конец цикла по k</text>
    </g>
    <g text-rendering="geometricPrecision" stroke-miterlimit="1.45" shape-rendering="geometricPrecision" transform="matrix(1,0,0,1,-525,-50)" stroke-linecap="butt">
      <rect fill="none" x="840" width="184" height="49" y="691" clip-path="url(#clipPath2)"/>
      <path fill="none" d="M850 691 L850 740 M1014 691 L1014 740 M850 691 Z" clip-path="url(#clipPath2)"/>
      <text x="870.6611" xml:space="preserve" y="712.6699" clip-path="url(#clipPath2)" font-family="sans-serif" stroke="none">Обновить матрицу </text>
      <text x="863.3604" xml:space="preserve" y="726.6387" clip-path="url(#clipPath2)" font-family="sans-serif" stroke="none">феромонов mtr_phero</text>
    </g>
    <g text-rendering="geometricPrecision" stroke-miterlimit="1.45" shape-rendering="geometricPrecision" transform="matrix(1,0,0,1,-525,-50)" stroke-linecap="butt">
      <path fill="none" d="M840 756 L1024 756 L1024 795 L1014 805 L850 805 L840 795 Z" clip-path="url(#clipPath2)"/>
      <text x="868.9004" xml:space="preserve" y="784.6543" clip-path="url(#clipPath2)" font-family="sans-serif" stroke="none">Конец цикла по day</text>
    </g>
    <g text-rendering="geometricPrecision" stroke-miterlimit="1.45" shape-rendering="geometricPrecision" transform="matrix(1,0,0,1,-525,-50)" stroke-linecap="butt">
      <rect x="840" y="821" clip-path="url(#clipPath2)" fill="none" width="184" rx="24.5" ry="24.5" height="49"/>
      <text x="912.3711" xml:space="preserve" y="849.6543" clip-path="url(#clipPath2)" font-family="sans-serif" stroke="none">Конец</text>
    </g>
    <g text-rendering="geometricPrecision" stroke-miterlimit="1.45" shape-rendering="geometricPrecision" transform="matrix(1,0,0,1,-525,-50)" stroke-linecap="butt">
      <circle fill="none" r="24.5" clip-path="url(#clipPath2)" cx="932" cy="307.5"/>
      <text x="927.8955" xml:space="preserve" y="311.6543" clip-path="url(#clipPath2)" font-family="sans-serif" stroke="none">A</text>
    </g>
    <g text-rendering="geometricPrecision" stroke-miterlimit="1.45" stroke-dasharray="6,2" shape-rendering="geometricPrecision" transform="matrix(1,0,0,1,-525,-50)" stroke-linecap="butt">
      <path fill="none" d="M803.972 156.5 L723.9899 156.5" clip-path="url(#clipPath2)"/>
    </g>
    <g text-rendering="geometricPrecision" stroke-miterlimit="1.45" shape-rendering="geometricPrecision" transform="matrix(1,0,0,1,-525,-50)" stroke-linecap="butt">
      <path fill="none" d="M632 181.0342 L632 206.0086" clip-path="url(#clipPath2)"/>
      <path fill="none" d="M632 254.9702 L632 269.971" clip-path="url(#clipPath2)"/>
      <path fill="none" d="M632 320.9688 L632 334.0257" clip-path="url(#clipPath2)"/>
      <path fill="none" d="M632 385.0015 L632 398.0014" clip-path="url(#clipPath2)"/>
      <path fill="none" d="M632 446.9912 L632 459.9948" clip-path="url(#clipPath2)"/>
      <path fill="none" d="M632 509.0034 L632 526.9731" clip-path="url(#clipPath2)"/>
      <path fill="none" d="M632 576.0034 L632 593.9731" clip-path="url(#clipPath2)"/>
      <path fill="none" d="M632 643.0034 L632 660.9731" clip-path="url(#clipPath2)"/>
      <path fill="none" d="M632 710.0034 L632 727.9731" clip-path="url(#clipPath2)"/>
      <path fill="none" d="M632 777.0034 L632 794.9731" clip-path="url(#clipPath2)"/>
      <path fill="none" d="M932 398.9817 L932 417.0059" clip-path="url(#clipPath2)"/>
      <path fill="none" d="M1023.9788 449 L1083 449 L1083 474.9763" clip-path="url(#clipPath2)"/>
      <text x="1052.8179" xml:space="preserve" y="446.9463" clip-path="url(#clipPath2)" font-family="sans-serif" stroke="none">Да</text>
      <path fill="none" d="M1083 526.0322 L1083 545.0092" clip-path="url(#clipPath2)"/>
      <path fill="none" d="M840.0066 449 L789 449 L789 610.3333 L932 610.3333 L932 625.9842" clip-path="url(#clipPath2)"/>
      <path fill="none" d="M1083 595.9793 L1083 610.3333 L932 610.3333 L932 625.9842" clip-path="url(#clipPath2)"/>
      <path fill="none" d="M932 674.9702 L932 691.0001" clip-path="url(#clipPath2)"/>
      <path fill="none" d="M932 739.9702 L932 756.0001" clip-path="url(#clipPath2)"/>
      <path fill="none" d="M932 804.9702 L932 821.0001" clip-path="url(#clipPath2)"/>
      <path fill="none" d="M932 332.0034 L932 349.9732" clip-path="url(#clipPath2)"/>
    </g>
  </g>
</svg>
