<?xml version="1.0" encoding="UTF-8"?><svg xmlns="http://www.w3.org/2000/svg" xmlns:xlink="http://www.w3.org/1999/xlink" fill-opacity="1" color-rendering="auto" color-interpolation="auto" text-rendering="auto" stroke="black" stroke-linecap="square" width="575" stroke-miterlimit="10" shape-rendering="auto" stroke-opacity="1" fill="black" stroke-dasharray="none" font-weight="normal" stroke-width="1" height="796" font-family="'Dialog'" font-style="normal" stroke-linejoin="miter" font-size="12px" stroke-dashoffset="0" image-rendering="auto">
  <!--Generated by ySVG 2.6-->
  <defs id="genericDefs"/>
  <g>
    <defs id="defs1">
      <clipPath clipPathUnits="userSpaceOnUse" id="clipPath1">
        <path d="M0 0 L575 0 L575 796 L0 796 L0 0 Z"/>
      </clipPath>
      <clipPath clipPathUnits="userSpaceOnUse" id="clipPath2">
        <path d="M486 77 L1061 77 L1061 873 L486 873 L486 77 Z"/>
      </clipPath>
    </defs>
    <g fill="white" text-rendering="geometricPrecision" shape-rendering="geometricPrecision" transform="translate(-486,-77)" stroke="white">
      <rect x="486" width="575" height="796" y="77" clip-path="url(#clipPath2)" stroke="none"/>
    </g>
    <g text-rendering="geometricPrecision" stroke-miterlimit="1.45" shape-rendering="geometricPrecision" transform="matrix(1,0,0,1,-486,-77)" stroke-linecap="butt">
      <rect x="556" y="136.5" clip-path="url(#clipPath2)" fill="none" width="192" rx="25.5" ry="25.5" height="51"/>
      <text x="629.084" xml:space="preserve" y="166.1543" clip-path="url(#clipPath2)" font-family="sans-serif" stroke="none">Начало</text>
    </g>
    <g text-rendering="geometricPrecision" stroke-miterlimit="1.45" shape-rendering="geometricPrecision" transform="matrix(1,0,0,1,-486,-77)" stroke-linecap="butt">
      <path fill="none" d="M845.625 92.5 L817 92.5 L817 231.5 L845.625 231.5" clip-path="url(#clipPath2)"/>
      <text x="824.6484" xml:space="preserve" y="110.2793" clip-path="url(#clipPath2)" font-family="sans-serif" stroke="none">Алгоритм полного </text>
      <text x="824.6484" xml:space="preserve" y="124.248" clip-path="url(#clipPath2)" font-family="sans-serif" stroke="none">перебора</text>
      <text x="824.6484" xml:space="preserve" y="138.2168" clip-path="url(#clipPath2)" font-family="sans-serif" stroke="none">Вход:</text>
      <text x="824.6484" xml:space="preserve" y="152.1855" clip-path="url(#clipPath2)" font-family="sans-serif" stroke="none">mtr_adj - матрица смежностей</text>
      <text x="824.6484" xml:space="preserve" y="166.1543" clip-path="url(#clipPath2)" font-family="sans-serif" stroke="none">size - количество городов</text>
      <text x="824.6484" xml:space="preserve" y="180.123" clip-path="url(#clipPath2)" font-family="sans-serif" stroke="none">(размер матрицы)</text>
      <text x="824.6484" xml:space="preserve" y="194.0918" clip-path="url(#clipPath2)" font-family="sans-serif" stroke="none">Выход:</text>
      <text x="824.6484" xml:space="preserve" y="208.0605" clip-path="url(#clipPath2)" font-family="sans-serif" stroke="none">минимальный маршрут min_route</text>
      <text x="824.6484" xml:space="preserve" y="222.0293" clip-path="url(#clipPath2)" font-family="sans-serif" stroke="none">и его стоимость min_cost</text>
    </g>
    <g text-rendering="geometricPrecision" stroke-miterlimit="1.45" shape-rendering="geometricPrecision" transform="matrix(1,0,0,1,-486,-77)" stroke-linecap="butt">
      <path fill="none" d="M556 200.5 L748 200.5 L748 251.5 L556 251.5 Z" clip-path="url(#clipPath2)"/>
      <text x="569.6289" xml:space="preserve" y="230.1543" clip-path="url(#clipPath2)" font-family="sans-serif" stroke="none">Инициализация min_route</text>
    </g>
    <g text-rendering="geometricPrecision" stroke-miterlimit="1.45" shape-rendering="geometricPrecision" transform="matrix(1,0,0,1,-486,-77)" stroke-linecap="butt">
      <path fill="none" d="M556 264.5 L748 264.5 L748 315.5 L556 315.5 Z" clip-path="url(#clipPath2)"/>
      <text x="606.792" xml:space="preserve" y="294.1543" clip-path="url(#clipPath2)" font-family="sans-serif" stroke="none">min_cost := inf</text>
    </g>
    <g text-rendering="geometricPrecision" stroke-miterlimit="1.45" shape-rendering="geometricPrecision" transform="matrix(1,0,0,1,-486,-77)" stroke-linecap="butt">
      <path fill="none" d="M556 328.5 L748 328.5 L748 379.5 L556 379.5 Z" clip-path="url(#clipPath2)"/>
      <text x="572.1074" xml:space="preserve" y="344.1855" clip-path="url(#clipPath2)" font-family="sans-serif" stroke="none">Инициализация массива </text>
      <text x="590.0986" xml:space="preserve" y="358.1543" clip-path="url(#clipPath2)" font-family="sans-serif" stroke="none">всех перестановок </text>
      <text x="626.3418" xml:space="preserve" y="372.123" clip-path="url(#clipPath2)" font-family="sans-serif" stroke="none">городов</text>
    </g>
    <g text-rendering="geometricPrecision" stroke-miterlimit="1.45" shape-rendering="geometricPrecision" transform="matrix(1,0,0,1,-486,-77)" stroke-linecap="butt">
      <path fill="none" d="M566 392.5 L738 392.5 L748 402.5 L748 443.5 L556 443.5 L556 402.5 Z" clip-path="url(#clipPath2)"/>
      <text x="607.6152" xml:space="preserve" y="415.1699" clip-path="url(#clipPath2)" font-family="sans-serif" stroke="none">Цикл по всем </text>
      <text x="575.8926" xml:space="preserve" y="429.1387" clip-path="url(#clipPath2)" font-family="sans-serif" stroke="none">перестановкам городов</text>
    </g>
    <g text-rendering="geometricPrecision" stroke-miterlimit="1.45" shape-rendering="geometricPrecision" transform="matrix(1,0,0,1,-486,-77)" stroke-linecap="butt">
      <path fill="none" d="M556 456.5 L748 456.5 L748 507.5 L556 507.5 Z" clip-path="url(#clipPath2)"/>
      <text x="585.25" xml:space="preserve" y="472.1855" clip-path="url(#clipPath2)" font-family="sans-serif" stroke="none">Получить стоимость </text>
      <text x="578.251" xml:space="preserve" y="486.1543" clip-path="url(#clipPath2)" font-family="sans-serif" stroke="none">текущей перестановки</text>
      <text x="624.5166" xml:space="preserve" y="500.123" clip-path="url(#clipPath2)" font-family="sans-serif" stroke="none">curr_cost</text>
    </g>
    <g text-rendering="geometricPrecision" stroke-miterlimit="1.45" shape-rendering="geometricPrecision" transform="matrix(1,0,0,1,-486,-77)" stroke-linecap="butt">
      <path fill="none" d="M652 520.5 L748 552.5 L652 584.5 L556 552.5 Z" clip-path="url(#clipPath2)"/>
      <text x="583.8203" xml:space="preserve" y="556.6543" clip-path="url(#clipPath2)" font-family="sans-serif" stroke="none">curr_cost &lt; min_cost ?</text>
    </g>
    <g text-rendering="geometricPrecision" stroke-miterlimit="1.45" shape-rendering="geometricPrecision" transform="matrix(1,0,0,1,-486,-77)" stroke-linecap="butt">
      <path fill="none" d="M707 584.5 L899 584.5 L899 635.5 L707 635.5 Z" clip-path="url(#clipPath2)"/>
      <text x="737.8906" xml:space="preserve" y="614.1543" clip-path="url(#clipPath2)" font-family="sans-serif" stroke="none">min_cost := curr_cost</text>
    </g>
    <g text-rendering="geometricPrecision" stroke-miterlimit="1.45" shape-rendering="geometricPrecision" transform="matrix(1,0,0,1,-486,-77)" stroke-linecap="butt">
      <path fill="none" d="M707 659.5 L899 659.5 L899 710.5 L707 710.5 Z" clip-path="url(#clipPath2)"/>
      <text x="761.8379" xml:space="preserve" y="682.1699" clip-path="url(#clipPath2)" font-family="sans-serif" stroke="none">min_route := </text>
      <text x="729.7783" xml:space="preserve" y="696.1387" clip-path="url(#clipPath2)" font-family="sans-serif" stroke="none">текущая перестановка</text>
    </g>
    <g text-rendering="geometricPrecision" stroke-miterlimit="1.45" shape-rendering="geometricPrecision" transform="matrix(1,0,0,1,-486,-77)" stroke-linecap="butt">
      <path fill="none" d="M556 740.5 L748 740.5 L748 781.5 L738 791.5 L566 791.5 L556 781.5 Z" clip-path="url(#clipPath2)"/>
      <text x="599.9365" xml:space="preserve" y="763.1699" clip-path="url(#clipPath2)" font-family="sans-serif" stroke="none">Конец цикла по </text>
      <text x="575.8926" xml:space="preserve" y="777.1387" clip-path="url(#clipPath2)" font-family="sans-serif" stroke="none">перестановкам городов</text>
    </g>
    <g text-rendering="geometricPrecision" stroke-miterlimit="1.45" shape-rendering="geometricPrecision" transform="matrix(1,0,0,1,-486,-77)" stroke-linecap="butt">
      <rect x="556" y="806.5" clip-path="url(#clipPath2)" fill="none" width="192" rx="25.5" ry="25.5" height="51"/>
      <text x="632.3711" xml:space="preserve" y="836.1543" clip-path="url(#clipPath2)" font-family="sans-serif" stroke="none">Конец</text>
    </g>
    <g text-rendering="geometricPrecision" stroke-miterlimit="1.45" shape-rendering="geometricPrecision" transform="matrix(1,0,0,1,-486,-77)" stroke-linecap="butt">
      <path fill="none" d="M817.0319 162 L748.0134 162" clip-path="url(#clipPath2)"/>
    </g>
    <g text-rendering="geometricPrecision" stroke-miterlimit="1.45" shape-rendering="geometricPrecision" transform="matrix(1,0,0,1,-486,-77)" stroke-linecap="butt">
      <path fill="none" d="M652 187.4688 L652 200.5257" clip-path="url(#clipPath2)"/>
      <path fill="none" d="M652 251.4688 L652 264.5257" clip-path="url(#clipPath2)"/>
      <path fill="none" d="M652 315.4688 L652 328.5257" clip-path="url(#clipPath2)"/>
      <path fill="none" d="M652 379.4688 L652 392.5257" clip-path="url(#clipPath2)"/>
      <path fill="none" d="M652 443.4688 L652 456.5257" clip-path="url(#clipPath2)"/>
      <path fill="none" d="M652 507.5081 L652 520.4696" clip-path="url(#clipPath2)"/>
      <path fill="none" d="M748.0339 552.5 L803 552.5 L803 584.4788" clip-path="url(#clipPath2)"/>
      <text x="774.8179" xml:space="preserve" y="550.4463" clip-path="url(#clipPath2)" font-family="sans-serif" stroke="none">Да</text>
      <path fill="none" d="M803 635.5249 L803 659.5377" clip-path="url(#clipPath2)"/>
      <path fill="none" d="M555.9661 552.5 L501 552.5 L501 730.5 L652 730.5 L652 740.519" clip-path="url(#clipPath2)"/>
      <path fill="none" d="M803 710.4604 L803 730.5 L652 730.5 L652 740.519" clip-path="url(#clipPath2)"/>
      <path fill="none" d="M652 791.4912 L652 806.4842" clip-path="url(#clipPath2)"/>
    </g>
  </g>
</svg>
