<?xml version="1.0" encoding="UTF-8"?><svg xmlns="http://www.w3.org/2000/svg" xmlns:xlink="http://www.w3.org/1999/xlink" fill-opacity="1" color-rendering="auto" color-interpolation="auto" text-rendering="auto" stroke="black" stroke-linecap="square" width="546" stroke-miterlimit="10" shape-rendering="auto" stroke-opacity="1" fill="black" stroke-dasharray="none" font-weight="normal" stroke-width="1" height="810" font-family="'Dialog'" font-style="normal" stroke-linejoin="miter" font-size="12px" stroke-dashoffset="0" image-rendering="auto">
  <!--Generated by ySVG 2.6-->
  <defs id="genericDefs"/>
  <g>
    <defs id="defs1">
      <clipPath clipPathUnits="userSpaceOnUse" id="clipPath1">
        <path d="M0 0 L546 0 L546 810 L0 810 L0 0 Z"/>
      </clipPath>
      <clipPath clipPathUnits="userSpaceOnUse" id="clipPath2">
        <path d="M565 149 L1111 149 L1111 959 L565 959 L565 149 Z"/>
      </clipPath>
    </defs>
    <g fill="white" text-rendering="geometricPrecision" shape-rendering="geometricPrecision" transform="translate(-565,-149)" stroke="white">
      <rect x="565" width="546" height="810" y="149" clip-path="url(#clipPath2)" stroke="none"/>
    </g>
    <g text-rendering="geometricPrecision" stroke-miterlimit="1.45" shape-rendering="geometricPrecision" transform="matrix(1,0,0,1,-565,-149)" stroke-linecap="butt">
      <rect x="580" y="180.25" clip-path="url(#clipPath2)" fill="none" width="212" rx="38" ry="38" height="76"/>
      <text x="663.084" xml:space="preserve" y="222.4043" clip-path="url(#clipPath2)" font-family="sans-serif" stroke="none">Начало</text>
    </g>
    <g text-rendering="geometricPrecision" stroke-miterlimit="1.45" shape-rendering="geometricPrecision" transform="matrix(1,0,0,1,-565,-149)" stroke-linecap="butt">
      <path fill="none" d="M879.875 164 L849 164 L849 272.5 L879.875 272.5" clip-path="url(#clipPath2)"/>
      <text x="859.9238" xml:space="preserve" y="180.498" clip-path="url(#clipPath2)" font-family="sans-serif" stroke="none">Алгоритм работы 2-го потока</text>
      <text x="859.9238" xml:space="preserve" y="194.4668" clip-path="url(#clipPath2)" font-family="sans-serif" stroke="none">Вход:</text>
      <text x="859.9238" xml:space="preserve" y="208.4355" clip-path="url(#clipPath2)" font-family="sans-serif" stroke="none">numAppl - количество заявок</text>
      <text x="859.9238" xml:space="preserve" y="222.4043" clip-path="url(#clipPath2)" font-family="sans-serif" stroke="none">q1 - очередь между потоками 1 и 2</text>
      <text x="859.9238" xml:space="preserve" y="236.373" clip-path="url(#clipPath2)" font-family="sans-serif" stroke="none">q2 - очередь между потоками 2 и 3</text>
      <text x="859.9238" xml:space="preserve" y="250.3418" clip-path="url(#clipPath2)" font-family="sans-serif" stroke="none">Выход:</text>
      <text x="859.9238" xml:space="preserve" y="264.3105" clip-path="url(#clipPath2)" font-family="sans-serif" stroke="none">Словари N-грамм</text>
    </g>
    <g text-rendering="geometricPrecision" stroke-miterlimit="1.45" shape-rendering="geometricPrecision" transform="matrix(1,0,0,1,-565,-149)" stroke-linecap="butt">
      <path fill="none" d="M590 267.25 L782 267.25 L792 277.25 L792 343.25 L580 343.25 L580 277.25 Z" clip-path="url(#clipPath2)"/>
      <text x="593.8408" xml:space="preserve" y="309.4043" clip-path="url(#clipPath2)" font-family="sans-serif" stroke="none">Цикл по i от 0 до numAppl - 1</text>
    </g>
    <g text-rendering="geometricPrecision" stroke-miterlimit="1.45" shape-rendering="geometricPrecision" transform="matrix(1,0,0,1,-565,-149)" stroke-linecap="butt">
      <rect x="580" y="867.25" clip-path="url(#clipPath2)" fill="none" width="212" rx="38" ry="38" height="76"/>
      <text x="666.3711" xml:space="preserve" y="909.4043" clip-path="url(#clipPath2)" font-family="sans-serif" stroke="none">Конец</text>
    </g>
    <g text-rendering="geometricPrecision" stroke-miterlimit="1.45" shape-rendering="geometricPrecision" transform="matrix(1,0,0,1,-565,-149)" stroke-linecap="butt">
      <path fill="none" d="M580 699.25 L792 699.25 L792 775.25 L580 775.25 Z" clip-path="url(#clipPath2)"/>
      <text x="597.1426" xml:space="preserve" y="720.4512" clip-path="url(#clipPath2)" font-family="sans-serif" stroke="none">Обеспечение монопольного</text>
      <text x="624.4355" xml:space="preserve" y="734.4199" clip-path="url(#clipPath2)" font-family="sans-serif" stroke="none">доступа к очереди </text>
      <text x="607.7656" xml:space="preserve" y="748.3887" clip-path="url(#clipPath2)" font-family="sans-serif" stroke="none">заявок q2 и добавление </text>
      <text x="631.0215" xml:space="preserve" y="762.3574" clip-path="url(#clipPath2)" font-family="sans-serif" stroke="none">заявки в очередь</text>
    </g>
    <g text-rendering="geometricPrecision" stroke-miterlimit="1.45" shape-rendering="geometricPrecision" transform="matrix(1,0,0,1,-565,-149)" stroke-linecap="butt">
      <path fill="none" d="M580 784.75 L792 784.75 L792 847.75 L782 857.75 L590 857.75 L580 847.75 Z" clip-path="url(#clipPath2)"/>
      <text x="632.2695" xml:space="preserve" y="825.4043" clip-path="url(#clipPath2)" font-family="sans-serif" stroke="none">Конец цикла по i</text>
    </g>
    <g text-rendering="geometricPrecision" stroke-miterlimit="1.45" shape-rendering="geometricPrecision" transform="matrix(1,0,0,1,-565,-149)" stroke-linecap="butt">
      <path fill="none" d="M590 354.25 L782 354.25 L792 364.25 L792 430.25 L580 430.25 L580 364.25 Z" clip-path="url(#clipPath2)"/>
      <text x="608.0586" xml:space="preserve" y="389.4199" clip-path="url(#clipPath2)" font-family="sans-serif" stroke="none">Цикл по q пока очередь </text>
      <text x="649.001" xml:space="preserve" y="403.3887" clip-path="url(#clipPath2)" font-family="sans-serif" stroke="none">q1 не пуста</text>
    </g>
    <g text-rendering="geometricPrecision" stroke-miterlimit="1.45" shape-rendering="geometricPrecision" transform="matrix(1,0,0,1,-565,-149)" stroke-linecap="butt">
      <path fill="none" d="M580 441.25 L792 441.25 L792 504.25 L782 514.25 L590 514.25 L580 504.25 Z" clip-path="url(#clipPath2)"/>
      <text x="630.1279" xml:space="preserve" y="481.9043" clip-path="url(#clipPath2)" font-family="sans-serif" stroke="none">Конец цикла по q</text>
    </g>
    <g text-rendering="geometricPrecision" stroke-miterlimit="1.45" shape-rendering="geometricPrecision" transform="matrix(1,0,0,1,-565,-149)" stroke-linecap="butt">
      <path fill="none" d="M580 525.25 L792 525.25 L792 601.25 L580 601.25 Z" clip-path="url(#clipPath2)"/>
      <text x="597.1426" xml:space="preserve" y="546.4512" clip-path="url(#clipPath2)" font-family="sans-serif" stroke="none">Обеспечение монопольного</text>
      <text x="624.4355" xml:space="preserve" y="560.4199" clip-path="url(#clipPath2)" font-family="sans-serif" stroke="none">доступа к очереди </text>
      <text x="609.7432" xml:space="preserve" y="574.3887" clip-path="url(#clipPath2)" font-family="sans-serif" stroke="none">заявок q1 и считывание</text>
      <text x="664.4639" xml:space="preserve" y="588.3574" clip-path="url(#clipPath2)" font-family="sans-serif" stroke="none">заявки</text>
    </g>
    <g text-rendering="geometricPrecision" stroke-miterlimit="1.45" shape-rendering="geometricPrecision" transform="matrix(1,0,0,1,-565,-149)" stroke-linecap="butt">
      <rect fill="none" x="580" width="212" height="76" y="612.25" clip-path="url(#clipPath2)"/>
      <path fill="none" d="M590 612.25 L590 688.25 M782 612.25 L782 688.25 M590 612.25 Z" clip-path="url(#clipPath2)"/>
      <text x="595.3672" xml:space="preserve" y="647.4199" clip-path="url(#clipPath2)" font-family="sans-serif" stroke="none">Составление файла-словаря</text>
      <text x="607.2119" xml:space="preserve" y="661.3887" clip-path="url(#clipPath2)" font-family="sans-serif" stroke="none">с N-граммами в 2 потока</text>
    </g>
    <g text-rendering="geometricPrecision" stroke-miterlimit="1.45" shape-rendering="geometricPrecision" transform="matrix(1,0,0,1,-565,-149)" stroke-linecap="butt">
      <path fill="none" d="M849.0098 218.25 L791.9803 218.25" clip-path="url(#clipPath2)"/>
    </g>
    <g text-rendering="geometricPrecision" stroke-miterlimit="1.45" shape-rendering="geometricPrecision" transform="matrix(1,0,0,1,-565,-149)" stroke-linecap="butt">
      <path fill="none" d="M686 256.27 L686 267.2235" clip-path="url(#clipPath2)"/>
      <path fill="none" d="M686 775.2715 L686 784.7455" clip-path="url(#clipPath2)"/>
      <path fill="none" d="M686 857.7129 L686 867.2296" clip-path="url(#clipPath2)"/>
      <path fill="none" d="M686 343.27 L686 354.2235" clip-path="url(#clipPath2)"/>
      <path fill="none" d="M686 430.2825 L686 441.2686" clip-path="url(#clipPath2)"/>
      <path fill="none" d="M686 514.2795 L686 525.231" clip-path="url(#clipPath2)"/>
      <path fill="none" d="M686 601.27 L686 612.2236" clip-path="url(#clipPath2)"/>
      <path fill="none" d="M686 688.27 L686 699.2236" clip-path="url(#clipPath2)"/>
    </g>
  </g>
</svg>
