<?xml version="1.0" encoding="UTF-8"?><svg xmlns="http://www.w3.org/2000/svg" xmlns:xlink="http://www.w3.org/1999/xlink" fill-opacity="1" color-rendering="auto" color-interpolation="auto" text-rendering="auto" stroke="black" stroke-linecap="square" width="425" stroke-miterlimit="10" shape-rendering="auto" stroke-opacity="1" fill="black" stroke-dasharray="none" font-weight="normal" stroke-width="1" height="656" font-family="'Dialog'" font-style="normal" stroke-linejoin="miter" font-size="12px" stroke-dashoffset="0" image-rendering="auto">
  <!--Generated by ySVG 2.6-->
  <defs id="genericDefs"/>
  <g>
    <defs id="defs1">
      <clipPath clipPathUnits="userSpaceOnUse" id="clipPath1">
        <path d="M0 0 L425 0 L425 656 L0 656 L0 0 Z"/>
      </clipPath>
      <clipPath clipPathUnits="userSpaceOnUse" id="clipPath2">
        <path d="M1077 122 L1502 122 L1502 778 L1077 778 L1077 122 Z"/>
      </clipPath>
    </defs>
    <g fill="white" text-rendering="geometricPrecision" shape-rendering="geometricPrecision" transform="translate(-1077,-122)" stroke="white">
      <rect x="1077" width="425" height="656" y="122" clip-path="url(#clipPath2)" stroke="none"/>
    </g>
    <g text-rendering="geometricPrecision" stroke-miterlimit="1.45" shape-rendering="geometricPrecision" transform="matrix(1,0,0,1,-1077,-122)" stroke-linecap="butt">
      <rect x="1094.0902" y="167.5302" clip-path="url(#clipPath2)" fill="none" width="158.08" rx="26.72" ry="26.72" height="53.44"/>
      <text x="1150.2142" xml:space="preserve" y="198.4045" clip-path="url(#clipPath2)" font-family="sans-serif" stroke="none">Начало</text>
    </g>
    <g text-rendering="geometricPrecision" stroke-miterlimit="1.45" shape-rendering="geometricPrecision" transform="matrix(1,0,0,1,-1077,-122)" stroke-linecap="butt">
      <path fill="none" d="M1325.325 137.4502 L1311.7249 137.4502 L1311.7249 251.0502 L1325.325 251.0502" clip-path="url(#clipPath2)"/>
      <text x="1321.8207" xml:space="preserve" y="156.4983" clip-path="url(#clipPath2)" font-family="sans-serif" stroke="none">Классический алгоритм </text>
      <text x="1321.8207" xml:space="preserve" y="170.467" clip-path="url(#clipPath2)" font-family="sans-serif" stroke="none">умножения матриц     </text>
      <text x="1321.8207" xml:space="preserve" y="184.4358" clip-path="url(#clipPath2)" font-family="sans-serif" stroke="none">Вход: </text>
      <text x="1321.8207" xml:space="preserve" y="198.4045" clip-path="url(#clipPath2)" font-family="sans-serif" stroke="none">матрица A размером NxM</text>
      <text x="1321.8207" xml:space="preserve" y="212.3733" clip-path="url(#clipPath2)" font-family="sans-serif" stroke="none">матрица B размером MxP</text>
      <text x="1321.8207" xml:space="preserve" y="226.342" clip-path="url(#clipPath2)" font-family="sans-serif" stroke="none">Выход:  </text>
      <text x="1321.8207" xml:space="preserve" y="240.3108" clip-path="url(#clipPath2)" font-family="sans-serif" stroke="none">матрица C размером NxP</text>
    </g>
    <g text-rendering="geometricPrecision" stroke-miterlimit="1.45" shape-rendering="geometricPrecision" transform="matrix(1,0,0,1,-1077,-122)" stroke-linecap="butt">
      <path fill="none" d="M1094.0902 227.7262 L1252.1703 227.7262 L1252.1703 281.1662 L1094.0902 281.1662 Z" clip-path="url(#clipPath2)"/>
      <text x="1112.1781" xml:space="preserve" y="244.6317" clip-path="url(#clipPath2)" font-family="sans-serif" stroke="none">Создать матрицу C</text>
      <text x="1119.0453" xml:space="preserve" y="258.6005" clip-path="url(#clipPath2)" font-family="sans-serif" stroke="none">размером  NxP и </text>
      <text x="1105.4398" xml:space="preserve" y="272.5692" clip-path="url(#clipPath2)" font-family="sans-serif" stroke="none">заполнить ее нулями</text>
    </g>
    <g text-rendering="geometricPrecision" stroke-miterlimit="1.45" shape-rendering="geometricPrecision" transform="matrix(1,0,0,1,-1077,-122)" stroke-linecap="butt">
      <path fill="none" d="M1104.0902 287.9221 L1242.1703 287.9221 L1252.1703 297.9221 L1252.1703 341.3621 L1094.0902 341.3621 L1094.0902 297.9221 Z" clip-path="url(#clipPath2)"/>
      <text x="1101.4144" xml:space="preserve" y="311.812" clip-path="url(#clipPath2)" font-family="sans-serif" stroke="none">Цикл по i от 0 до  N - 1</text>
      <text x="1141.683" xml:space="preserve" y="325.7808" clip-path="url(#clipPath2)" font-family="sans-serif" stroke="none">c шагом 1</text>
    </g>
    <g text-rendering="geometricPrecision" stroke-miterlimit="1.45" shape-rendering="geometricPrecision" transform="matrix(1,0,0,1,-1077,-122)" stroke-linecap="butt">
      <path fill="none" d="M1104.0902 348.118 L1242.1703 348.118 L1252.1703 358.118 L1252.1703 401.558 L1094.0902 401.558 L1094.0902 358.118 Z" clip-path="url(#clipPath2)"/>
      <text x="1102.2845" xml:space="preserve" y="372.0079" clip-path="url(#clipPath2)" font-family="sans-serif" stroke="none">Цикл по j от 0 до  P - 1</text>
      <text x="1141.683" xml:space="preserve" y="385.9767" clip-path="url(#clipPath2)" font-family="sans-serif" stroke="none">c шагом 1</text>
    </g>
    <g text-rendering="geometricPrecision" stroke-miterlimit="1.45" shape-rendering="geometricPrecision" transform="matrix(1,0,0,1,-1077,-122)" stroke-linecap="butt">
      <path fill="none" d="M1104.0902 408.3139 L1242.1703 408.3139 L1252.1703 418.3139 L1252.1703 461.7539 L1094.0902 461.7539 L1094.0902 418.3139 Z" clip-path="url(#clipPath2)"/>
      <text x="1098.9183" xml:space="preserve" y="432.2039" clip-path="url(#clipPath2)" font-family="sans-serif" stroke="none">Цикл по k от 0 до  M - 1</text>
      <text x="1141.683" xml:space="preserve" y="446.1726" clip-path="url(#clipPath2)" font-family="sans-serif" stroke="none">c шагом 1</text>
    </g>
    <g text-rendering="geometricPrecision" stroke-miterlimit="1.45" shape-rendering="geometricPrecision" transform="matrix(1,0,0,1,-1077,-122)" stroke-linecap="butt">
      <path fill="none" d="M1094.0902 468.5099 L1252.1703 468.5099 L1252.1703 521.9499 L1094.0902 521.9499 Z" clip-path="url(#clipPath2)"/>
      <text x="1098.3295" xml:space="preserve" y="499.3842" clip-path="url(#clipPath2)" font-family="sans-serif" stroke="none">С[i][j] += A[i][k] * B[k][j]</text>
    </g>
    <g text-rendering="geometricPrecision" stroke-miterlimit="1.45" shape-rendering="geometricPrecision" transform="matrix(1,0,0,1,-1077,-122)" stroke-linecap="butt">
      <path fill="none" d="M1092.6222 528.7058 L1250.7023 528.7058 L1250.7023 572.1458 L1240.7023 582.1458 L1102.6222 582.1458 L1092.6222 572.1458 Z" clip-path="url(#clipPath2)"/>
      <text x="1116.1241" xml:space="preserve" y="559.5801" clip-path="url(#clipPath2)" font-family="sans-serif" stroke="none">Конец цикла по k</text>
    </g>
    <g text-rendering="geometricPrecision" stroke-miterlimit="1.45" shape-rendering="geometricPrecision" transform="matrix(1,0,0,1,-1077,-122)" stroke-linecap="butt">
      <path fill="none" d="M1092.6222 588.9017 L1250.7023 588.9017 L1250.7023 632.3417 L1240.7023 642.3417 L1102.6222 642.3417 L1092.6222 632.3417 Z" clip-path="url(#clipPath2)"/>
      <text x="1117.9318" xml:space="preserve" y="619.776" clip-path="url(#clipPath2)" font-family="sans-serif" stroke="none">Конец цикла по j</text>
    </g>
    <g text-rendering="geometricPrecision" stroke-miterlimit="1.45" shape-rendering="geometricPrecision" transform="matrix(1,0,0,1,-1077,-122)" stroke-linecap="butt">
      <path fill="none" d="M1092.6222 649.0977 L1250.7023 649.0977 L1250.7023 692.5377 L1240.7023 702.5377 L1102.6222 702.5377 L1092.6222 692.5377 Z" clip-path="url(#clipPath2)"/>
      <text x="1117.9318" xml:space="preserve" y="679.9719" clip-path="url(#clipPath2)" font-family="sans-serif" stroke="none">Конец цикла по i</text>
    </g>
    <g text-rendering="geometricPrecision" stroke-miterlimit="1.45" shape-rendering="geometricPrecision" transform="matrix(1,0,0,1,-1077,-122)" stroke-linecap="butt">
      <rect x="1092.6222" y="709.2936" clip-path="url(#clipPath2)" fill="none" width="158.08" rx="26.72" ry="26.72" height="53.44"/>
      <text x="1152.0333" xml:space="preserve" y="740.1679" clip-path="url(#clipPath2)" font-family="sans-serif" stroke="none">Конец</text>
    </g>
    <g text-rendering="geometricPrecision" stroke-miterlimit="1.45" stroke-dasharray="6,2" shape-rendering="geometricPrecision" transform="matrix(1,0,0,1,-1077,-122)" stroke-linecap="butt">
      <path fill="none" d="M1311.7039 194.2502 L1252.1943 194.2502" clip-path="url(#clipPath2)"/>
    </g>
    <g text-rendering="geometricPrecision" stroke-miterlimit="1.45" shape-rendering="geometricPrecision" transform="matrix(1,0,0,1,-1077,-122)" stroke-linecap="butt">
      <path fill="none" d="M1173.1302 220.9681 L1173.1302 227.7356" clip-path="url(#clipPath2)"/>
      <path fill="none" d="M1173.1302 281.164 L1173.1302 287.9315" clip-path="url(#clipPath2)"/>
      <path fill="none" d="M1173.1302 341.3599 L1173.1302 348.1275" clip-path="url(#clipPath2)"/>
      <path fill="none" d="M1173.1302 401.5558 L1173.1302 408.3234" clip-path="url(#clipPath2)"/>
      <path fill="none" d="M1173.1302 461.7518 L1173.1302 468.5193" clip-path="url(#clipPath2)"/>
      <path fill="none" d="M1172.4786 521.9477 L1172.3136 528.7153" clip-path="url(#clipPath2)"/>
      <path fill="none" d="M1171.6622 582.1436 L1171.6622 588.9112" clip-path="url(#clipPath2)"/>
      <path fill="none" d="M1171.6622 642.3395 L1171.6622 649.1071" clip-path="url(#clipPath2)"/>
      <path fill="none" d="M1171.6622 702.5355 L1171.6622 709.303" clip-path="url(#clipPath2)"/>
    </g>
  </g>
</svg>
