<?xml version="1.0" encoding="UTF-8"?><svg xmlns="http://www.w3.org/2000/svg" xmlns:xlink="http://www.w3.org/1999/xlink" fill-opacity="1" color-rendering="auto" color-interpolation="auto" text-rendering="auto" stroke="black" stroke-linecap="square" width="785" stroke-miterlimit="10" shape-rendering="auto" stroke-opacity="1" fill="black" stroke-dasharray="none" font-weight="normal" stroke-width="1" height="1226" font-family="'Dialog'" font-style="normal" stroke-linejoin="miter" font-size="12px" stroke-dashoffset="0" image-rendering="auto">
  <!--Generated by ySVG 2.6-->
  <defs id="genericDefs"/>
  <g>
    <defs id="defs1">
      <clipPath clipPathUnits="userSpaceOnUse" id="clipPath1">
        <path d="M0 0 L785 0 L785 1226 L0 1226 L0 0 Z"/>
      </clipPath>
      <clipPath clipPathUnits="userSpaceOnUse" id="clipPath2">
        <path d="M402 118 L1187 118 L1187 1344 L402 1344 L402 118 Z"/>
      </clipPath>
    </defs>
    <g fill="white" text-rendering="geometricPrecision" shape-rendering="geometricPrecision" transform="translate(-402,-118)" stroke="white">
      <rect x="402" width="785" height="1226" y="118" clip-path="url(#clipPath2)" stroke="none"/>
    </g>
    <g text-rendering="geometricPrecision" stroke-miterlimit="1.45" shape-rendering="geometricPrecision" transform="matrix(1,0,0,1,-402,-118)" stroke-linecap="butt">
      <rect x="668.7125" y="163.9805" clip-path="url(#clipPath2)" fill="none" width="158.08" rx="26.72" ry="26.72" height="53.44"/>
      <text x="724.8365" xml:space="preserve" y="194.8548" clip-path="url(#clipPath2)" font-family="sans-serif" stroke="none">Начало</text>
    </g>
    <g text-rendering="geometricPrecision" stroke-miterlimit="1.45" shape-rendering="geometricPrecision" transform="matrix(1,0,0,1,-402,-118)" stroke-linecap="butt">
      <path fill="none" d="M899.9471 133.9005 L886.3472 133.9005 L886.3472 247.5005 L899.9471 247.5005" clip-path="url(#clipPath2)"/>
      <text x="897.1743" xml:space="preserve" y="152.9485" clip-path="url(#clipPath2)" font-family="sans-serif" stroke="none">Алгоритм Штрассена </text>
      <text x="897.1743" xml:space="preserve" y="166.9173" clip-path="url(#clipPath2)" font-family="sans-serif" stroke="none">умножения матриц     </text>
      <text x="897.1743" xml:space="preserve" y="180.886" clip-path="url(#clipPath2)" font-family="sans-serif" stroke="none">Вход: </text>
      <text x="897.1743" xml:space="preserve" y="194.8548" clip-path="url(#clipPath2)" font-family="sans-serif" stroke="none">матрица A размером NxN</text>
      <text x="897.1743" xml:space="preserve" y="208.8235" clip-path="url(#clipPath2)" font-family="sans-serif" stroke="none">матрица B размером NxN</text>
      <text x="897.1743" xml:space="preserve" y="222.7923" clip-path="url(#clipPath2)" font-family="sans-serif" stroke="none">Выход:  </text>
      <text x="897.1743" xml:space="preserve" y="236.761" clip-path="url(#clipPath2)" font-family="sans-serif" stroke="none">матрица C размером NxN</text>
    </g>
    <g text-rendering="geometricPrecision" stroke-miterlimit="1.45" shape-rendering="geometricPrecision" transform="matrix(1,0,0,1,-402,-118)" stroke-linecap="butt">
      <path fill="none" d="M668.7125 224.1764 L826.7925 224.1764 L826.7925 277.6164 L668.7125 277.6164 Z" clip-path="url(#clipPath2)"/>
      <text x="686.8004" xml:space="preserve" y="241.082" clip-path="url(#clipPath2)" font-family="sans-serif" stroke="none">Создать матрицу C</text>
      <text x="692.7974" xml:space="preserve" y="255.0507" clip-path="url(#clipPath2)" font-family="sans-serif" stroke="none">размером  NxN и </text>
      <text x="680.0621" xml:space="preserve" y="269.0194" clip-path="url(#clipPath2)" font-family="sans-serif" stroke="none">заполнить ее нулями</text>
    </g>
    <g text-rendering="geometricPrecision" stroke-miterlimit="1.45" shape-rendering="geometricPrecision" transform="matrix(1,0,0,1,-402,-118)" stroke-linecap="butt">
      <rect x="668.7125" y="1274.6495" clip-path="url(#clipPath2)" fill="none" width="158.08" rx="26.72" ry="26.72" height="53.44"/>
      <text x="728.1236" xml:space="preserve" y="1305.5238" clip-path="url(#clipPath2)" font-family="sans-serif" stroke="none">Конец</text>
    </g>
    <g text-rendering="geometricPrecision" stroke-miterlimit="1.45" shape-rendering="geometricPrecision" transform="matrix(1,0,0,1,-402,-118)" stroke-linecap="butt">
      <path fill="none" d="M747.7525 284.3723 L826.7925 311.0923 L747.7525 337.8123 L668.7125 311.0923 Z" clip-path="url(#clipPath2)"/>
      <text x="683.856" xml:space="preserve" y="315.2466" clip-path="url(#clipPath2)" font-family="sans-serif" stroke="none">N - степень двойки?</text>
    </g>
    <g text-rendering="geometricPrecision" stroke-miterlimit="1.45" shape-rendering="geometricPrecision" transform="matrix(1,0,0,1,-402,-118)" stroke-linecap="butt">
      <path fill="none" d="M632.9625 402.9285 L862.5425 402.9285 L862.5425 500.8685 L632.9625 500.8685 Z" clip-path="url(#clipPath2)"/>
      <text x="678.316" xml:space="preserve" y="421.1309" clip-path="url(#clipPath2)" font-family="sans-serif" stroke="none">Создание подматриц </text>
      <text x="651.3541" xml:space="preserve" y="435.0997" clip-path="url(#clipPath2)" font-family="sans-serif" stroke="none">матриц A (A00, A01, A10, A11),</text>
      <text x="676.6929" xml:space="preserve" y="449.0684" clip-path="url(#clipPath2)" font-family="sans-serif" stroke="none">B (B00, B01, B10, B11) </text>
      <text x="672.4273" xml:space="preserve" y="463.0372" clip-path="url(#clipPath2)" font-family="sans-serif" stroke="none">и С (C00, C01, C10, C11)</text>
      <text x="693.2574" xml:space="preserve" y="477.0059" clip-path="url(#clipPath2)" font-family="sans-serif" stroke="none">и их заполнение </text>
      <text x="646.1949" xml:space="preserve" y="490.9747" clip-path="url(#clipPath2)" font-family="sans-serif" stroke="none">соответствующими значениями</text>
    </g>
    <g text-rendering="geometricPrecision" stroke-miterlimit="1.45" shape-rendering="geometricPrecision" transform="matrix(1,0,0,1,-402,-118)" stroke-linecap="butt">
      <path fill="none" d="M922.04 367.8123 L1001.08 394.5323 L922.04 421.2523 L843 394.5323 Z" clip-path="url(#clipPath2)"/>
      <text x="896.6806" xml:space="preserve" y="398.6866" clip-path="url(#clipPath2)" font-family="sans-serif" stroke="none">N &lt;= 2?</text>
    </g>
    <g text-rendering="geometricPrecision" stroke-miterlimit="1.45" shape-rendering="geometricPrecision" transform="matrix(1,0,0,1,-402,-118)" stroke-linecap="butt">
      <rect fill="none" x="986.3913" width="185.1136" height="53.44" y="840.4322" clip-path="url(#clipPath2)"/>
      <path fill="none" d="M996.3914 840.4322 L996.3914 893.8722 M1161.505 840.4322 L1161.505 893.8722 M996.3914 840.4322 Z" clip-path="url(#clipPath2)"/>
      <text x="1035.1581" xml:space="preserve" y="857.3377" clip-path="url(#clipPath2)" font-family="sans-serif" stroke="none">Классическое</text>
      <text x="1040.7596" xml:space="preserve" y="871.3065" clip-path="url(#clipPath2)" font-family="sans-serif" stroke="none">умножение </text>
      <text x="1038.7645" xml:space="preserve" y="885.2752" clip-path="url(#clipPath2)" font-family="sans-serif" stroke="none">двух матриц</text>
    </g>
    <g text-rendering="geometricPrecision" stroke-miterlimit="1.45" shape-rendering="geometricPrecision" transform="matrix(1,0,0,1,-402,-118)" stroke-linecap="butt">
      <path fill="none" d="M632.9625 510.5528 L862.5425 510.5528 L862.5425 563.9928 L632.9625 563.9928 Z" clip-path="url(#clipPath2)"/>
      <text x="729.9166" xml:space="preserve" y="534.4427" clip-path="url(#clipPath2)" font-family="sans-serif" stroke="none">M1 = </text>
      <text x="637.2711" xml:space="preserve" y="548.4115" clip-path="url(#clipPath2)" font-family="sans-serif" stroke="none">Strassen((A00 + A11),  (B00 + B11))</text>
    </g>
    <g text-rendering="geometricPrecision" stroke-miterlimit="1.45" shape-rendering="geometricPrecision" transform="matrix(1,0,0,1,-402,-118)" stroke-linecap="butt">
      <path fill="none" d="M632.9625 573.6771 L862.5425 573.6771 L862.5425 627.1171 L632.9625 627.1171 Z" clip-path="url(#clipPath2)"/>
      <text x="646.6168" xml:space="preserve" y="604.5515" clip-path="url(#clipPath2)" font-family="sans-serif" stroke="none">M2 = Strassen((A10 + A11), B00)</text>
    </g>
    <g text-rendering="geometricPrecision" stroke-miterlimit="1.45" shape-rendering="geometricPrecision" transform="matrix(1,0,0,1,-402,-118)" stroke-linecap="butt">
      <path fill="none" d="M632.9625 636.8015 L862.5425 636.8015 L862.5425 690.2415 L632.9625 690.2415 Z" clip-path="url(#clipPath2)"/>
      <text x="646.4673" xml:space="preserve" y="667.6757" clip-path="url(#clipPath2)" font-family="sans-serif" stroke="none">M3 = Strassen(A00 * (B01 - B11))</text>
    </g>
    <g text-rendering="geometricPrecision" stroke-miterlimit="1.45" shape-rendering="geometricPrecision" transform="matrix(1,0,0,1,-402,-118)" stroke-linecap="butt">
      <path fill="none" d="M632.9625 699.9258 L862.5425 699.9258 L862.5425 753.3657 L632.9625 753.3657 Z" clip-path="url(#clipPath2)"/>
      <text x="649.4673" xml:space="preserve" y="730.8" clip-path="url(#clipPath2)" font-family="sans-serif" stroke="none">M4 = Strassen(A11, (B10 - B00))</text>
    </g>
    <g text-rendering="geometricPrecision" stroke-miterlimit="1.45" shape-rendering="geometricPrecision" transform="matrix(1,0,0,1,-402,-118)" stroke-linecap="butt">
      <path fill="none" d="M632.9625 763.05 L862.5425 763.05 L862.5425 816.4901 L632.9625 816.4901 Z" clip-path="url(#clipPath2)"/>
      <text x="646.6168" xml:space="preserve" y="793.9244" clip-path="url(#clipPath2)" font-family="sans-serif" stroke="none">M5 = Strassen((A00 + A01), B11)</text>
    </g>
    <g text-rendering="geometricPrecision" stroke-miterlimit="1.45" shape-rendering="geometricPrecision" transform="matrix(1,0,0,1,-402,-118)" stroke-linecap="butt">
      <path fill="none" d="M632.9625 826.1744 L862.5425 826.1744 L862.5425 879.6144 L632.9625 879.6144 Z" clip-path="url(#clipPath2)"/>
      <text x="729.9166" xml:space="preserve" y="850.0643" clip-path="url(#clipPath2)" font-family="sans-serif" stroke="none">M6 = </text>
      <text x="642.0406" xml:space="preserve" y="864.0331" clip-path="url(#clipPath2)" font-family="sans-serif" stroke="none">Strassen((A10 - A00), (B00 + B01))</text>
    </g>
    <g text-rendering="geometricPrecision" stroke-miterlimit="1.45" shape-rendering="geometricPrecision" transform="matrix(1,0,0,1,-402,-118)" stroke-linecap="butt">
      <path fill="none" d="M632.9625 889.2987 L862.5425 889.2987 L862.5425 942.7387 L632.9625 942.7387 Z" clip-path="url(#clipPath2)"/>
      <text x="729.9166" xml:space="preserve" y="913.1886" clip-path="url(#clipPath2)" font-family="sans-serif" stroke="none">M7 = </text>
      <text x="642.0406" xml:space="preserve" y="927.1573" clip-path="url(#clipPath2)" font-family="sans-serif" stroke="none">Strassen((A01 - A11), (B10 + B11))</text>
    </g>
    <g text-rendering="geometricPrecision" stroke-miterlimit="1.45" shape-rendering="geometricPrecision" transform="matrix(1,0,0,1,-402,-118)" stroke-linecap="butt">
      <path fill="none" d="M632.9625 952.423 L862.5425 952.423 L862.5425 1005.863 L632.9625 1005.863 Z" clip-path="url(#clipPath2)"/>
      <text x="667.4468" xml:space="preserve" y="983.2973" clip-path="url(#clipPath2)" font-family="sans-serif" stroke="none">C00 = M1 + M4 - M5 + M7</text>
    </g>
    <g text-rendering="geometricPrecision" stroke-miterlimit="1.45" shape-rendering="geometricPrecision" transform="matrix(1,0,0,1,-402,-118)" stroke-linecap="butt">
      <path fill="none" d="M632.9625 1015.5473 L862.5425 1015.5473 L862.5425 1068.9873 L632.9625 1068.9873 Z" clip-path="url(#clipPath2)"/>
      <text x="700.2564" xml:space="preserve" y="1046.4216" clip-path="url(#clipPath2)" font-family="sans-serif" stroke="none">C01 = M3 + M5</text>
    </g>
    <g text-rendering="geometricPrecision" stroke-miterlimit="1.45" shape-rendering="geometricPrecision" transform="matrix(1,0,0,1,-402,-118)" stroke-linecap="butt">
      <path fill="none" d="M632.9625 1078.6716 L862.5425 1078.6716 L862.5425 1132.1116 L632.9625 1132.1116 Z" clip-path="url(#clipPath2)"/>
      <text x="700.2564" xml:space="preserve" y="1109.5459" clip-path="url(#clipPath2)" font-family="sans-serif" stroke="none">C10 = M2 + M4</text>
    </g>
    <g text-rendering="geometricPrecision" stroke-miterlimit="1.45" shape-rendering="geometricPrecision" transform="matrix(1,0,0,1,-402,-118)" stroke-linecap="butt">
      <path fill="none" d="M632.9625 1141.7959 L862.5425 1141.7959 L862.5425 1195.236 L632.9625 1195.236 Z" clip-path="url(#clipPath2)"/>
      <text x="667.4468" xml:space="preserve" y="1172.6703" clip-path="url(#clipPath2)" font-family="sans-serif" stroke="none">C11 = M1 - M2 + M3 + M6</text>
    </g>
    <g text-rendering="geometricPrecision" stroke-miterlimit="1.45" shape-rendering="geometricPrecision" transform="matrix(1,0,0,1,-402,-118)" stroke-linecap="butt">
      <path fill="none" d="M632.9625 1204.9203 L862.5425 1204.9203 L862.5425 1258.3602 L632.9625 1258.3602 Z" clip-path="url(#clipPath2)"/>
      <text x="643.9097" xml:space="preserve" y="1221.8258" clip-path="url(#clipPath2)" font-family="sans-serif" stroke="none">Формирование результирующей</text>
      <text x="667.2916" xml:space="preserve" y="1235.7946" clip-path="url(#clipPath2)" font-family="sans-serif" stroke="none">матрицы С из подматриц</text>
      <text x="689.0123" xml:space="preserve" y="1249.7633" clip-path="url(#clipPath2)" font-family="sans-serif" stroke="none">С00, C01, C10, C11</text>
    </g>
    <g text-rendering="geometricPrecision" stroke-miterlimit="1.45" shape-rendering="geometricPrecision" transform="matrix(1,0,0,1,-402,-118)" stroke-linecap="butt">
      <path fill="none" d="M417.675 331.1056 L647.2549 331.1056 L647.2549 384.5456 L417.675 384.5456 Z" clip-path="url(#clipPath2)"/>
      <text x="459.8263" xml:space="preserve" y="348.0112" clip-path="url(#clipPath2)" font-family="sans-serif" stroke="none">Дополнение размеров </text>
      <text x="441.586" xml:space="preserve" y="361.9799" clip-path="url(#clipPath2)" font-family="sans-serif" stroke="none">матриц A, B и C до размеров</text>
      <text x="481.8575" xml:space="preserve" y="375.9487" clip-path="url(#clipPath2)" font-family="sans-serif" stroke="none">степени двойки</text>
    </g>
    <g text-rendering="geometricPrecision" stroke-miterlimit="1.45" stroke-dasharray="6,2" shape-rendering="geometricPrecision" transform="matrix(1,0,0,1,-402,-118)" stroke-linecap="butt">
      <path fill="none" d="M886.326 190.7005 L826.8165 190.7005" clip-path="url(#clipPath2)"/>
    </g>
    <g text-rendering="geometricPrecision" stroke-miterlimit="1.45" shape-rendering="geometricPrecision" transform="matrix(1,0,0,1,-402,-118)" stroke-linecap="butt">
      <path fill="none" d="M747.7525 217.4183 L747.7525 224.1859" clip-path="url(#clipPath2)"/>
      <path fill="none" d="M747.7525 277.6142 L747.7525 284.3818" clip-path="url(#clipPath2)"/>
      <path fill="none" d="M826.769 311.0923 L922.04 311.0923 L922.04 367.8462" clip-path="url(#clipPath2)"/>
      <text x="873.7341" xml:space="preserve" y="285.2466" clip-path="url(#clipPath2)" font-family="sans-serif" stroke="none">Да</text>
      <path fill="none" d="M843.0234 394.5323 L747.7525 394.5323 L747.7525 402.9076" clip-path="url(#clipPath2)"/>
      <path fill="none" d="M1001.0687 394.5323 L1078.9481 394.5323 L1078.9481 840.4116" clip-path="url(#clipPath2)"/>
      <text x="1039.3319" xml:space="preserve" y="368.6866" clip-path="url(#clipPath2)" font-family="sans-serif" stroke="none">Да</text>
      <path fill="none" d="M1078.9481 893.9101 L1078.9481 1266.425 L747.7525 1266.425 L747.7525 1274.6426" clip-path="url(#clipPath2)"/>
      <path fill="none" d="M747.7525 500.8803 L747.7525 510.5826" clip-path="url(#clipPath2)"/>
      <path fill="none" d="M747.7525 563.9958 L747.7525 573.7005" clip-path="url(#clipPath2)"/>
      <path fill="none" d="M747.7525 627.0851 L747.7525 636.7811" clip-path="url(#clipPath2)"/>
      <path fill="none" d="M747.7525 690.2445 L747.7525 699.9491" clip-path="url(#clipPath2)"/>
      <path fill="none" d="M747.7525 753.3688 L747.7525 763.0734" clip-path="url(#clipPath2)"/>
      <path fill="none" d="M747.7525 816.4931 L747.7525 826.1978" clip-path="url(#clipPath2)"/>
      <path fill="none" d="M747.7525 879.6174 L747.7525 889.3221" clip-path="url(#clipPath2)"/>
      <path fill="none" d="M747.7525 942.7417 L747.7525 952.4464" clip-path="url(#clipPath2)"/>
      <path fill="none" d="M747.7525 1005.866 L747.7525 1015.5707" clip-path="url(#clipPath2)"/>
      <path fill="none" d="M747.7525 1068.9624 L747.7525 1078.7012" clip-path="url(#clipPath2)"/>
      <path fill="none" d="M747.7525 1132.1146 L747.7525 1141.8193" clip-path="url(#clipPath2)"/>
      <path fill="none" d="M747.7525 1195.239 L747.7525 1204.9436" clip-path="url(#clipPath2)"/>
      <path fill="none" d="M747.7525 1258.3676 L747.7525 1274.6193" clip-path="url(#clipPath2)"/>
      <path fill="none" d="M668.7278 311.0923 L532.465 311.0923 L532.465 331.1274" clip-path="url(#clipPath2)"/>
      <path fill="none" d="M532.465 384.5312 L532.465 394.5323 L747.7525 394.5323 L747.7525 401.75 L747.7525 402.9317" clip-path="url(#clipPath2)"/>
    </g>
  </g>
</svg>
