<?xml version="1.0" encoding="UTF-8"?><svg xmlns="http://www.w3.org/2000/svg" xmlns:xlink="http://www.w3.org/1999/xlink" fill-opacity="1" color-rendering="auto" color-interpolation="auto" text-rendering="auto" stroke="black" stroke-linecap="square" width="574" stroke-miterlimit="10" shape-rendering="auto" stroke-opacity="1" fill="black" stroke-dasharray="none" font-weight="normal" stroke-width="1" height="1229" font-family="'Dialog'" font-style="normal" stroke-linejoin="miter" font-size="12px" stroke-dashoffset="0" image-rendering="auto">
  <!--Generated by ySVG 2.6-->
  <defs id="genericDefs"/>
  <g>
    <defs id="defs1">
      <clipPath clipPathUnits="userSpaceOnUse" id="clipPath1">
        <path d="M0 0 L574 0 L574 1229 L0 1229 L0 0 Z"/>
      </clipPath>
      <clipPath clipPathUnits="userSpaceOnUse" id="clipPath2">
        <path d="M536 130 L1110 130 L1110 1359 L536 1359 L536 130 Z"/>
      </clipPath>
    </defs>
    <g fill="white" text-rendering="geometricPrecision" shape-rendering="geometricPrecision" transform="translate(-536,-130)" stroke="white">
      <rect x="536" width="574" height="1229" y="130" clip-path="url(#clipPath2)" stroke="none"/>
    </g>
    <g text-rendering="geometricPrecision" stroke-miterlimit="1.45" shape-rendering="geometricPrecision" transform="matrix(1,0,0,1,-536,-130)" stroke-linecap="butt">
      <rect x="673.1957" y="175.9805" clip-path="url(#clipPath2)" fill="none" width="185.1136" rx="26.72" ry="26.72" height="53.44"/>
      <text x="742.8365" xml:space="preserve" y="206.8548" clip-path="url(#clipPath2)" font-family="sans-serif" stroke="none">Начало</text>
    </g>
    <g text-rendering="geometricPrecision" stroke-miterlimit="1.45" shape-rendering="geometricPrecision" transform="matrix(1,0,0,1,-536,-130)" stroke-linecap="butt">
      <path fill="none" d="M917.9471 145.9005 L904.3472 145.9005 L904.3472 259.5005 L917.9471 259.5005" clip-path="url(#clipPath2)"/>
      <text x="914.4429" xml:space="preserve" y="164.9485" clip-path="url(#clipPath2)" font-family="sans-serif" stroke="none">Алгоритм Винограда </text>
      <text x="914.4429" xml:space="preserve" y="178.9173" clip-path="url(#clipPath2)" font-family="sans-serif" stroke="none">умножения матриц     </text>
      <text x="914.4429" xml:space="preserve" y="192.886" clip-path="url(#clipPath2)" font-family="sans-serif" stroke="none">Вход: </text>
      <text x="914.4429" xml:space="preserve" y="206.8548" clip-path="url(#clipPath2)" font-family="sans-serif" stroke="none">матрица A размером NxM</text>
      <text x="914.4429" xml:space="preserve" y="220.8235" clip-path="url(#clipPath2)" font-family="sans-serif" stroke="none">матрица B размером MxP</text>
      <text x="914.4429" xml:space="preserve" y="234.7923" clip-path="url(#clipPath2)" font-family="sans-serif" stroke="none">Выход:  </text>
      <text x="914.4429" xml:space="preserve" y="248.761" clip-path="url(#clipPath2)" font-family="sans-serif" stroke="none">матрица C размером NxP</text>
    </g>
    <g text-rendering="geometricPrecision" stroke-miterlimit="1.45" shape-rendering="geometricPrecision" transform="matrix(1,0,0,1,-536,-130)" stroke-linecap="butt">
      <path fill="none" d="M673.1957 236.1764 L858.3093 236.1764 L858.3093 289.6164 L673.1957 289.6164 Z" clip-path="url(#clipPath2)"/>
      <text x="704.8004" xml:space="preserve" y="253.082" clip-path="url(#clipPath2)" font-family="sans-serif" stroke="none">Создать матрицу C</text>
      <text x="711.6675" xml:space="preserve" y="267.0507" clip-path="url(#clipPath2)" font-family="sans-serif" stroke="none">размером  NxP и </text>
      <text x="698.0621" xml:space="preserve" y="281.0194" clip-path="url(#clipPath2)" font-family="sans-serif" stroke="none">заполнить ее нулями</text>
    </g>
    <g text-rendering="geometricPrecision" stroke-miterlimit="1.45" shape-rendering="geometricPrecision" transform="matrix(1,0,0,1,-536,-130)" stroke-linecap="butt">
      <rect fill="none" x="673.1957" width="185.1136" height="53.44" y="296.3723" clip-path="url(#clipPath2)"/>
      <path fill="none" d="M683.1957 296.3723 L683.1957 349.8123 M848.3093 296.3723 L848.3093 349.8123 M683.1957 296.3723 Z" clip-path="url(#clipPath2)"/>
      <text x="725.2086" xml:space="preserve" y="320.2623" clip-path="url(#clipPath2)" font-family="sans-serif" stroke="none">Вычисление </text>
      <text x="735.7906" xml:space="preserve" y="334.231" clip-path="url(#clipPath2)" font-family="sans-serif" stroke="none">rowFactor</text>
    </g>
    <g text-rendering="geometricPrecision" stroke-miterlimit="1.45" shape-rendering="geometricPrecision" transform="matrix(1,0,0,1,-536,-130)" stroke-linecap="butt">
      <rect fill="none" x="673.1957" width="185.1136" height="53.44" y="356.5683" clip-path="url(#clipPath2)"/>
      <path fill="none" d="M683.1957 356.5683 L683.1957 410.0083 M848.3093 356.5683 L848.3093 410.0083 M683.1957 356.5683 Z" clip-path="url(#clipPath2)"/>
      <text x="725.2086" xml:space="preserve" y="380.4582" clip-path="url(#clipPath2)" font-family="sans-serif" stroke="none">Вычисление </text>
      <text x="738.1988" xml:space="preserve" y="394.4269" clip-path="url(#clipPath2)" font-family="sans-serif" stroke="none">colFactor</text>
    </g>
    <g text-rendering="geometricPrecision" stroke-miterlimit="1.45" shape-rendering="geometricPrecision" transform="matrix(1,0,0,1,-536,-130)" stroke-linecap="butt">
      <path fill="none" d="M683.1957 419.0683 L848.3093 419.0683 L858.3093 429.0683 L858.3093 472.5083 L673.1957 472.5083 L673.1957 429.0683 Z" clip-path="url(#clipPath2)"/>
      <text x="694.0367" xml:space="preserve" y="442.9582" clip-path="url(#clipPath2)" font-family="sans-serif" stroke="none">Цикл по i от 0 до  N - 1</text>
      <text x="734.3052" xml:space="preserve" y="456.9269" clip-path="url(#clipPath2)" font-family="sans-serif" stroke="none">c шагом 1</text>
    </g>
    <g text-rendering="geometricPrecision" stroke-miterlimit="1.45" shape-rendering="geometricPrecision" transform="matrix(1,0,0,1,-536,-130)" stroke-linecap="butt">
      <path fill="none" d="M683.1957 481.5683 L848.3093 481.5683 L858.3093 491.5683 L858.3093 535.0082 L673.1957 535.0082 L673.1957 491.5683 Z" clip-path="url(#clipPath2)"/>
      <text x="694.9068" xml:space="preserve" y="505.4582" clip-path="url(#clipPath2)" font-family="sans-serif" stroke="none">Цикл по j от 0 до  P - 1</text>
      <text x="734.3052" xml:space="preserve" y="519.4269" clip-path="url(#clipPath2)" font-family="sans-serif" stroke="none">c шагом 1</text>
    </g>
    <g text-rendering="geometricPrecision" stroke-miterlimit="1.45" shape-rendering="geometricPrecision" transform="matrix(1,0,0,1,-536,-130)" stroke-linecap="butt">
      <path fill="none" d="M683.1957 606.5682 L848.3093 606.5682 L858.3093 616.5682 L858.3093 660.0082 L673.1957 660.0082 L673.1957 616.5682 Z" clip-path="url(#clipPath2)"/>
      <text x="708.4214" xml:space="preserve" y="630.4582" clip-path="url(#clipPath2)" font-family="sans-serif" stroke="none">Цикл по k от 0 до </text>
      <text x="704.9966" xml:space="preserve" y="644.4269" clip-path="url(#clipPath2)" font-family="sans-serif" stroke="none"> (M - 1)/2 c шагом 1</text>
    </g>
    <g text-rendering="geometricPrecision" stroke-miterlimit="1.45" shape-rendering="geometricPrecision" transform="matrix(1,0,0,1,-536,-130)" stroke-linecap="butt">
      <path fill="none" d="M673.1957 669.0682 L858.3093 669.0682 L858.3093 722.5082 L673.1957 722.5082 Z" clip-path="url(#clipPath2)"/>
      <text x="734.9966" xml:space="preserve" y="685.9738" clip-path="url(#clipPath2)" font-family="sans-serif" stroke="none">С[i][j] += </text>
      <text x="678.1959" xml:space="preserve" y="699.9426" clip-path="url(#clipPath2)" font-family="sans-serif" stroke="none">(A[i][2 * k] * B[2 * k + 1][j]) *</text>
      <text x="683.1031" xml:space="preserve" y="713.9113" clip-path="url(#clipPath2)" font-family="sans-serif" stroke="none">(A[i][2 * k + 1] * B[2 * k][j])</text>
    </g>
    <g text-rendering="geometricPrecision" stroke-miterlimit="1.45" shape-rendering="geometricPrecision" transform="matrix(1,0,0,1,-536,-130)" stroke-linecap="butt">
      <path fill="none" d="M765.7525 919.0682 L858.3093 945.7883 L765.7525 972.5082 L673.1957 945.7883 Z" clip-path="url(#clipPath2)"/>
      <text x="721.7808" xml:space="preserve" y="949.9426" clip-path="url(#clipPath2)" font-family="sans-serif" stroke="none">M - нечетное?</text>
    </g>
    <g text-rendering="geometricPrecision" stroke-miterlimit="1.45" shape-rendering="geometricPrecision" transform="matrix(1,0,0,1,-536,-130)" stroke-linecap="butt">
      <path fill="none" d="M673.1957 731.5682 L858.3093 731.5682 L858.3093 775.0082 L848.3093 785.0082 L683.1957 785.0082 L673.1957 775.0082 Z" clip-path="url(#clipPath2)"/>
      <text x="710.2144" xml:space="preserve" y="762.4426" clip-path="url(#clipPath2)" font-family="sans-serif" stroke="none">Конец цикла по k</text>
    </g>
    <g text-rendering="geometricPrecision" stroke-miterlimit="1.45" shape-rendering="geometricPrecision" transform="matrix(1,0,0,1,-536,-130)" stroke-linecap="butt">
      <path fill="none" d="M673.1957 794.0682 L858.3093 794.0682 L858.3093 837.5082 L848.3093 847.5082 L683.1957 847.5082 L673.1957 837.5082 Z" clip-path="url(#clipPath2)"/>
      <text x="712.022" xml:space="preserve" y="824.9426" clip-path="url(#clipPath2)" font-family="sans-serif" stroke="none">Конец цикла по j</text>
    </g>
    <g text-rendering="geometricPrecision" stroke-miterlimit="1.45" shape-rendering="geometricPrecision" transform="matrix(1,0,0,1,-536,-130)" stroke-linecap="butt">
      <path fill="none" d="M673.1957 856.5682 L858.3093 856.5682 L858.3093 900.0082 L848.3093 910.0082 L683.1957 910.0082 L673.1957 900.0082 Z" clip-path="url(#clipPath2)"/>
      <text x="712.022" xml:space="preserve" y="887.4426" clip-path="url(#clipPath2)" font-family="sans-serif" stroke="none">Конец цикла по i</text>
    </g>
    <g text-rendering="geometricPrecision" stroke-miterlimit="1.45" shape-rendering="geometricPrecision" transform="matrix(1,0,0,1,-536,-130)" stroke-linecap="butt">
      <path fill="none" d="M919.3289 956.1734 L1084.4425 956.1734 L1094.4425 966.1734 L1094.4425 1009.6134 L909.3289 1009.6134 L909.3289 966.1734 Z" clip-path="url(#clipPath2)"/>
      <text x="931.3885" xml:space="preserve" y="980.0634" clip-path="url(#clipPath2)" font-family="sans-serif" stroke="none">Цикл по i от 0 до M - 1</text>
      <text x="970.4384" xml:space="preserve" y="994.0321" clip-path="url(#clipPath2)" font-family="sans-serif" stroke="none">c шагом 1</text>
    </g>
    <g text-rendering="geometricPrecision" stroke-miterlimit="1.45" shape-rendering="geometricPrecision" transform="matrix(1,0,0,1,-536,-130)" stroke-linecap="butt">
      <path fill="none" d="M919.3289 1021.5585 L1084.4425 1021.5585 L1094.4425 1031.5585 L1094.4425 1074.9985 L909.3289 1074.9985 L909.3289 1031.5585 Z" clip-path="url(#clipPath2)"/>
      <text x="931.0399" xml:space="preserve" y="1045.4485" clip-path="url(#clipPath2)" font-family="sans-serif" stroke="none">Цикл по j от 0 до  P - 1</text>
      <text x="970.4384" xml:space="preserve" y="1059.4172" clip-path="url(#clipPath2)" font-family="sans-serif" stroke="none">c шагом 1</text>
    </g>
    <g text-rendering="geometricPrecision" stroke-miterlimit="1.45" shape-rendering="geometricPrecision" transform="matrix(1,0,0,1,-536,-130)" stroke-linecap="butt">
      <path fill="none" d="M909.3289 1086.9436 L1094.4425 1086.9436 L1094.4425 1140.3837 L909.3289 1140.3837 Z" clip-path="url(#clipPath2)"/>
      <text x="971.1298" xml:space="preserve" y="1110.8336" clip-path="url(#clipPath2)" font-family="sans-serif" stroke="none">С[i][j] += </text>
      <text x="934.8427" xml:space="preserve" y="1124.8024" clip-path="url(#clipPath2)" font-family="sans-serif" stroke="none">A[i][M - 1] * B[M - 1][j]</text>
    </g>
    <g text-rendering="geometricPrecision" stroke-miterlimit="1.45" shape-rendering="geometricPrecision" transform="matrix(1,0,0,1,-536,-130)" stroke-linecap="butt">
      <path fill="none" d="M909.3289 1152.3287 L1094.4425 1152.3287 L1094.4425 1195.7688 L1084.4425 1205.7688 L919.3289 1205.7688 L909.3289 1195.7688 Z" clip-path="url(#clipPath2)"/>
      <text x="948.1552" xml:space="preserve" y="1183.203" clip-path="url(#clipPath2)" font-family="sans-serif" stroke="none">Конец цикла по j</text>
    </g>
    <g text-rendering="geometricPrecision" stroke-miterlimit="1.45" shape-rendering="geometricPrecision" transform="matrix(1,0,0,1,-536,-130)" stroke-linecap="butt">
      <path fill="none" d="M909.3289 1217.7139 L1094.4425 1217.7139 L1094.4425 1261.1539 L1084.4425 1271.1539 L919.3289 1271.1539 L909.3289 1261.1539 Z" clip-path="url(#clipPath2)"/>
      <text x="948.1552" xml:space="preserve" y="1248.5881" clip-path="url(#clipPath2)" font-family="sans-serif" stroke="none">Конец цикла по i</text>
    </g>
    <g text-rendering="geometricPrecision" stroke-miterlimit="1.45" shape-rendering="geometricPrecision" transform="matrix(1,0,0,1,-536,-130)" stroke-linecap="butt">
      <rect x="673.1957" y="1290.3934" clip-path="url(#clipPath2)" fill="none" width="185.1136" rx="26.72" ry="26.72" height="53.44"/>
      <text x="746.1236" xml:space="preserve" y="1321.2677" clip-path="url(#clipPath2)" font-family="sans-serif" stroke="none">Конец</text>
    </g>
    <g text-rendering="geometricPrecision" stroke-miterlimit="1.45" shape-rendering="geometricPrecision" transform="matrix(1,0,0,1,-536,-130)" stroke-linecap="butt">
      <path fill="none" d="M673.1957 544.0682 L858.3093 544.0682 L858.3093 597.5082 L673.1957 597.5082 Z" clip-path="url(#clipPath2)"/>
      <text x="741.9312" xml:space="preserve" y="567.9582" clip-path="url(#clipPath2)" font-family="sans-serif" stroke="none">С[i][j] =</text>
      <text x="687.2925" xml:space="preserve" y="581.9269" clip-path="url(#clipPath2)" font-family="sans-serif" stroke="none"> - rowFactor[i]-colFactor[J]</text>
    </g>
    <g text-rendering="geometricPrecision" stroke-miterlimit="1.45" stroke-dasharray="6,2" shape-rendering="geometricPrecision" transform="matrix(1,0,0,1,-536,-130)" stroke-linecap="butt">
      <path fill="none" d="M904.326 202.7005 L858.2814 202.7005" clip-path="url(#clipPath2)"/>
    </g>
    <g text-rendering="geometricPrecision" stroke-miterlimit="1.45" shape-rendering="geometricPrecision" transform="matrix(1,0,0,1,-536,-130)" stroke-linecap="butt">
      <path fill="none" d="M765.7525 229.4183 L765.7525 236.1859" clip-path="url(#clipPath2)"/>
      <path fill="none" d="M765.7525 289.6142 L765.7525 296.3818" clip-path="url(#clipPath2)"/>
      <path fill="none" d="M765.7525 349.8102 L765.7525 356.5777" clip-path="url(#clipPath2)"/>
      <path fill="none" d="M765.7525 409.9911 L765.7525 419.0453" clip-path="url(#clipPath2)"/>
      <path fill="none" d="M765.7525 472.4911 L765.7525 481.5453" clip-path="url(#clipPath2)"/>
      <path fill="none" d="M765.7525 659.9911 L765.7525 669.0453" clip-path="url(#clipPath2)"/>
      <path fill="none" d="M765.7525 722.4911 L765.7525 731.5453" clip-path="url(#clipPath2)"/>
      <path fill="none" d="M765.7525 784.9911 L765.7525 794.0453" clip-path="url(#clipPath2)"/>
      <path fill="none" d="M765.7525 847.4911 L765.7525 856.5453" clip-path="url(#clipPath2)"/>
      <path fill="none" d="M765.7525 909.9911 L765.7525 919.0453" clip-path="url(#clipPath2)"/>
      <path fill="none" d="M858.3091 945.7883 L1001.8856 945.7883 L1001.8856 956.1879" clip-path="url(#clipPath2)"/>
      <text x="929.4153" xml:space="preserve" y="919.9426" clip-path="url(#clipPath2)" font-family="sans-serif" stroke="none">Да</text>
      <path fill="none" d="M1001.8856 1009.6158 L1001.8856 1021.5846" clip-path="url(#clipPath2)"/>
      <path fill="none" d="M1001.8856 1075.0009 L1001.8856 1086.9697" clip-path="url(#clipPath2)"/>
      <path fill="none" d="M1001.8856 1140.386 L1001.8856 1152.3549" clip-path="url(#clipPath2)"/>
      <path fill="none" d="M1001.8856 1205.7711 L1001.8856 1217.74" clip-path="url(#clipPath2)"/>
      <path fill="none" d="M673.204 945.7883 L551.1596 945.7883 L551.1596 1008.0434 L551.1596 1282.7673 L765.7525 1282.7673 L765.7525 1290.3812" clip-path="url(#clipPath2)"/>
      <path fill="none" d="M1001.8856 1271.1251 L1001.8856 1282.7673 L765.7525 1282.7673 L765.7525 1290.4092" clip-path="url(#clipPath2)"/>
      <path fill="none" d="M765.7525 534.9911 L765.7525 544.0453" clip-path="url(#clipPath2)"/>
      <path fill="none" d="M765.7525 597.4911 L765.7525 606.5453" clip-path="url(#clipPath2)"/>
    </g>
  </g>
</svg>
