<?xml version="1.0" encoding="UTF-8"?><svg xmlns="http://www.w3.org/2000/svg" xmlns:xlink="http://www.w3.org/1999/xlink" fill-opacity="1" color-rendering="auto" color-interpolation="auto" text-rendering="auto" stroke="black" stroke-linecap="square" width="436" stroke-miterlimit="10" shape-rendering="auto" stroke-opacity="1" fill="black" stroke-dasharray="none" font-weight="normal" stroke-width="1" height="521" font-family="'Dialog'" font-style="normal" stroke-linejoin="miter" font-size="12px" stroke-dashoffset="0" image-rendering="auto">
  <!--Generated by ySVG 2.6-->
  <defs id="genericDefs"/>
  <g>
    <defs id="defs1">
      <clipPath clipPathUnits="userSpaceOnUse" id="clipPath1">
        <path d="M0 0 L436 0 L436 521 L0 521 L0 0 Z"/>
      </clipPath>
      <clipPath clipPathUnits="userSpaceOnUse" id="clipPath2">
        <path d="M602 47 L1038 47 L1038 568 L602 568 L602 47 Z"/>
      </clipPath>
    </defs>
    <g fill="white" text-rendering="geometricPrecision" shape-rendering="geometricPrecision" transform="translate(-602,-47)" stroke="white">
      <rect x="602" width="436" height="521" y="47" clip-path="url(#clipPath2)" stroke="none"/>
    </g>
    <g text-rendering="geometricPrecision" stroke-miterlimit="1.45" shape-rendering="geometricPrecision" transform="matrix(1,0,0,1,-602,-47)" stroke-linecap="butt">
      <rect x="617.3913" y="77.881" clip-path="url(#clipPath2)" fill="none" width="185.1136" rx="26.72" ry="26.72" height="53.44"/>
      <text x="687.0321" xml:space="preserve" y="108.7553" clip-path="url(#clipPath2)" font-family="sans-serif" stroke="none">Начало</text>
    </g>
    <g text-rendering="geometricPrecision" stroke-miterlimit="1.45" shape-rendering="geometricPrecision" transform="matrix(1,0,0,1,-602,-47)" stroke-linecap="butt">
      <path fill="none" d="M866.5018 62.841 L853.5245 62.841 L853.5245 146.361 L866.5018 146.361" clip-path="url(#clipPath2)"/>
      <text x="858.6386" xml:space="preserve" y="80.8178" clip-path="url(#clipPath2)" font-family="sans-serif" stroke="none">Вычисление rowFactor    </text>
      <text x="858.6386" xml:space="preserve" y="94.7865" clip-path="url(#clipPath2)" font-family="sans-serif" stroke="none">Вход: </text>
      <text x="858.6386" xml:space="preserve" y="108.7553" clip-path="url(#clipPath2)" font-family="sans-serif" stroke="none">матрица A размером NxM</text>
      <text x="858.6386" xml:space="preserve" y="122.724" clip-path="url(#clipPath2)" font-family="sans-serif" stroke="none">Выход:  </text>
      <text x="858.6386" xml:space="preserve" y="136.6928" clip-path="url(#clipPath2)" font-family="sans-serif" stroke="none">массив rowFactor</text>
    </g>
    <g text-rendering="geometricPrecision" stroke-miterlimit="1.45" shape-rendering="geometricPrecision" transform="matrix(1,0,0,1,-602,-47)" stroke-linecap="butt">
      <path fill="none" d="M617.3914 138.0769 L802.5049 138.0769 L802.5049 191.5169 L617.3914 191.5169 Z" clip-path="url(#clipPath2)"/>
      <text x="626.121" xml:space="preserve" y="161.9668" clip-path="url(#clipPath2)" font-family="sans-serif" stroke="none">Создать массив rowFactor </text>
      <text x="633.3192" xml:space="preserve" y="175.9356" clip-path="url(#clipPath2)" font-family="sans-serif" stroke="none">и заполнить его нулями</text>
    </g>
    <g text-rendering="geometricPrecision" stroke-miterlimit="1.45" shape-rendering="geometricPrecision" transform="matrix(1,0,0,1,-602,-47)" stroke-linecap="butt">
      <path fill="none" d="M627.3914 198.2728 L792.5049 198.2728 L802.5049 208.2728 L802.5049 251.7128 L617.3914 251.7128 L617.3914 208.2728 Z" clip-path="url(#clipPath2)"/>
      <text x="638.2323" xml:space="preserve" y="222.1627" clip-path="url(#clipPath2)" font-family="sans-serif" stroke="none">Цикл по i от 0 до  N - 1</text>
      <text x="678.5009" xml:space="preserve" y="236.1315" clip-path="url(#clipPath2)" font-family="sans-serif" stroke="none">c шагом 1</text>
    </g>
    <g text-rendering="geometricPrecision" stroke-miterlimit="1.45" shape-rendering="geometricPrecision" transform="matrix(1,0,0,1,-602,-47)" stroke-linecap="butt">
      <path fill="none" d="M627.3914 258.4688 L792.5049 258.4688 L802.5049 268.4688 L802.5049 311.9088 L617.3914 311.9088 L617.3914 268.4688 Z" clip-path="url(#clipPath2)"/>
      <text x="627.0233" xml:space="preserve" y="282.3587" clip-path="url(#clipPath2)" font-family="sans-serif" stroke="none">Цикл по j от 0 до  (M - 1)/2</text>
      <text x="678.5009" xml:space="preserve" y="296.3274" clip-path="url(#clipPath2)" font-family="sans-serif" stroke="none">c шагом 1</text>
    </g>
    <g text-rendering="geometricPrecision" stroke-miterlimit="1.45" shape-rendering="geometricPrecision" transform="matrix(1,0,0,1,-602,-47)" stroke-linecap="butt">
      <path fill="none" d="M617.3914 378.8606 L802.5049 378.8606 L802.5049 422.3006 L792.5049 432.3006 L627.3914 432.3006 L617.3914 422.3006 Z" clip-path="url(#clipPath2)"/>
      <text x="656.2177" xml:space="preserve" y="409.7349" clip-path="url(#clipPath2)" font-family="sans-serif" stroke="none">Конец цикла по j</text>
    </g>
    <g text-rendering="geometricPrecision" stroke-miterlimit="1.45" shape-rendering="geometricPrecision" transform="matrix(1,0,0,1,-602,-47)" stroke-linecap="butt">
      <path fill="none" d="M617.3914 439.0565 L802.5049 439.0565 L802.5049 482.4965 L792.5049 492.4965 L627.3914 492.4965 L617.3914 482.4965 Z" clip-path="url(#clipPath2)"/>
      <text x="656.2177" xml:space="preserve" y="469.9308" clip-path="url(#clipPath2)" font-family="sans-serif" stroke="none">Конец цикла по i</text>
    </g>
    <g text-rendering="geometricPrecision" stroke-miterlimit="1.45" shape-rendering="geometricPrecision" transform="matrix(1,0,0,1,-602,-47)" stroke-linecap="butt">
      <rect x="617.3913" y="499.2524" clip-path="url(#clipPath2)" fill="none" width="185.1136" rx="26.72" ry="26.72" height="53.44"/>
      <text x="690.3192" xml:space="preserve" y="530.1268" clip-path="url(#clipPath2)" font-family="sans-serif" stroke="none">Конец</text>
    </g>
    <g text-rendering="geometricPrecision" stroke-miterlimit="1.45" shape-rendering="geometricPrecision" transform="matrix(1,0,0,1,-602,-47)" stroke-linecap="butt">
      <path fill="none" d="M617.3914 318.6647 L802.5049 318.6647 L802.5049 372.1047 L617.3914 372.1047 Z" clip-path="url(#clipPath2)"/>
      <text x="661.6757" xml:space="preserve" y="342.5546" clip-path="url(#clipPath2)" font-family="sans-serif" stroke="none">rowFactor[i] +=</text>
      <text x="635.6073" xml:space="preserve" y="356.5233" clip-path="url(#clipPath2)" font-family="sans-serif" stroke="none">A[i][2 * j] * A[i][2 * j + 1]</text>
    </g>
    <g text-rendering="geometricPrecision" stroke-miterlimit="1.45" stroke-dasharray="6,2" shape-rendering="geometricPrecision" transform="matrix(1,0,0,1,-602,-47)" stroke-linecap="butt">
      <path fill="none" d="M853.5555 104.601 L802.4725 104.601" clip-path="url(#clipPath2)"/>
    </g>
    <g text-rendering="geometricPrecision" stroke-miterlimit="1.45" shape-rendering="geometricPrecision" transform="matrix(1,0,0,1,-602,-47)" stroke-linecap="butt">
      <path fill="none" d="M709.9481 131.3188 L709.9481 138.0863" clip-path="url(#clipPath2)"/>
      <path fill="none" d="M709.9481 191.5147 L709.9481 198.2823" clip-path="url(#clipPath2)"/>
      <path fill="none" d="M709.9481 251.7106 L709.9481 258.4782" clip-path="url(#clipPath2)"/>
      <path fill="none" d="M709.9481 432.2984 L709.9481 439.0659" clip-path="url(#clipPath2)"/>
      <path fill="none" d="M709.9481 492.4944 L709.9481 499.2619" clip-path="url(#clipPath2)"/>
      <path fill="none" d="M709.9481 311.9066 L709.9481 318.6741" clip-path="url(#clipPath2)"/>
      <path fill="none" d="M709.9481 372.1025 L709.9481 378.87" clip-path="url(#clipPath2)"/>
    </g>
  </g>
</svg>
