<?xml version="1.0" encoding="UTF-8"?><svg xmlns="http://www.w3.org/2000/svg" xmlns:xlink="http://www.w3.org/1999/xlink" fill-opacity="1" color-rendering="auto" color-interpolation="auto" text-rendering="auto" stroke="black" stroke-linecap="square" width="436" stroke-miterlimit="10" shape-rendering="auto" stroke-opacity="1" fill="black" stroke-dasharray="none" font-weight="normal" stroke-width="1" height="521" font-family="'Dialog'" font-style="normal" stroke-linejoin="miter" font-size="12px" stroke-dashoffset="0" image-rendering="auto">
  <!--Generated by ySVG 2.6-->
  <defs id="genericDefs"/>
  <g>
    <defs id="defs1">
      <clipPath clipPathUnits="userSpaceOnUse" id="clipPath1">
        <path d="M0 0 L436 0 L436 521 L0 521 L0 0 Z"/>
      </clipPath>
      <clipPath clipPathUnits="userSpaceOnUse" id="clipPath2">
        <path d="M627 73 L1063 73 L1063 594 L627 594 L627 73 Z"/>
      </clipPath>
    </defs>
    <g fill="white" text-rendering="geometricPrecision" shape-rendering="geometricPrecision" transform="translate(-627,-73)" stroke="white">
      <rect x="627" width="436" height="521" y="73" clip-path="url(#clipPath2)" stroke="none"/>
    </g>
    <g text-rendering="geometricPrecision" stroke-miterlimit="1.45" shape-rendering="geometricPrecision" transform="matrix(1,0,0,1,-627,-73)" stroke-linecap="butt">
      <rect x="642.7827" y="103.7219" clip-path="url(#clipPath2)" fill="none" width="185.1136" rx="26.72" ry="26.72" height="53.44"/>
      <text x="712.4235" xml:space="preserve" y="134.5962" clip-path="url(#clipPath2)" font-family="sans-serif" stroke="none">Начало</text>
    </g>
    <g text-rendering="geometricPrecision" stroke-miterlimit="1.45" shape-rendering="geometricPrecision" transform="matrix(1,0,0,1,-627,-73)" stroke-linecap="butt">
      <path fill="none" d="M891.8931 88.6819 L878.9159 88.6819 L878.9159 172.2019 L891.8931 172.2019" clip-path="url(#clipPath2)"/>
      <text x="885.0701" xml:space="preserve" y="106.6587" clip-path="url(#clipPath2)" font-family="sans-serif" stroke="none">Вычисление colFactor    </text>
      <text x="885.0701" xml:space="preserve" y="120.6275" clip-path="url(#clipPath2)" font-family="sans-serif" stroke="none">Вход: </text>
      <text x="885.0701" xml:space="preserve" y="134.5962" clip-path="url(#clipPath2)" font-family="sans-serif" stroke="none">матрица B размером MxP</text>
      <text x="885.0701" xml:space="preserve" y="148.565" clip-path="url(#clipPath2)" font-family="sans-serif" stroke="none">Выход:  </text>
      <text x="885.0701" xml:space="preserve" y="162.5337" clip-path="url(#clipPath2)" font-family="sans-serif" stroke="none">массив colFactor</text>
    </g>
    <g text-rendering="geometricPrecision" stroke-miterlimit="1.45" shape-rendering="geometricPrecision" transform="matrix(1,0,0,1,-627,-73)" stroke-linecap="butt">
      <path fill="none" d="M642.7827 163.9178 L827.8963 163.9178 L827.8963 217.3578 L642.7827 217.3578 Z" clip-path="url(#clipPath2)"/>
      <text x="653.9205" xml:space="preserve" y="187.8078" clip-path="url(#clipPath2)" font-family="sans-serif" stroke="none">Создать массив colFactor </text>
      <text x="658.7106" xml:space="preserve" y="201.7765" clip-path="url(#clipPath2)" font-family="sans-serif" stroke="none">и заполнить его нулями</text>
    </g>
    <g text-rendering="geometricPrecision" stroke-miterlimit="1.45" shape-rendering="geometricPrecision" transform="matrix(1,0,0,1,-627,-73)" stroke-linecap="butt">
      <path fill="none" d="M652.7827 224.1138 L817.8963 224.1138 L827.8963 234.1138 L827.8963 277.5538 L642.7827 277.5538 L642.7827 234.1138 Z" clip-path="url(#clipPath2)"/>
      <text x="664.4938" xml:space="preserve" y="248.0037" clip-path="url(#clipPath2)" font-family="sans-serif" stroke="none">Цикл по j от 0 до  P - 1</text>
      <text x="703.8922" xml:space="preserve" y="261.9724" clip-path="url(#clipPath2)" font-family="sans-serif" stroke="none">c шагом 1</text>
    </g>
    <g text-rendering="geometricPrecision" stroke-miterlimit="1.45" shape-rendering="geometricPrecision" transform="matrix(1,0,0,1,-627,-73)" stroke-linecap="butt">
      <path fill="none" d="M652.7827 284.3097 L817.8963 284.3097 L827.8963 294.3097 L827.8963 337.7497 L642.7827 337.7497 L642.7827 294.3097 Z" clip-path="url(#clipPath2)"/>
      <text x="652.4147" xml:space="preserve" y="308.1996" clip-path="url(#clipPath2)" font-family="sans-serif" stroke="none">Цикл по i от 0 до  (M - 1)/2</text>
      <text x="703.8922" xml:space="preserve" y="322.1684" clip-path="url(#clipPath2)" font-family="sans-serif" stroke="none">c шагом 1</text>
    </g>
    <g text-rendering="geometricPrecision" stroke-miterlimit="1.45" shape-rendering="geometricPrecision" transform="matrix(1,0,0,1,-627,-73)" stroke-linecap="butt">
      <path fill="none" d="M642.7827 404.7016 L827.8963 404.7016 L827.8963 448.1415 L817.8963 458.1415 L652.7827 458.1415 L642.7827 448.1415 Z" clip-path="url(#clipPath2)"/>
      <text x="681.609" xml:space="preserve" y="435.5759" clip-path="url(#clipPath2)" font-family="sans-serif" stroke="none">Конец цикла по i</text>
    </g>
    <g text-rendering="geometricPrecision" stroke-miterlimit="1.45" shape-rendering="geometricPrecision" transform="matrix(1,0,0,1,-627,-73)" stroke-linecap="butt">
      <path fill="none" d="M642.7827 464.8975 L827.8963 464.8975 L827.8963 508.3375 L817.8963 518.3375 L652.7827 518.3375 L642.7827 508.3375 Z" clip-path="url(#clipPath2)"/>
      <text x="681.609" xml:space="preserve" y="495.7718" clip-path="url(#clipPath2)" font-family="sans-serif" stroke="none">Конец цикла по j</text>
    </g>
    <g text-rendering="geometricPrecision" stroke-miterlimit="1.45" shape-rendering="geometricPrecision" transform="matrix(1,0,0,1,-627,-73)" stroke-linecap="butt">
      <rect x="642.7827" y="525.0934" clip-path="url(#clipPath2)" fill="none" width="185.1136" rx="26.72" ry="26.72" height="53.44"/>
      <text x="715.7106" xml:space="preserve" y="555.9677" clip-path="url(#clipPath2)" font-family="sans-serif" stroke="none">Конец</text>
    </g>
    <g text-rendering="geometricPrecision" stroke-miterlimit="1.45" shape-rendering="geometricPrecision" transform="matrix(1,0,0,1,-627,-73)" stroke-linecap="butt">
      <path fill="none" d="M642.7827 344.5056 L827.8963 344.5056 L827.8963 397.9456 L642.7827 397.9456 Z" clip-path="url(#clipPath2)"/>
      <text x="689.4752" xml:space="preserve" y="368.3955" clip-path="url(#clipPath2)" font-family="sans-serif" stroke="none">colFactor[j] +=</text>
      <text x="660.9752" xml:space="preserve" y="382.3643" clip-path="url(#clipPath2)" font-family="sans-serif" stroke="none">B[i * 2][j] * B[i * 2 + 1][j]</text>
    </g>
    <g text-rendering="geometricPrecision" stroke-miterlimit="1.45" stroke-dasharray="6,2" shape-rendering="geometricPrecision" transform="matrix(1,0,0,1,-627,-73)" stroke-linecap="butt">
      <path fill="none" d="M878.9469 130.4419 L827.8639 130.4419" clip-path="url(#clipPath2)"/>
    </g>
    <g text-rendering="geometricPrecision" stroke-miterlimit="1.45" shape-rendering="geometricPrecision" transform="matrix(1,0,0,1,-627,-73)" stroke-linecap="butt">
      <path fill="none" d="M735.3395 157.1597 L735.3395 163.9273" clip-path="url(#clipPath2)"/>
      <path fill="none" d="M735.3395 217.3557 L735.3395 224.1232" clip-path="url(#clipPath2)"/>
      <path fill="none" d="M735.3395 277.5516 L735.3395 284.3192" clip-path="url(#clipPath2)"/>
      <path fill="none" d="M735.3395 458.1394 L735.3395 464.9069" clip-path="url(#clipPath2)"/>
      <path fill="none" d="M735.3395 518.3353 L735.3395 525.1028" clip-path="url(#clipPath2)"/>
      <path fill="none" d="M735.3395 337.7475 L735.3395 344.5151" clip-path="url(#clipPath2)"/>
      <path fill="none" d="M735.3395 397.9435 L735.3395 404.711" clip-path="url(#clipPath2)"/>
    </g>
  </g>
</svg>
