<?xml version="1.0" encoding="UTF-8"?><svg xmlns="http://www.w3.org/2000/svg" xmlns:xlink="http://www.w3.org/1999/xlink" fill-opacity="1" color-rendering="auto" color-interpolation="auto" text-rendering="auto" stroke="black" stroke-linecap="square" width="546" stroke-miterlimit="10" shape-rendering="auto" stroke-opacity="1" fill="black" stroke-dasharray="none" font-weight="normal" stroke-width="1" height="729" font-family="'Dialog'" font-style="normal" stroke-linejoin="miter" font-size="12px" stroke-dashoffset="0" image-rendering="auto">
  <!--Generated by ySVG 2.6-->
  <defs id="genericDefs"/>
  <g>
    <defs id="defs1">
      <clipPath clipPathUnits="userSpaceOnUse" id="clipPath1">
        <path d="M0 0 L546 0 L546 729 L0 729 L0 0 Z"/>
      </clipPath>
      <clipPath clipPathUnits="userSpaceOnUse" id="clipPath2">
        <path d="M590 174 L1136 174 L1136 903 L590 903 L590 174 Z"/>
      </clipPath>
    </defs>
    <g fill="white" text-rendering="geometricPrecision" shape-rendering="geometricPrecision" transform="translate(-590,-174)" stroke="white">
      <rect x="590" width="546" height="729" y="174" clip-path="url(#clipPath2)" stroke="none"/>
    </g>
    <g text-rendering="geometricPrecision" stroke-miterlimit="1.45" shape-rendering="geometricPrecision" transform="matrix(1,0,0,1,-590,-174)" stroke-linecap="butt">
      <rect x="605" y="205.25" clip-path="url(#clipPath2)" fill="none" width="212" rx="38" ry="38" height="76"/>
      <text x="688.084" xml:space="preserve" y="247.4043" clip-path="url(#clipPath2)" font-family="sans-serif" stroke="none">Начало</text>
    </g>
    <g text-rendering="geometricPrecision" stroke-miterlimit="1.45" shape-rendering="geometricPrecision" transform="matrix(1,0,0,1,-590,-174)" stroke-linecap="butt">
      <path fill="none" d="M904.875 189 L874 189 L874 297.5 L904.875 297.5" clip-path="url(#clipPath2)"/>
      <text x="884.9238" xml:space="preserve" y="205.498" clip-path="url(#clipPath2)" font-family="sans-serif" stroke="none">Алгоритм работы 3-го потока</text>
      <text x="884.9238" xml:space="preserve" y="219.4668" clip-path="url(#clipPath2)" font-family="sans-serif" stroke="none">Вход:</text>
      <text x="884.9238" xml:space="preserve" y="233.4355" clip-path="url(#clipPath2)" font-family="sans-serif" stroke="none">numAppl - количество заявок</text>
      <text x="884.9238" xml:space="preserve" y="247.4043" clip-path="url(#clipPath2)" font-family="sans-serif" stroke="none">q2 - очередь между потоками 2 и 3</text>
      <text x="884.9238" xml:space="preserve" y="261.373" clip-path="url(#clipPath2)" font-family="sans-serif" stroke="none">mq2 - мьютекс для очереди q2</text>
      <text x="884.9238" xml:space="preserve" y="275.3418" clip-path="url(#clipPath2)" font-family="sans-serif" stroke="none">Выход:</text>
      <text x="884.9238" xml:space="preserve" y="289.3105" clip-path="url(#clipPath2)" font-family="sans-serif" stroke="none">Лог-файл </text>
    </g>
    <g text-rendering="geometricPrecision" stroke-miterlimit="1.45" shape-rendering="geometricPrecision" transform="matrix(1,0,0,1,-590,-174)" stroke-linecap="butt">
      <path fill="none" d="M615 292.25 L807 292.25 L817 302.25 L817 368.25 L605 368.25 L605 302.25 Z" clip-path="url(#clipPath2)"/>
      <text x="618.8408" xml:space="preserve" y="334.4043" clip-path="url(#clipPath2)" font-family="sans-serif" stroke="none">Цикл по i от 0 до numAppl - 1</text>
    </g>
    <g text-rendering="geometricPrecision" stroke-miterlimit="1.45" shape-rendering="geometricPrecision" transform="matrix(1,0,0,1,-590,-174)" stroke-linecap="butt">
      <rect x="891.5" y="724.25" clip-path="url(#clipPath2)" fill="none" width="212" rx="38" ry="38" height="76"/>
      <text x="977.8711" xml:space="preserve" y="766.4043" clip-path="url(#clipPath2)" font-family="sans-serif" stroke="none">Конец</text>
    </g>
    <g text-rendering="geometricPrecision" stroke-miterlimit="1.45" shape-rendering="geometricPrecision" transform="matrix(1,0,0,1,-590,-174)" stroke-linecap="butt">
      <path fill="none" d="M891.5 641.75 L1103.5 641.75 L1103.5 704.75 L1093.5 714.75 L901.5 714.75 L891.5 704.75 Z" clip-path="url(#clipPath2)"/>
      <text x="943.7695" xml:space="preserve" y="682.4043" clip-path="url(#clipPath2)" font-family="sans-serif" stroke="none">Конец цикла по i</text>
    </g>
    <g text-rendering="geometricPrecision" stroke-miterlimit="1.45" shape-rendering="geometricPrecision" transform="matrix(1,0,0,1,-590,-174)" stroke-linecap="butt">
      <path fill="none" d="M615 379.25 L807 379.25 L817 389.25 L817 455.25 L605 455.25 L605 389.25 Z" clip-path="url(#clipPath2)"/>
      <text x="633.0586" xml:space="preserve" y="414.4199" clip-path="url(#clipPath2)" font-family="sans-serif" stroke="none">Цикл по q пока очередь </text>
      <text x="674.001" xml:space="preserve" y="428.3887" clip-path="url(#clipPath2)" font-family="sans-serif" stroke="none">q2 не пуста</text>
    </g>
    <g text-rendering="geometricPrecision" stroke-miterlimit="1.45" shape-rendering="geometricPrecision" transform="matrix(1,0,0,1,-590,-174)" stroke-linecap="butt">
      <path fill="none" d="M605 466.25 L817 466.25 L817 529.25 L807 539.25 L615 539.25 L605 529.25 Z" clip-path="url(#clipPath2)"/>
      <text x="655.1279" xml:space="preserve" y="506.9043" clip-path="url(#clipPath2)" font-family="sans-serif" stroke="none">Конец цикла по q</text>
    </g>
    <g text-rendering="geometricPrecision" stroke-miterlimit="1.45" shape-rendering="geometricPrecision" transform="matrix(1,0,0,1,-590,-174)" stroke-linecap="butt">
      <path fill="none" d="M605 550.25 L817 550.25 L817 626.25 L605 626.25 Z" clip-path="url(#clipPath2)"/>
      <text x="622.1426" xml:space="preserve" y="571.4512" clip-path="url(#clipPath2)" font-family="sans-serif" stroke="none">Обеспечение монопольного</text>
      <text x="649.4355" xml:space="preserve" y="585.4199" clip-path="url(#clipPath2)" font-family="sans-serif" stroke="none">доступа к очереди </text>
      <text x="634.7432" xml:space="preserve" y="599.3887" clip-path="url(#clipPath2)" font-family="sans-serif" stroke="none">заявок q2 и считывание</text>
      <text x="689.4639" xml:space="preserve" y="613.3574" clip-path="url(#clipPath2)" font-family="sans-serif" stroke="none">заявки</text>
    </g>
    <g text-rendering="geometricPrecision" stroke-miterlimit="1.45" shape-rendering="geometricPrecision" transform="matrix(1,0,0,1,-590,-174)" stroke-linecap="butt">
      <rect fill="none" x="891.5" width="212" height="76" y="554.75" clip-path="url(#clipPath2)"/>
      <path fill="none" d="M901.5 554.75 L901.5 630.75 M1093.5 554.75 L1093.5 630.75 M901.5 554.75 Z" clip-path="url(#clipPath2)"/>
      <text x="908.7246" xml:space="preserve" y="596.9043" clip-path="url(#clipPath2)" font-family="sans-serif" stroke="none">Логирование заявки в файл</text>
    </g>
    <g text-rendering="geometricPrecision" stroke-miterlimit="1.45" shape-rendering="geometricPrecision" transform="matrix(1,0,0,1,-590,-174)" stroke-linecap="butt">
      <path fill="none" d="M605 724.25 L817 724.25 L817 800.25 L605 800.25 Z" clip-path="url(#clipPath2)"/>
      <text x="649.8545" xml:space="preserve" y="759.4199" clip-path="url(#clipPath2)" font-family="sans-serif" stroke="none">считывание заявки</text>
      <text x="666.0146" xml:space="preserve" y="773.3887" clip-path="url(#clipPath2)" font-family="sans-serif" stroke="none">из очереди q2</text>
    </g>
    <g text-rendering="geometricPrecision" stroke-miterlimit="1.45" shape-rendering="geometricPrecision" transform="matrix(1,0,0,1,-590,-174)" stroke-linecap="butt">
      <rect fill="none" x="605" width="212" height="76" y="637.25" clip-path="url(#clipPath2)"/>
      <path fill="none" d="M615 637.25 L615 713.25 M807 637.25 L807 713.25 M615 637.25 Z" clip-path="url(#clipPath2)"/>
      <text x="622.1426" xml:space="preserve" y="665.4355" clip-path="url(#clipPath2)" font-family="sans-serif" stroke="none">Обеспечение монопольного</text>
      <text x="628.1279" xml:space="preserve" y="679.4043" clip-path="url(#clipPath2)" font-family="sans-serif" stroke="none">доступа к очереди заявок</text>
      <text x="618.0469" xml:space="preserve" y="693.373" clip-path="url(#clipPath2)" font-family="sans-serif" stroke="none">q2 с помощью мьютекса mq2</text>
    </g>
    <g text-rendering="geometricPrecision" stroke-miterlimit="1.45" shape-rendering="geometricPrecision" transform="matrix(1,0,0,1,-590,-174)" stroke-linecap="butt">
      <rect fill="none" x="891.5" width="212" height="76" y="467.75" clip-path="url(#clipPath2)"/>
      <path fill="none" d="M901.5 467.75 L901.5 543.75 M1093.5 467.75 L1093.5 543.75 M901.5 467.75 Z" clip-path="url(#clipPath2)"/>
      <text x="948.2344" xml:space="preserve" y="502.9199" clip-path="url(#clipPath2)" font-family="sans-serif" stroke="none">Освобождение </text>
      <text x="951.2227" xml:space="preserve" y="516.8887" clip-path="url(#clipPath2)" font-family="sans-serif" stroke="none">мьютекса mq2</text>
    </g>
    <g text-rendering="geometricPrecision" stroke-miterlimit="1.45" shape-rendering="geometricPrecision" transform="matrix(1,0,0,1,-590,-174)" stroke-linecap="butt">
      <circle fill="none" r="38" clip-path="url(#clipPath2)" cx="711" cy="849.25"/>
      <text x="706.8955" xml:space="preserve" y="853.4043" clip-path="url(#clipPath2)" font-family="sans-serif" stroke="none">A</text>
    </g>
    <g text-rendering="geometricPrecision" stroke-miterlimit="1.45" shape-rendering="geometricPrecision" transform="matrix(1,0,0,1,-590,-174)" stroke-linecap="butt">
      <circle fill="none" r="38" clip-path="url(#clipPath2)" cx="997.5" cy="418.75"/>
      <text x="993.3955" xml:space="preserve" y="422.9043" clip-path="url(#clipPath2)" font-family="sans-serif" stroke="none">A</text>
    </g>
    <g text-rendering="geometricPrecision" stroke-miterlimit="1.45" stroke-dasharray="6,2" shape-rendering="geometricPrecision" transform="matrix(1,0,0,1,-590,-174)" stroke-linecap="butt">
      <path fill="none" d="M874.0098 243.25 L816.9803 243.25" clip-path="url(#clipPath2)"/>
    </g>
    <g text-rendering="geometricPrecision" stroke-miterlimit="1.45" shape-rendering="geometricPrecision" transform="matrix(1,0,0,1,-590,-174)" stroke-linecap="butt">
      <path fill="none" d="M711 281.27 L711 292.2235" clip-path="url(#clipPath2)"/>
      <path fill="none" d="M997.5 714.7129 L997.5 724.2296" clip-path="url(#clipPath2)"/>
      <path fill="none" d="M711 368.27 L711 379.2235" clip-path="url(#clipPath2)"/>
      <path fill="none" d="M711 455.2825 L711 466.2686" clip-path="url(#clipPath2)"/>
      <path fill="none" d="M711 539.2795 L711 550.231" clip-path="url(#clipPath2)"/>
      <path fill="none" d="M997.5 641.7205 L997.5 630.769" clip-path="url(#clipPath2)"/>
      <path fill="none" d="M711 626.27 L711 637.2236" clip-path="url(#clipPath2)"/>
      <path fill="none" d="M711 713.27 L711 724.2236" clip-path="url(#clipPath2)"/>
      <path fill="none" d="M711 800.27 L711 811.2236" clip-path="url(#clipPath2)"/>
      <path fill="none" d="M997.5 456.77 L997.5 467.7235" clip-path="url(#clipPath2)"/>
    </g>
  </g>
</svg>
