<?xml version="1.0" encoding="UTF-8"?><svg xmlns="http://www.w3.org/2000/svg" xmlns:xlink="http://www.w3.org/1999/xlink" fill-opacity="1" color-rendering="auto" color-interpolation="auto" text-rendering="auto" stroke="black" stroke-linecap="square" width="655" stroke-miterlimit="10" shape-rendering="auto" stroke-opacity="1" fill="black" stroke-dasharray="none" font-weight="normal" stroke-width="1" height="760" font-family="'Dialog'" font-style="normal" stroke-linejoin="miter" font-size="12px" stroke-dashoffset="0" image-rendering="auto">
  <!--Generated by ySVG 2.6-->
  <defs id="genericDefs"/>
  <g>
    <defs id="defs1">
      <clipPath clipPathUnits="userSpaceOnUse" id="clipPath1">
        <path d="M0 0 L655 0 L655 760 L0 760 L0 0 Z"/>
      </clipPath>
      <clipPath clipPathUnits="userSpaceOnUse" id="clipPath2">
        <path d="M527 158 L1182 158 L1182 918 L527 918 L527 158 Z"/>
      </clipPath>
    </defs>
    <g fill="white" text-rendering="geometricPrecision" shape-rendering="geometricPrecision" transform="translate(-527,-158)" stroke="white">
      <rect x="527" width="655" height="760" y="158" clip-path="url(#clipPath2)" stroke="none"/>
    </g>
    <g text-rendering="geometricPrecision" stroke-miterlimit="1.45" shape-rendering="geometricPrecision" transform="matrix(1,0,0,1,-527,-158)" stroke-linecap="butt">
      <rect x="542" y="219.5" clip-path="url(#clipPath2)" fill="none" width="228" rx="33" ry="33" height="66"/>
      <text x="633.084" xml:space="preserve" y="256.6543" clip-path="url(#clipPath2)" font-family="sans-serif" stroke="none">Начало</text>
    </g>
    <g text-rendering="geometricPrecision" stroke-miterlimit="1.45" shape-rendering="geometricPrecision" transform="matrix(1,0,0,1,-527,-158)" stroke-linecap="butt">
      <path fill="none" d="M857.625 173.36 L825 173.36 L825 331.64 L857.625 331.64" clip-path="url(#clipPath2)"/>
      <text x="839.6279" xml:space="preserve" y="193.7949" clip-path="url(#clipPath2)" font-family="sans-serif" stroke="none">функция parallelProcessStr</text>
      <text x="839.6279" xml:space="preserve" y="207.7637" clip-path="url(#clipPath2)" font-family="sans-serif" stroke="none">Вход:</text>
      <text x="839.6279" xml:space="preserve" y="221.7324" clip-path="url(#clipPath2)" font-family="sans-serif" stroke="none">i - индекс строки, с которой начинается обработка</text>
      <text x="839.6279" xml:space="preserve" y="235.7012" clip-path="url(#clipPath2)" font-family="sans-serif" stroke="none">N</text>
      <text x="839.6279" xml:space="preserve" y="249.6699" clip-path="url(#clipPath2)" font-family="sans-serif" stroke="none">g - количество потоков</text>
      <text x="839.6279" xml:space="preserve" y="263.6387" clip-path="url(#clipPath2)" font-family="sans-serif" stroke="none">m - число строк в файле</text>
      <text x="839.6279" xml:space="preserve" y="277.6074" clip-path="url(#clipPath2)" font-family="sans-serif" stroke="none">strText - массив строк исходного текста</text>
      <text x="839.6279" xml:space="preserve" y="291.5762" clip-path="url(#clipPath2)" font-family="sans-serif" stroke="none">localDictCntNgrams                 </text>
      <text x="839.6279" xml:space="preserve" y="305.5449" clip-path="url(#clipPath2)" font-family="sans-serif" stroke="none">Выход:</text>
      <text x="839.6279" xml:space="preserve" y="319.5137" clip-path="url(#clipPath2)" font-family="sans-serif" stroke="none">localDictCntNgrams</text>
    </g>
    <g text-rendering="geometricPrecision" stroke-miterlimit="1.45" shape-rendering="geometricPrecision" transform="matrix(1,0,0,1,-527,-158)" stroke-linecap="butt">
      <path fill="none" d="M552 360.145 L760 360.145 L770 370.145 L770 421.145 L542 421.145 L542 370.145 Z" clip-path="url(#clipPath2)"/>
      <text x="589.2705" xml:space="preserve" y="387.8149" clip-path="url(#clipPath2)" font-family="sans-serif" stroke="none">Цикл по словам word</text>
      <text x="599.5068" xml:space="preserve" y="401.7837" clip-path="url(#clipPath2)" font-family="sans-serif" stroke="none">в строке strText[j]</text>
    </g>
    <g text-rendering="geometricPrecision" stroke-miterlimit="1.45" shape-rendering="geometricPrecision" transform="matrix(1,0,0,1,-527,-158)" stroke-linecap="butt">
      <rect fill="none" x="542" width="228" height="61" y="428.145" clip-path="url(#clipPath2)"/>
      <path fill="none" d="M552 428.145 L552 489.145 M760 428.145 L760 489.145 M552 428.145 Z" clip-path="url(#clipPath2)"/>
      <text x="580.9092" xml:space="preserve" y="455.8149" clip-path="url(#clipPath2)" font-family="sans-serif" stroke="none">Определение N-грамм, </text>
      <text x="582.4971" xml:space="preserve" y="469.7837" clip-path="url(#clipPath2)" font-family="sans-serif" stroke="none">входящих с слово word</text>
    </g>
    <g text-rendering="geometricPrecision" stroke-miterlimit="1.45" shape-rendering="geometricPrecision" transform="matrix(1,0,0,1,-527,-158)" stroke-linecap="butt">
      <path fill="none" d="M552 496.145 L760 496.145 L770 506.145 L770 557.145 L542 557.145 L542 506.145 Z" clip-path="url(#clipPath2)"/>
      <text x="559.8008" xml:space="preserve" y="523.8149" clip-path="url(#clipPath2)" font-family="sans-serif" stroke="none">Цикл по N-граммам currNgram</text>
      <text x="621.2217" xml:space="preserve" y="537.7837" clip-path="url(#clipPath2)" font-family="sans-serif" stroke="none">слова word</text>
    </g>
    <g text-rendering="geometricPrecision" stroke-miterlimit="1.45" shape-rendering="geometricPrecision" transform="matrix(1,0,0,1,-527,-158)" stroke-linecap="butt">
      <path fill="none" d="M542 632.145 L770 632.145 L770 683.145 L760 693.145 L552 693.145 L542 683.145 Z" clip-path="url(#clipPath2)"/>
      <text x="567.4824" xml:space="preserve" y="659.8149" clip-path="url(#clipPath2)" font-family="sans-serif" stroke="none">Конец цикла по N-граммам </text>
      <text x="586.9941" xml:space="preserve" y="673.7837" clip-path="url(#clipPath2)" font-family="sans-serif" stroke="none">currNgram слова word</text>
    </g>
    <g text-rendering="geometricPrecision" stroke-miterlimit="1.45" shape-rendering="geometricPrecision" transform="matrix(1,0,0,1,-527,-158)" stroke-linecap="butt">
      <path fill="none" d="M542 564.145 L770 564.145 L770 625.145 L542 625.145 Z" clip-path="url(#clipPath2)"/>
      <text x="548.46" xml:space="preserve" y="591.8149" clip-path="url(#clipPath2)" font-family="sans-serif" stroke="none">localDictCntNgrams[currNgram] := </text>
      <text x="546.6641" xml:space="preserve" y="605.7837" clip-path="url(#clipPath2)" font-family="sans-serif" stroke="none">localDictCntNgrams[currNgram] + 1</text>
    </g>
    <g text-rendering="geometricPrecision" stroke-miterlimit="1.45" shape-rendering="geometricPrecision" transform="matrix(1,0,0,1,-527,-158)" stroke-linecap="butt">
      <rect x="542" y="836.145" clip-path="url(#clipPath2)" fill="none" width="228" rx="33" ry="33" height="66"/>
      <text x="636.3711" xml:space="preserve" y="873.2993" clip-path="url(#clipPath2)" font-family="sans-serif" stroke="none">Конец</text>
    </g>
    <g text-rendering="geometricPrecision" stroke-miterlimit="1.45" shape-rendering="geometricPrecision" transform="matrix(1,0,0,1,-527,-158)" stroke-linecap="butt">
      <path fill="none" d="M542 700.145 L770 700.145 L770 751.145 L760 761.145 L552 761.145 L542 751.145 Z" clip-path="url(#clipPath2)"/>
      <text x="564.6318" xml:space="preserve" y="727.8149" clip-path="url(#clipPath2)" font-family="sans-serif" stroke="none">Конец цикла по словам word</text>
      <text x="599.5068" xml:space="preserve" y="741.7837" clip-path="url(#clipPath2)" font-family="sans-serif" stroke="none">в строке strText[j]</text>
    </g>
    <g text-rendering="geometricPrecision" stroke-miterlimit="1.45" shape-rendering="geometricPrecision" transform="matrix(1,0,0,1,-527,-158)" stroke-linecap="butt">
      <path fill="none" d="M552 292.3225 L760 292.3225 L770 302.3225 L770 353.3225 L542 353.3225 L542 302.3225 Z" clip-path="url(#clipPath2)"/>
      <text x="586.9854" xml:space="preserve" y="319.9924" clip-path="url(#clipPath2)" font-family="sans-serif" stroke="none">Цикл по j от i до m - 1</text>
      <text x="624.5615" xml:space="preserve" y="333.9612" clip-path="url(#clipPath2)" font-family="sans-serif" stroke="none">c шагом g</text>
    </g>
    <g text-rendering="geometricPrecision" stroke-miterlimit="1.45" shape-rendering="geometricPrecision" transform="matrix(1,0,0,1,-527,-158)" stroke-linecap="butt">
      <path fill="none" d="M542 768.145 L770 768.145 L770 819.145 L760 829.145 L552 829.145 L542 819.145 Z" clip-path="url(#clipPath2)"/>
      <text x="602.2695" xml:space="preserve" y="802.7993" clip-path="url(#clipPath2)" font-family="sans-serif" stroke="none">Конец цикла по j</text>
    </g>
    <g text-rendering="geometricPrecision" stroke-miterlimit="1.45" stroke-dasharray="6,2" shape-rendering="geometricPrecision" transform="matrix(1,0,0,1,-527,-158)" stroke-linecap="butt">
      <path fill="none" d="M825.0172 252.5 L770.0123 252.5" clip-path="url(#clipPath2)"/>
    </g>
    <g text-rendering="geometricPrecision" stroke-miterlimit="1.45" shape-rendering="geometricPrecision" transform="matrix(1,0,0,1,-527,-158)" stroke-linecap="butt">
      <path fill="none" d="M656 421.1587 L656 428.1508" clip-path="url(#clipPath2)"/>
      <path fill="none" d="M656 489.1587 L656 496.1508" clip-path="url(#clipPath2)"/>
      <path fill="none" d="M656 557.1587 L656 564.1508" clip-path="url(#clipPath2)"/>
      <path fill="none" d="M656 625.1587 L656 632.1508" clip-path="url(#clipPath2)"/>
      <path fill="none" d="M656 693.1587 L656 700.1508" clip-path="url(#clipPath2)"/>
      <path fill="none" d="M656 285.498 L656 292.3141" clip-path="url(#clipPath2)"/>
      <path fill="none" d="M656 353.3228 L656 360.1384" clip-path="url(#clipPath2)"/>
      <path fill="none" d="M656 761.1587 L656 768.1508" clip-path="url(#clipPath2)"/>
      <path fill="none" d="M656 829.179 L656 836.1652" clip-path="url(#clipPath2)"/>
    </g>
  </g>
</svg>
