<?xml version="1.0" encoding="UTF-8"?><svg xmlns="http://www.w3.org/2000/svg" xmlns:xlink="http://www.w3.org/1999/xlink" fill-opacity="1" color-rendering="auto" color-interpolation="auto" text-rendering="auto" stroke="black" stroke-linecap="square" width="530" stroke-miterlimit="10" shape-rendering="auto" stroke-opacity="1" fill="black" stroke-dasharray="none" font-weight="normal" stroke-width="1" height="565" font-family="'Dialog'" font-style="normal" stroke-linejoin="miter" font-size="12px" stroke-dashoffset="0" image-rendering="auto">
  <!--Generated by ySVG 2.6-->
  <defs id="genericDefs"/>
  <g>
    <defs id="defs1">
      <clipPath clipPathUnits="userSpaceOnUse" id="clipPath1">
        <path d="M0 0 L530 0 L530 565 L0 565 L0 0 Z"/>
      </clipPath>
      <clipPath clipPathUnits="userSpaceOnUse" id="clipPath2">
        <path d="M531 40 L1061 40 L1061 605 L531 605 L531 40 Z"/>
      </clipPath>
    </defs>
    <g fill="white" text-rendering="geometricPrecision" shape-rendering="geometricPrecision" transform="translate(-531,-40)" stroke="white">
      <rect x="531" width="530" height="565" y="40" clip-path="url(#clipPath2)" stroke="none"/>
    </g>
    <g text-rendering="geometricPrecision" stroke-miterlimit="1.45" shape-rendering="geometricPrecision" transform="matrix(1,0,0,1,-531,-40)" stroke-linecap="butt">
      <rect x="546" y="80.5" clip-path="url(#clipPath2)" fill="none" width="212" rx="38" ry="38" height="76"/>
      <text x="629.084" xml:space="preserve" y="122.6543" clip-path="url(#clipPath2)" font-family="sans-serif" stroke="none">Начало</text>
    </g>
    <g text-rendering="geometricPrecision" stroke-miterlimit="1.45" shape-rendering="geometricPrecision" transform="matrix(1,0,0,1,-531,-40)" stroke-linecap="butt">
      <path fill="none" d="M843.875 55 L815 55 L815 182 L843.875 182" clip-path="url(#clipPath2)"/>
      <text x="825.0049" xml:space="preserve" y="73.7637" clip-path="url(#clipPath2)" font-family="sans-serif" stroke="none">Параллельная обработка</text>
      <text x="825.0049" xml:space="preserve" y="87.7324" clip-path="url(#clipPath2)" font-family="sans-serif" stroke="none">Вход:</text>
      <text x="825.0049" xml:space="preserve" y="101.7012" clip-path="url(#clipPath2)" font-family="sans-serif" stroke="none">numAppl - количество заявок</text>
      <text x="825.0049" xml:space="preserve" y="115.6699" clip-path="url(#clipPath2)" font-family="sans-serif" stroke="none">numLines - число строк в файле</text>
      <text x="825.0049" xml:space="preserve" y="129.6387" clip-path="url(#clipPath2)" font-family="sans-serif" stroke="none">strLenght - длина строки в файле</text>
      <text x="825.0049" xml:space="preserve" y="143.6074" clip-path="url(#clipPath2)" font-family="sans-serif" stroke="none">число N</text>
      <text x="825.0049" xml:space="preserve" y="157.5762" clip-path="url(#clipPath2)" font-family="sans-serif" stroke="none">Выход:</text>
      <text x="825.0049" xml:space="preserve" y="171.5449" clip-path="url(#clipPath2)" font-family="sans-serif" stroke="none">Лог программы</text>
    </g>
    <g text-rendering="geometricPrecision" stroke-miterlimit="1.45" shape-rendering="geometricPrecision" transform="matrix(1,0,0,1,-531,-40)" stroke-linecap="butt">
      <rect x="546" y="513.625" clip-path="url(#clipPath2)" fill="none" width="212" rx="38" ry="38" height="76"/>
      <text x="632.3711" xml:space="preserve" y="555.7793" clip-path="url(#clipPath2)" font-family="sans-serif" stroke="none">Конец</text>
    </g>
    <g text-rendering="geometricPrecision" stroke-miterlimit="1.45" shape-rendering="geometricPrecision" transform="matrix(1,0,0,1,-531,-40)" stroke-linecap="butt">
      <path fill="none" d="M546 165.625 L758 165.625 L758 241.625 L546 241.625 Z" clip-path="url(#clipPath2)"/>
      <text x="587.166" xml:space="preserve" y="200.7949" clip-path="url(#clipPath2)" font-family="sans-serif" stroke="none">q1 - очередь между </text>
      <text x="604.2578" xml:space="preserve" y="214.7637" clip-path="url(#clipPath2)" font-family="sans-serif" stroke="none">потоками 1 и 2</text>
    </g>
    <g text-rendering="geometricPrecision" stroke-miterlimit="1.45" shape-rendering="geometricPrecision" transform="matrix(1,0,0,1,-531,-40)" stroke-linecap="butt">
      <path fill="none" d="M546 252.625 L758 252.625 L758 328.625 L546 328.625 Z" clip-path="url(#clipPath2)"/>
      <text x="587.166" xml:space="preserve" y="287.7949" clip-path="url(#clipPath2)" font-family="sans-serif" stroke="none">q2 - очередь между </text>
      <text x="604.2578" xml:space="preserve" y="301.7637" clip-path="url(#clipPath2)" font-family="sans-serif" stroke="none">потоками 2 и 3</text>
    </g>
    <g text-rendering="geometricPrecision" stroke-miterlimit="1.45" shape-rendering="geometricPrecision" transform="matrix(1,0,0,1,-531,-40)" stroke-linecap="butt">
      <rect fill="none" x="546" width="212" height="76" y="339.625" clip-path="url(#clipPath2)"/>
      <path fill="none" d="M556 339.625 L556 415.625 M748 339.625 L748 415.625 M556 339.625 Z" clip-path="url(#clipPath2)"/>
      <text x="594.6982" xml:space="preserve" y="367.8105" clip-path="url(#clipPath2)" font-family="sans-serif" stroke="none">Запуск потока на </text>
      <text x="599.1602" xml:space="preserve" y="381.7793" clip-path="url(#clipPath2)" font-family="sans-serif" stroke="none">каждую стадию </text>
      <text x="583.3252" xml:space="preserve" y="395.748" clip-path="url(#clipPath2)" font-family="sans-serif" stroke="none">обработки конвейера</text>
    </g>
    <g text-rendering="geometricPrecision" stroke-miterlimit="1.45" shape-rendering="geometricPrecision" transform="matrix(1,0,0,1,-531,-40)" stroke-linecap="butt">
      <rect fill="none" x="546" width="212" height="76" y="426.625" clip-path="url(#clipPath2)"/>
      <path fill="none" d="M556 426.625 L556 502.625 M748 426.625 L748 502.625 M556 426.625 Z" clip-path="url(#clipPath2)"/>
      <text x="578.21" xml:space="preserve" y="461.7949" clip-path="url(#clipPath2)" font-family="sans-serif" stroke="none">Ожидание завершения</text>
      <text x="585.4287" xml:space="preserve" y="475.7637" clip-path="url(#clipPath2)" font-family="sans-serif" stroke="none">работы всех потоков</text>
    </g>
    <g text-rendering="geometricPrecision" stroke-miterlimit="1.45" shape-rendering="geometricPrecision" transform="matrix(1,0,0,1,-531,-40)" stroke-linecap="butt">
      <path fill="none" d="M815.0136 118.5 L757.9827 118.5" clip-path="url(#clipPath2)"/>
    </g>
    <g text-rendering="geometricPrecision" stroke-miterlimit="1.45" shape-rendering="geometricPrecision" transform="matrix(1,0,0,1,-531,-40)" stroke-linecap="butt">
      <path fill="none" d="M652 156.5319 L652 165.5918" clip-path="url(#clipPath2)"/>
      <path fill="none" d="M652 328.645 L652 339.5985" clip-path="url(#clipPath2)"/>
      <path fill="none" d="M652 415.645 L652 426.5985" clip-path="url(#clipPath2)"/>
      <path fill="none" d="M652 502.645 L652 513.5986" clip-path="url(#clipPath2)"/>
    </g>
  </g>
</svg>
